<?xml version="1.0" encoding="UTF-8"?>
<!DOCTYPE svg PUBLIC "-//W3C//DTD SVG 1.1//EN" "http://www.w3.org/Graphics/SVG/1.1/DTD/svg11.dtd">
<svg xmlns="http://www.w3.org/2000/svg" version="1.1" width="500px" height="500px" style="shape-rendering:geometricPrecision; text-rendering:geometricPrecision; image-rendering:optimizeQuality; fill-rule:evenodd; clip-rule:evenodd" xmlns:xlink="http://www.w3.org/1999/xlink">
<g><path style="opacity:1" fill="#fefefe" d="M -0.5,-0.5 C 166.167,-0.5 332.833,-0.5 499.5,-0.5C 499.5,166.167 499.5,332.833 499.5,499.5C 332.833,499.5 166.167,499.5 -0.5,499.5C -0.5,332.833 -0.5,166.167 -0.5,-0.5 Z"/></g>
<g><path style="opacity:1" fill="#fbe5dd" d="M 369.5,165.5 C 370.11,166.391 370.443,167.391 370.5,168.5C 365.44,166.608 360.273,164.941 355,163.5C 352.901,164.278 351.401,165.611 350.5,167.5C 346.862,163.526 343.195,159.526 339.5,155.5C 339.938,155.565 340.272,155.399 340.5,155C 338.513,152.86 337.18,150.36 336.5,147.5C 336.434,145.734 337.268,144.734 339,144.5C 345.251,148.752 350.085,154.252 353.5,161C 358.952,162.195 364.285,163.695 369.5,165.5 Z"/></g>
<g><path style="opacity:1" fill="#fbe4dc" d="M 334.5,155.5 C 334.325,157.621 334.659,159.621 335.5,161.5C 329.93,160.411 325.93,162.411 323.5,167.5C 319.287,164.294 314.62,161.961 309.5,160.5C 311.969,159.683 314.635,159.183 317.5,159C 313.974,156.974 311.307,154.141 309.5,150.5C 310.171,149.054 311.338,148.388 313,148.5C 318.013,150.832 322.513,153.999 326.5,158C 328.81,158.497 331.143,158.663 333.5,158.5C 333.263,157.209 333.596,156.209 334.5,155.5 Z"/></g>
<g><path style="opacity:1" fill="#f6e4de" d="M 398.5,182.5 C 400.189,184.883 401.022,187.549 401,190.5C 394.557,184.724 387.557,179.724 380,175.5C 379.227,169.445 377.394,163.779 374.5,158.5C 373.311,157.571 371.978,157.238 370.5,157.5C 372.162,148.563 374.995,148.23 379,156.5C 379.503,161.19 380.17,165.857 381,170.5C 387.027,174.348 392.693,178.682 398,183.5C 398.399,183.272 398.565,182.938 398.5,182.5 Z"/></g>
<g><path style="opacity:1" fill="#4c4b5a" d="M 339.5,155.5 C 343.195,159.526 346.862,163.526 350.5,167.5C 350.611,168.117 350.944,168.617 351.5,169C 358.176,169.812 364.676,171.312 371,173.5C 371.5,173.167 372,172.833 372.5,172.5C 372.006,170.974 371.339,169.641 370.5,168.5C 370.443,167.391 370.11,166.391 369.5,165.5C 369.194,162.615 369.527,159.948 370.5,157.5C 371.978,157.238 373.311,157.571 374.5,158.5C 377.394,163.779 379.227,169.445 380,175.5C 387.557,179.724 394.557,184.724 401,190.5C 401.022,187.549 400.189,184.883 398.5,182.5C 397.28,177.455 397.28,172.455 398.5,167.5C 400.39,167.297 401.89,167.963 403,169.5C 404.607,176.9 405.773,184.234 406.5,191.5C 407.145,195.678 409.312,199.011 413,201.5C 413.635,202.966 414.469,204.3 415.5,205.5C 415.167,205.833 414.833,206.167 414.5,206.5C 411.136,203.299 407.636,200.299 404,197.5C 398.512,200.497 392.679,202.497 386.5,203.5C 381.625,202.749 381.292,201.082 385.5,198.5C 389.949,196.439 394.616,194.939 399.5,194C 400.032,191.995 399.032,190.829 396.5,190.5C 392.271,185.797 387.104,182.463 381,180.5C 374.008,182.966 366.842,184.133 359.5,184C 359.043,183.586 358.709,183.086 358.5,182.5C 359.5,181.667 360.5,180.833 361.5,180C 365.29,179.145 368.956,177.978 372.5,176.5C 365.687,174.031 358.687,172.865 351.5,173C 346.576,177.38 341.076,180.88 335,183.5C 332.005,182.482 331.672,180.816 334,178.5C 336.833,176.333 339.667,174.167 342.5,172C 337.03,171.149 331.696,171.649 326.5,173.5C 323.691,177.477 320.691,181.31 317.5,185C 316.552,185.483 315.552,185.649 314.5,185.5C 313.705,181.406 315.038,178.239 318.5,176C 314.348,177.492 310.014,178.825 305.5,180C 302.5,180.667 299.5,180.667 296.5,180C 295.14,178.062 295.473,176.396 297.5,175C 303.415,173.298 309.415,171.964 315.5,171C 314.154,169.331 312.487,168.164 310.5,167.5C 309.315,166.143 308.315,164.643 307.5,163C 307.743,162.098 308.077,161.265 308.5,160.5C 308.833,160.5 309.167,160.5 309.5,160.5C 314.62,161.961 319.287,164.294 323.5,167.5C 323.918,168.222 324.584,168.722 325.5,169C 330.864,169.829 336.198,169.663 341.5,168.5C 339.477,166.147 337.477,163.814 335.5,161.5C 334.659,159.621 334.325,157.621 334.5,155.5C 336.05,154.28 337.716,154.28 339.5,155.5 Z"/></g>
<g><path style="opacity:1" fill="#fce7df" d="M 308.5,160.5 C 308.077,161.265 307.743,162.098 307.5,163C 308.315,164.643 309.315,166.143 310.5,167.5C 306.486,167.666 302.486,167.499 298.5,167C 295.674,164.478 296.007,162.478 299.5,161C 302.482,160.502 305.482,160.335 308.5,160.5 Z"/></g>
<g><path style="opacity:1" fill="#faf7f6" d="M 335.5,161.5 C 337.477,163.814 339.477,166.147 341.5,168.5C 336.198,169.663 330.864,169.829 325.5,169C 324.584,168.722 323.918,168.222 323.5,167.5C 325.93,162.411 329.93,160.411 335.5,161.5 Z"/></g>
<g><path style="opacity:1" fill="#e3d6d4" d="M 336.5,157.5 C 340.601,159.765 343.934,162.932 346.5,167C 341.472,165.81 338.139,162.644 336.5,157.5 Z"/></g>
<g><path style="opacity:1" fill="#f3dfd8" d="M 406.5,191.5 C 405.773,184.234 404.607,176.9 403,169.5C 401.89,167.963 400.39,167.297 398.5,167.5C 399.331,163.49 401.164,162.823 404,165.5C 406.003,174.038 406.836,182.705 406.5,191.5 Z"/></g>
<g><path style="opacity:1" fill="#f8f5f4" d="M 370.5,168.5 C 371.339,169.641 372.006,170.974 372.5,172.5C 372,172.833 371.5,173.167 371,173.5C 364.676,171.312 358.176,169.812 351.5,169C 350.944,168.617 350.611,168.117 350.5,167.5C 351.401,165.611 352.901,164.278 355,163.5C 360.273,164.941 365.44,166.608 370.5,168.5 Z"/></g>
<g><path style="opacity:1" fill="#dcd0cf" d="M 311.5,163.5 C 314.778,164.809 317.778,166.642 320.5,169C 316.591,168.71 313.591,166.876 311.5,163.5 Z"/></g>
<g><path style="opacity:1" fill="#e8d3ce" d="M 371.5,160.5 C 375.466,163.894 376.966,168.227 376,173.5C 373.398,169.526 371.898,165.193 371.5,160.5 Z"/></g>
<g><path style="opacity:1" fill="#ffe4db" d="M 123.5,175.5 C 175.833,175.5 228.167,175.5 280.5,175.5C 280.5,179.5 280.5,183.5 280.5,187.5C 228.167,187.5 175.833,187.5 123.5,187.5C 123.5,183.5 123.5,179.5 123.5,175.5 Z"/></g>
<g><path style="opacity:1" fill="#e2e2e4" d="M 302.5,175.5 C 311.318,175.673 310.985,176.673 301.5,178.5C 300.5,178.333 299.5,178.167 298.5,178C 299.858,177.066 301.192,176.232 302.5,175.5 Z"/></g>
<g><path style="opacity:1" fill="#dfd0cd" d="M 399.5,170.5 C 402.185,175.074 403.352,180.074 403,185.5C 400.134,180.937 398.967,175.937 399.5,170.5 Z"/></g>
<g><path style="opacity:1" fill="#c7c7cc" d="M 340.5,177.5 C 341.574,176.115 342.907,174.949 344.5,174C 345.167,173.333 345.833,173.333 346.5,174C 344.937,175.947 342.937,177.114 340.5,177.5 Z"/></g>
<g><path style="opacity:1" fill="#c5c5ca" d="M 340.5,177.5 C 339.998,179.085 338.998,179.585 337.5,179C 338.244,177.961 339.244,177.461 340.5,177.5 Z"/></g>
<g><path style="opacity:1" fill="#f8e1d8" d="M 396.5,190.5 C 399.032,190.829 400.032,191.995 399.5,194C 394.616,194.939 389.949,196.439 385.5,198.5C 384.432,197.566 383.099,197.232 381.5,197.5C 381.297,195.61 381.963,194.11 383.5,193C 387.688,191.369 392.021,190.536 396.5,190.5 Z"/></g>
<g><path style="opacity:1" fill="#9998a1" d="M 393.5,197.5 C 394.873,197.343 396.207,197.51 397.5,198C 394.976,199.513 392.309,200.18 389.5,200C 390.858,199.066 392.192,198.232 393.5,197.5 Z"/></g>
<g><path style="opacity:1" fill="#444454" d="M 200.5,207.5 C 206.842,207.334 213.175,207.5 219.5,208C 233.478,213.12 238.645,222.953 235,237.5C 232.33,244.835 227.163,249.335 219.5,251C 213.175,251.5 206.842,251.666 200.5,251.5C 200.5,236.833 200.5,222.167 200.5,207.5 Z"/></g>
<g><path style="opacity:1" fill="#474757" d="M 245.5,207.5 C 247.833,207.5 250.167,207.5 252.5,207.5C 252.334,217.506 252.5,227.506 253,237.5C 256.182,244.498 261.349,246.331 268.5,243C 270.049,241.786 271.215,240.286 272,238.5C 272.5,228.172 272.666,217.839 272.5,207.5C 274.833,207.5 277.167,207.5 279.5,207.5C 279.936,219.243 279.436,230.91 278,242.5C 270.92,252.2 262.087,254.034 251.5,248C 249.383,246.269 247.883,244.102 247,241.5C 245.567,230.244 245.067,218.91 245.5,207.5 Z"/></g>
<g><path style="opacity:1" fill="#454554" d="M 287.5,208.5 C 290.355,207.197 293.355,207.197 296.5,208.5C 299.745,215.324 303.245,221.991 307,228.5C 310.707,221.586 314.54,214.752 318.5,208C 321.167,207.333 323.833,207.333 326.5,208C 321.206,217.42 316.04,226.92 311,236.5C 310.501,241.489 310.334,246.489 310.5,251.5C 308.167,251.5 305.833,251.5 303.5,251.5C 303.666,246.489 303.499,241.489 303,236.5C 298.059,226.944 292.892,217.61 287.5,208.5 Z"/></g>
<g><path style="opacity:1" fill="#f7f7f8" d="M 206.5,214.5 C 215.631,212.381 222.797,215.048 228,222.5C 230.967,239.369 223.801,246.703 206.5,244.5C 206.5,234.5 206.5,224.5 206.5,214.5 Z"/></g>
<g><path style="opacity:1" fill="#404150" d="M 118.5,226.5 C 104.833,226.5 91.1667,226.5 77.5,226.5C 77.5,255.833 77.5,285.167 77.5,314.5C 192.335,314.833 307.001,314.5 421.5,313.5C 421.5,284.5 421.5,255.5 421.5,226.5C 419.167,226.5 416.833,226.5 414.5,226.5C 414.5,225.5 414.5,224.5 414.5,223.5C 417.833,223.5 421.167,223.5 424.5,223.5C 424.5,254.833 424.5,286.167 424.5,317.5C 307.833,317.5 191.167,317.5 74.5,317.5C 74.5,286.167 74.5,254.833 74.5,223.5C 89.1667,223.5 103.833,223.5 118.5,223.5C 118.5,224.5 118.5,225.5 118.5,226.5 Z"/></g>
<g><path style="opacity:1" fill="#dad7d9" d="M 118.5,226.5 C 105.344,227.496 92.0105,227.829 78.5,227.5C 78.5,256.167 78.5,284.833 78.5,313.5C 93.5,313.5 108.5,313.5 123.5,313.5C 175.5,313.5 227.5,313.5 279.5,313.5C 326.833,313.5 374.167,313.5 421.5,313.5C 307.001,314.5 192.335,314.833 77.5,314.5C 77.5,285.167 77.5,255.833 77.5,226.5C 91.1667,226.5 104.833,226.5 118.5,226.5 Z"/></g>
<g><path style="opacity:1" fill="#fce2d8" d="M 279.5,313.5 C 227.5,313.5 175.5,313.5 123.5,313.5C 123.5,295.5 123.5,277.5 123.5,259.5C 175.5,259.5 227.5,259.5 279.5,259.5C 279.5,277.5 279.5,295.5 279.5,313.5 Z"/></g>
<g><path style="opacity:1" fill="#4b4958" d="M 207.5,292.5 C 207.5,288.5 207.5,284.5 207.5,280.5C 202.5,280.5 197.5,280.5 192.5,280.5C 192.5,284.5 192.5,288.5 192.5,292.5C 191.269,276.809 191.269,272.476 192.5,279.5C 197.167,279.5 201.833,279.5 206.5,279.5C 206.18,276.102 206.513,272.768 207.5,269.5C 208.82,277.323 208.82,284.99 207.5,292.5 Z"/></g>
<g><path style="opacity:1" fill="#867b83" d="M 272.5,269.5 C 273.82,277.01 273.82,284.677 272.5,292.5C 271.893,292.376 271.56,292.043 271.5,291.5C 272.492,284.352 272.825,277.019 272.5,269.5 Z"/></g>
<g><path style="opacity:1" fill="#605c67" d="M 131.5,269.5 C 135.884,269.174 140.217,269.508 144.5,270.5C 140.893,271.489 137.226,271.823 133.5,271.5C 133.5,274.5 133.5,277.5 133.5,280.5C 146.833,280.833 146.833,281.167 133.5,281.5C 133.823,285.226 133.489,288.893 132.5,292.5C 131.503,284.862 131.169,277.196 131.5,269.5 Z"/></g>
<g><path style="opacity:1" fill="#5f5b67" d="M 231.5,269.5 C 243.865,269.018 248.698,274.685 246,286.5C 240.871,292.854 234.704,294.02 227.5,290C 221.286,281.652 222.62,274.819 231.5,269.5 Z"/></g>
<g><path style="opacity:1" fill="#fce1d8" d="M 231.5,271.5 C 241.492,270.327 245.992,274.66 245,284.5C 241.723,290.109 236.89,291.942 230.5,290C 223.594,283.347 223.927,277.18 231.5,271.5 Z"/></g>
<g><path style="opacity:1" fill="#968a8e" d="M 256.5,274.5 C 255.833,280.5 255.167,286.5 254.5,292.5C 254.17,286.132 254.504,279.798 255.5,273.5C 256.107,273.624 256.44,273.957 256.5,274.5 Z"/></g>
<g><path style="opacity:1" fill="#55525f" d="M 272.5,269.5 C 272.825,277.019 272.492,284.352 271.5,291.5C 266.265,286.021 261.265,280.354 256.5,274.5C 256.44,273.957 256.107,273.624 255.5,273.5C 254.504,279.798 254.17,286.132 254.5,292.5C 253.344,285.011 253.178,277.345 254,269.5C 259.667,275.833 265.333,282.167 271,288.5C 271.172,281.987 271.672,275.653 272.5,269.5 Z"/></g>
<g><path style="opacity:1" fill="#a19396" d="M 207.5,292.5 C 206.518,289.038 206.185,285.371 206.5,281.5C 202.167,281.5 197.833,281.5 193.5,281.5C 193.815,285.371 193.482,289.038 192.5,292.5C 192.5,288.5 192.5,284.5 192.5,280.5C 197.5,280.5 202.5,280.5 207.5,280.5C 207.5,284.5 207.5,288.5 207.5,292.5 Z"/></g>
<g><path style="opacity:1" fill="#54515e" d="M 155.5,269.5 C 157.335,270.122 158.502,271.456 159,273.5C 161.224,279.615 163.724,285.615 166.5,291.5C 166.167,291.833 165.833,292.167 165.5,292.5C 164.074,290.063 162.741,287.563 161.5,285C 158.167,284.333 154.833,284.333 151.5,285C 150.601,287.192 149.601,289.358 148.5,291.5C 147.998,292.521 147.332,292.688 146.5,292C 149.925,284.652 152.925,277.152 155.5,269.5 Z"/></g>
<g><path style="opacity:1" fill="#f4dad2" d="M 155.5,273.5 C 156.376,273.369 157.043,273.702 157.5,274.5C 158.801,277.427 159.801,280.427 160.5,283.5C 157.753,283.813 155.086,283.48 152.5,282.5C 153.801,279.573 154.801,276.573 155.5,273.5 Z"/></g>
<g><path style="opacity:1" fill="#67616c" d="M 174.5,269.5 C 178.064,269.151 181.398,269.817 184.5,271.5C 181.335,271.551 178.002,271.718 174.5,272C 173.065,274.267 173.398,276.267 175.5,278C 179.35,279.328 182.517,281.495 185,284.5C 185.682,288.18 184.182,290.68 180.5,292C 176.793,292.996 173.459,292.33 170.5,290C 174.092,290.502 177.759,290.502 181.5,290C 184.1,287.541 184.1,285.041 181.5,282.5C 178.056,281.301 174.889,279.634 172,277.5C 171.018,274.225 171.851,271.559 174.5,269.5 Z"/></g>
<g><path style="opacity:1" fill="#fce2d9" d="M 74.5,317.5 C 191.167,317.5 307.833,317.5 424.5,317.5C 376.336,318.499 328.003,318.832 279.5,318.5C 279.5,330.5 279.5,342.5 279.5,354.5C 227.5,354.5 175.5,354.5 123.5,354.5C 123.5,342.5 123.5,330.5 123.5,318.5C 106.991,318.83 90.6581,318.496 74.5,317.5 Z"/></g>
<g><path style="opacity:1" fill="#9b9ba4" d="M 298.5,326.5 C 299.748,327.334 300.415,328.667 300.5,330.5C 300.167,331.833 299.833,333.167 299.5,334.5C 298.52,331.914 298.187,329.247 298.5,326.5 Z"/></g>
<g><path style="opacity:1" fill="#646471" d="M 302.5,326.5 C 304.463,327.96 306.296,329.627 308,331.5C 308.333,329.833 308.667,328.167 309,326.5C 310.836,335.465 309.17,336.465 304,329.5C 303.667,331.167 303.333,332.833 303,334.5C 302.503,331.854 302.336,329.187 302.5,326.5 Z"/></g>
<g><path style="opacity:1" fill="#a7a7ae" d="M 312.5,328.5 C 313.751,326.439 315.418,326.106 317.5,327.5C 315.955,328.452 314.288,328.785 312.5,328.5 Z"/></g>
<g><path style="opacity:1" fill="#f2f2f3" d="M 339.5,327.5 C 339.5,329.5 339.5,331.5 339.5,333.5C 336.756,332.928 335.923,331.262 337,328.5C 337.671,327.748 338.504,327.414 339.5,327.5 Z"/></g>
<g><path style="opacity:1" fill="#91919a" d="M 342.5,326.5 C 343.748,327.334 344.415,328.667 344.5,330.5C 344.167,331.833 343.833,333.167 343.5,334.5C 342.52,331.914 342.187,329.247 342.5,326.5 Z"/></g>
<g><path style="opacity:1" fill="#6b6b78" d="M 362.5,331.5 C 362.34,335.236 361.507,335.236 360,331.5C 359.085,332.328 358.419,333.328 358,334.5C 356.148,331.806 355.315,329.139 355.5,326.5C 356.427,328.113 357.261,329.779 358,331.5C 359.646,329.945 359.979,328.279 359,326.5C 359.902,328.431 361.069,330.097 362.5,331.5 Z"/></g>
<g><path style="opacity:1" fill="#7c7c87" d="M 362.5,331.5 C 362.491,329.692 362.991,328.025 364,326.5C 364.599,328.535 364.099,330.201 362.5,331.5 Z"/></g>
<g><path style="opacity:1" fill="#464655" d="M 369.5,327.5 C 370.946,326.387 372.613,326.22 374.5,327C 372.862,329.133 372.029,331.633 372,334.5C 372.03,331.639 371.197,329.305 369.5,327.5 Z"/></g>
<g><path style="opacity:1" fill="#5a5a67" d="M 312.5,328.5 C 312.366,330.292 312.699,331.958 313.5,333.5C 312.351,333.209 311.684,332.376 311.5,331C 311.528,329.93 311.861,329.097 312.5,328.5 Z"/></g>
<g><path style="opacity:1" fill="#787884" d="M 339.5,327.5 C 338.504,327.414 337.671,327.748 337,328.5C 335.923,331.262 336.756,332.928 339.5,333.5C 339.265,334.097 338.765,334.43 338,334.5C 336.233,333.66 334.899,332.327 334,330.5C 333.617,331.056 333.117,331.389 332.5,331.5C 332.773,329.549 332.107,328.049 330.5,327C 332.367,326.289 333.867,326.789 335,328.5C 336.347,326.534 337.847,326.201 339.5,327.5 Z"/></g>
<g><path style="opacity:1" fill="#898993" d="M 339.5,327.5 C 342.167,329.5 342.167,331.5 339.5,333.5C 339.5,331.5 339.5,329.5 339.5,327.5 Z"/></g>
<g><path style="opacity:1" fill="#494958" d="M 376.5,326.5 C 377.404,327.209 377.737,328.209 377.5,329.5C 378.833,329.5 380.167,329.5 381.5,329.5C 382.773,331.084 382.773,331.418 381.5,330.5C 380.167,330.5 378.833,330.5 377.5,330.5C 377.657,331.873 377.49,333.207 377,334.5C 376.503,331.854 376.336,329.187 376.5,326.5 Z"/></g>
<g><path style="opacity:1" fill="#7a7a85" d="M 400.5,327.5 C 403.624,328.766 404.124,330.766 402,333.5C 395.964,335.406 393.964,333.406 396,327.5C 397.616,326.199 399.116,326.199 400.5,327.5 Z"/></g>
<g><path style="opacity:1" fill="#f3f3f4" d="M 400.5,327.5 C 402.463,331.284 401.463,333.118 397.5,333C 395.65,329.534 396.65,327.701 400.5,327.5 Z"/></g>
<g><path style="opacity:1" fill="#6d6d79" d="M 346.5,326.5 C 349.797,326.329 350.131,326.995 347.5,328.5C 351.127,330.464 351.293,332.464 348,334.5C 347.5,334.333 347,334.167 346.5,334C 349.612,333.149 349.946,331.983 347.5,330.5C 346.571,329.311 346.238,327.978 346.5,326.5 Z"/></g>
<g><path style="opacity:1" fill="#60606d" d="M 387.5,327.5 C 387.56,326.957 387.893,326.624 388.5,326.5C 389.584,327.665 390.417,328.998 391,330.5C 391.5,329.5 392,328.5 392.5,327.5C 393.002,326.479 393.668,326.312 394.5,327C 392.932,329.304 391.765,331.804 391,334.5C 390.33,331.826 389.163,329.493 387.5,327.5 Z"/></g>
<g><path style="opacity:1" fill="#797884" d="M 293.5,326.5 C 296.797,326.329 297.131,326.995 294.5,328.5C 298.885,332.722 298.218,334.388 292.5,333.5C 293.397,333.331 294.397,332.998 295.5,332.5C 294.5,331.167 293.5,329.833 292.5,328.5C 292.863,327.817 293.196,327.15 293.5,326.5 Z"/></g>
<g><path style="opacity:1" fill="#83828d" d="M 313.5,333.5 C 315.109,333.094 316.443,333.094 317.5,333.5C 316.042,334.782 314.708,334.782 313.5,333.5 Z"/></g>
<g><path style="opacity:1" fill="#4b4b5b" d="M 319.5,326.5 C 325.324,326.347 325.657,327.013 320.5,328.5C 324.311,329.738 324.311,330.404 320.5,330.5C 320.5,331.5 320.5,332.5 320.5,333.5C 325.5,334.003 325.167,334.336 319.5,334.5C 319.5,331.833 319.5,329.167 319.5,326.5 Z"/></g>
<g><path style="opacity:1" fill="#5c5c69" d="M 332.5,331.5 C 332.577,332.75 333.244,333.583 334.5,334C 329.255,335.07 328.588,334.236 332.5,331.5 Z"/></g>
<g><path style="opacity:1" fill="#7c7c87" d="M 404.5,326.5 C 406.062,328.372 407.062,330.705 407.5,333.5C 408.086,333.291 408.586,332.957 409,332.5C 409.333,330.5 409.667,328.5 410,326.5C 410.769,329.099 410.602,331.599 409.5,334C 408.056,334.781 406.723,334.614 405.5,333.5C 404.626,331.253 404.292,328.92 404.5,326.5 Z"/></g>
</svg>
