<?xml version="1.0" encoding="UTF-8"?>
<!DOCTYPE svg PUBLIC "-//W3C//DTD SVG 1.1//EN" "http://www.w3.org/Graphics/SVG/1.1/DTD/svg11.dtd">
<svg xmlns="http://www.w3.org/2000/svg" version="1.1" width="1920px" height="1080px" style="shape-rendering:geometricPrecision; text-rendering:geometricPrecision; image-rendering:optimizeQuality; fill-rule:evenodd; clip-rule:evenodd" xmlns:xlink="http://www.w3.org/1999/xlink">
<g><path style="opacity:1" fill="#fefefe" d="M -0.5,-0.5 C 639.5,-0.5 1279.5,-0.5 1919.5,-0.5C 1919.5,359.5 1919.5,719.5 1919.5,1079.5C 1279.5,1079.5 639.5,1079.5 -0.5,1079.5C -0.5,719.5 -0.5,359.5 -0.5,-0.5 Z"/></g>
<g><path style="opacity:1" fill="#fee4da" d="M 1218.5,357.5 C 1219.73,359.297 1220.4,361.297 1220.5,363.5C 1209.76,359.633 1198.76,356.633 1187.5,354.5C 1182.6,355.104 1178.94,357.437 1176.5,361.5C 1172.2,356.191 1167.86,350.858 1163.5,345.5C 1159.19,340.347 1155.02,335.014 1151,329.5C 1150,326.833 1149,324.167 1148,321.5C 1147.66,313.086 1151.16,310.919 1158.5,315C 1168.17,324.842 1176.5,335.675 1183.5,347.5C 1195.4,350.079 1207.07,353.412 1218.5,357.5 Z"/></g>
<g><path style="opacity:1" fill="#fce2d9" d="M 1142.5,343.5 C 1143.49,345.426 1144.49,347.426 1145.5,349.5C 1139.24,348.872 1133.24,349.705 1127.5,352C 1124.62,355.376 1121.95,358.876 1119.5,362.5C 1113.39,358.938 1107.39,355.104 1101.5,351C 1096.8,348.32 1091.8,347.32 1086.5,348C 1085.59,349.699 1085.26,351.533 1085.5,353.5C 1079.9,352.726 1074.23,352.893 1068.5,354C 1068.04,354.414 1067.71,354.914 1067.5,355.5C 1069.88,357.042 1072.55,357.709 1075.5,357.5C 1079.12,357.602 1082.45,356.935 1085.5,355.5C 1087.14,357.475 1088.8,359.475 1090.5,361.5C 1085.15,361.568 1079.82,361.901 1074.5,362.5C 1069.1,363.033 1064.6,361.366 1061,357.5C 1060.12,354.083 1061.29,351.583 1064.5,350C 1077.99,347.015 1091.65,345.515 1105.5,345.5C 1105.72,344.325 1105.39,343.325 1104.5,342.5C 1099.19,339.022 1094.69,334.688 1091,329.5C 1090.33,327.167 1090.33,324.833 1091,322.5C 1091.96,321.106 1093.29,320.439 1095,320.5C 1099.6,321.382 1103.76,323.215 1107.5,326C 1114.83,332 1122.17,338 1129.5,344C 1134.02,344.814 1138.35,344.647 1142.5,343.5 Z"/></g>
<g><path style="opacity:1" fill="#fffdfd" d="M 1154.5,319.5 C 1162.47,325.895 1168.13,333.561 1171.5,342.5C 1162.32,337.337 1156.66,329.67 1154.5,319.5 Z"/></g>
<g><path style="opacity:1" fill="#fde3da" d="M 1282.5,397.5 C 1284.43,401.108 1286.1,404.942 1287.5,409C 1287.15,410.257 1286.48,410.591 1285.5,410C 1282.67,408.334 1280.34,406.168 1278.5,403.5C 1269.19,393.022 1258.52,384.189 1246.5,377C 1244.61,376.22 1242.95,376.387 1241.5,377.5C 1239.52,370.254 1237.52,362.921 1235.5,355.5C 1236.95,346.995 1234.78,339.328 1229,332.5C 1228.5,335.482 1228.34,338.482 1228.5,341.5C 1226.86,339.919 1224.86,339.253 1222.5,339.5C 1222.08,335.288 1222.74,331.288 1224.5,327.5C 1229.31,324.365 1233.14,325.365 1236,330.5C 1237.64,334.392 1238.97,338.392 1240,342.5C 1241.08,351.22 1242.41,359.887 1244,368.5C 1257.58,377.295 1270.24,387.295 1282,398.5C 1282.4,398.272 1282.57,397.938 1282.5,397.5 Z"/></g>
<g><path style="opacity:1" fill="#fffcfb" d="M 1097.5,328.5 C 1097.56,327.957 1097.89,327.624 1098.5,327.5C 1105.54,331.375 1111.88,336.208 1117.5,342C 1109.4,339.773 1102.74,335.273 1097.5,328.5 Z"/></g>
<g><path style="opacity:1" fill="#faf8f9" d="M 1235.5,355.5 C 1234.22,350.271 1231.89,345.604 1228.5,341.5C 1228.34,338.482 1228.5,335.482 1229,332.5C 1234.78,339.328 1236.95,346.995 1235.5,355.5 Z"/></g>
<g><path style="opacity:1" fill="#464656" d="M 1163.5,345.5 C 1167.86,350.858 1172.2,356.191 1176.5,361.5C 1177.63,363.129 1178.96,364.629 1180.5,366C 1190.12,367.825 1199.79,369.325 1209.5,370.5C 1214.46,372.43 1219.63,374.097 1225,375.5C 1225.5,375.167 1226,374.833 1226.5,374.5C 1225.5,372.187 1224.17,370.187 1222.5,368.5C 1222.11,366.716 1221.44,365.05 1220.5,363.5C 1220.4,361.297 1219.73,359.297 1218.5,357.5C 1217.75,353.181 1217.58,348.848 1218,344.5C 1219,342.34 1220.5,340.673 1222.5,339.5C 1224.86,339.253 1226.86,339.919 1228.5,341.5C 1231.89,345.604 1234.22,350.271 1235.5,355.5C 1237.52,362.921 1239.52,370.254 1241.5,377.5C 1241.29,379.144 1241.62,380.644 1242.5,382C 1255.05,388.434 1267.05,395.601 1278.5,403.5C 1280.34,406.168 1282.67,408.334 1285.5,410C 1286.48,410.591 1287.15,410.257 1287.5,409C 1286.1,404.942 1284.43,401.108 1282.5,397.5C 1280.21,390.347 1278.88,383.014 1278.5,375.5C 1278.06,370.774 1279.06,366.441 1281.5,362.5C 1284.97,361.875 1287.8,362.875 1290,365.5C 1293.34,375.413 1295.84,385.413 1297.5,395.5C 1297.27,402.876 1297.61,410.209 1298.5,417.5C 1298.37,419.655 1298.87,421.655 1300,423.5C 1303.39,428.055 1307.22,432.055 1311.5,435.5C 1314.35,438.512 1317.01,441.679 1319.5,445C 1318.9,446.301 1317.9,447.135 1316.5,447.5C 1309.35,440.848 1302.35,434.015 1295.5,427C 1294.17,426.333 1292.83,426.333 1291.5,427C 1278.55,436.433 1264.22,440.1 1248.5,438C 1246.84,432.78 1248.84,429.613 1254.5,428.5C 1264.11,424.296 1274.11,421.296 1284.5,419.5C 1283.61,415.872 1281.27,412.872 1277.5,410.5C 1267.21,401.892 1255.88,394.892 1243.5,389.5C 1228.83,396.023 1213.49,399.023 1197.5,398.5C 1195.88,397.131 1195.38,395.464 1196,393.5C 1204.03,388.375 1212.87,385.209 1222.5,384C 1223.67,383.581 1224.67,382.915 1225.5,382C 1225.27,381.601 1224.94,381.435 1224.5,381.5C 1216.12,378.569 1207.45,376.236 1198.5,374.5C 1192.93,372.936 1187.26,372.436 1181.5,373C 1172.05,381.562 1161.71,388.895 1150.5,395C 1140.66,398.493 1137.82,395.659 1142,386.5C 1148.08,381.252 1154.58,376.585 1161.5,372.5C 1150.85,371.743 1140.18,371.91 1129.5,373C 1127.41,373.792 1125.58,374.959 1124,376.5C 1120,382.5 1116,388.5 1112,394.5C 1109.01,398.415 1105.18,400.248 1100.5,400C 1099.11,399.044 1098.44,397.711 1098.5,396C 1100.65,389.929 1103.49,384.429 1107,379.5C 1097.02,384.717 1086.52,388.551 1075.5,391C 1069.98,392.101 1064.82,391.267 1060,388.5C 1057.47,383.383 1058.97,379.883 1064.5,378C 1076.94,374.427 1089.6,372.261 1102.5,371.5C 1102.72,370.325 1102.39,369.325 1101.5,368.5C 1097.64,366.406 1093.97,364.072 1090.5,361.5C 1088.8,359.475 1087.14,357.475 1085.5,355.5C 1085.5,354.833 1085.5,354.167 1085.5,353.5C 1085.26,351.533 1085.59,349.699 1086.5,348C 1091.8,347.32 1096.8,348.32 1101.5,351C 1107.39,355.104 1113.39,358.938 1119.5,362.5C 1121.09,363.983 1122.76,365.483 1124.5,367C 1130.51,367.409 1136.51,367.242 1142.5,366.5C 1148.18,366.037 1153.85,365.37 1159.5,364.5C 1157.73,361.792 1155.4,359.792 1152.5,358.5C 1149.78,355.786 1147.45,352.786 1145.5,349.5C 1144.49,347.426 1143.49,345.426 1142.5,343.5C 1142.34,340.813 1142.5,338.146 1143,335.5C 1144.31,334.427 1145.81,333.76 1147.5,333.5C 1153.11,337.106 1158.44,341.106 1163.5,345.5 Z"/></g>
<g><path style="opacity:1" fill="#f7e6e0" d="M 1148.5,340.5 C 1156.67,346.499 1163.67,353.666 1169.5,362C 1166.23,361.537 1163.23,360.204 1160.5,358C 1154.36,353.538 1150.36,347.704 1148.5,340.5 Z"/></g>
<g><path style="opacity:1" fill="#fdfcfc" d="M 1145.5,349.5 C 1147.45,352.786 1149.78,355.786 1152.5,358.5C 1148.4,360.216 1145.06,362.883 1142.5,366.5C 1136.51,367.242 1130.51,367.409 1124.5,367C 1122.76,365.483 1121.09,363.983 1119.5,362.5C 1121.95,358.876 1124.62,355.376 1127.5,352C 1133.24,349.705 1139.24,348.872 1145.5,349.5 Z"/></g>
<g><path style="opacity:1" fill="#f9f7f6" d="M 1223.5,348.5 C 1226.14,352.441 1227.64,356.774 1228,361.5C 1227.33,360.748 1226.5,360.414 1225.5,360.5C 1223.86,356.705 1223.19,352.705 1223.5,348.5 Z"/></g>
<g><path style="opacity:1" fill="#f1d8d0" d="M 1225.5,360.5 C 1226.5,360.414 1227.33,360.748 1228,361.5C 1227.64,356.774 1226.14,352.441 1223.5,348.5C 1223.37,347.761 1223.54,347.094 1224,346.5C 1231.21,354.467 1234.21,363.801 1233,374.5C 1229.71,370.256 1227.21,365.59 1225.5,360.5 Z"/></g>
<g><path style="opacity:1" fill="#fefcfb" d="M 1085.5,353.5 C 1085.5,354.167 1085.5,354.833 1085.5,355.5C 1082.45,356.935 1079.12,357.602 1075.5,357.5C 1072.55,357.709 1069.88,357.042 1067.5,355.5C 1067.71,354.914 1068.04,354.414 1068.5,354C 1074.23,352.893 1079.9,352.726 1085.5,353.5 Z"/></g>
<g><path style="opacity:1" fill="#fae2d9" d="M 1297.5,395.5 C 1295.84,385.413 1293.34,375.413 1290,365.5C 1287.8,362.875 1284.97,361.875 1281.5,362.5C 1281.53,356.298 1284.53,353.465 1290.5,354C 1293.93,358.547 1295.77,363.714 1296,369.5C 1296.93,378.145 1297.43,386.811 1297.5,395.5 Z"/></g>
<g><path style="opacity:1" fill="#fcfcfc" d="M 1220.5,363.5 C 1221.44,365.05 1222.11,366.716 1222.5,368.5C 1218.41,369.895 1214.08,370.562 1209.5,370.5C 1199.79,369.325 1190.12,367.825 1180.5,366C 1178.96,364.629 1177.63,363.129 1176.5,361.5C 1178.94,357.437 1182.6,355.104 1187.5,354.5C 1198.76,356.633 1209.76,359.633 1220.5,363.5 Z"/></g>
<g><path style="opacity:1" fill="#eee1de" d="M 1092.5,354.5 C 1092.56,353.957 1092.89,353.624 1093.5,353.5C 1100.67,356.916 1107.34,361.082 1113.5,366C 1104.78,365.307 1097.78,361.474 1092.5,354.5 Z"/></g>
<g><path style="opacity:1" fill="#f9e3db" d="M 1152.5,358.5 C 1155.4,359.792 1157.73,361.792 1159.5,364.5C 1153.85,365.37 1148.18,366.037 1142.5,366.5C 1145.06,362.883 1148.4,360.216 1152.5,358.5 Z"/></g>
<g><path style="opacity:1" fill="#eed7d0" d="M 1222.5,368.5 C 1224.17,370.187 1225.5,372.187 1226.5,374.5C 1226,374.833 1225.5,375.167 1225,375.5C 1219.63,374.097 1214.46,372.43 1209.5,370.5C 1214.08,370.562 1218.41,369.895 1222.5,368.5 Z"/></g>
<g><path style="opacity:1" fill="#eedbd5" d="M 1284.5,369.5 C 1287.51,374.312 1289.34,379.646 1290,385.5C 1291.33,391.452 1291.66,397.452 1291,403.5C 1285.33,392.71 1283.16,381.376 1284.5,369.5 Z"/></g>
<g><path style="opacity:1" fill="#fbe1d8" d="M 1198.5,374.5 C 1207.45,376.236 1216.12,378.569 1224.5,381.5C 1216.21,382.606 1207.88,382.773 1199.5,382C 1195.88,380.006 1195.55,377.506 1198.5,374.5 Z"/></g>
<g><path style="opacity:1" fill="#f7f6f7" d="M 1278.5,403.5 C 1267.05,395.601 1255.05,388.434 1242.5,382C 1241.62,380.644 1241.29,379.144 1241.5,377.5C 1242.95,376.387 1244.61,376.22 1246.5,377C 1258.52,384.189 1269.19,393.022 1278.5,403.5 Z"/></g>
<g><path style="opacity:1" fill="#e5e5e7" d="M 1168.5,374.5 C 1169.04,374.56 1169.38,374.893 1169.5,375.5C 1163.15,381.831 1155.82,386.331 1147.5,389C 1154.22,383.651 1161.22,378.817 1168.5,374.5 Z"/></g>
<g><path style="opacity:1" fill="#ffe4da" d="M 688.5,379.5 C 800.833,379.5 913.167,379.5 1025.5,379.5C 1025.5,387.833 1025.5,396.167 1025.5,404.5C 913.167,404.5 800.833,404.5 688.5,404.5C 688.5,396.167 688.5,387.833 688.5,379.5 Z"/></g>
<g><path style="opacity:1" fill="#f2f2f3" d="M 1084.5,378.5 C 1090.93,380.084 1090.93,381.584 1084.5,383C 1078.29,385.338 1071.95,385.838 1065.5,384.5C 1066.09,383.201 1067.09,382.368 1068.5,382C 1074.03,381.14 1079.37,379.973 1084.5,378.5 Z"/></g>
<g><path style="opacity:1" fill="#c6c6cb" d="M 1218.5,389.5 C 1220.53,389.338 1222.53,389.505 1224.5,390C 1221.26,391.819 1217.93,392.319 1214.5,391.5C 1215.95,390.828 1217.28,390.161 1218.5,389.5 Z"/></g>
<g><path style="opacity:1" fill="#fce4db" d="M 1277.5,410.5 C 1281.27,412.872 1283.61,415.872 1284.5,419.5C 1274.11,421.296 1264.11,424.296 1254.5,428.5C 1251.3,427.909 1248.13,426.909 1245,425.5C 1244.1,422.975 1244.6,420.808 1246.5,419C 1249.67,417.275 1253.01,415.942 1256.5,415C 1263.73,413.923 1270.73,412.423 1277.5,410.5 Z"/></g>
<g><path style="opacity:1" fill="#f4dcd4" d="M 1298.5,417.5 C 1302.43,422.602 1306.59,427.602 1311,432.5C 1311.48,433.448 1311.65,434.448 1311.5,435.5C 1307.22,432.055 1303.39,428.055 1300,423.5C 1298.87,421.655 1298.37,419.655 1298.5,417.5 Z"/></g>
<g><path style="opacity:1" fill="#e3e3e5" d="M 1277.5,426.5 C 1278.55,426.351 1279.55,426.517 1280.5,427C 1274.86,430.241 1268.86,431.908 1262.5,432C 1267.43,429.637 1272.43,427.804 1277.5,426.5 Z"/></g>
<g><path style="opacity:1" fill="#414151" d="M 852.5,449.5 C 866.537,449.158 880.537,449.658 894.5,451C 917.915,457.59 929.915,473.09 930.5,497.5C 929.969,520.537 918.636,535.37 896.5,542C 881.87,543.351 867.203,543.851 852.5,543.5C 852.5,512.167 852.5,480.833 852.5,449.5 Z"/></g>
<g><path style="opacity:1" fill="#444454" d="M 951.5,449.5 C 956.5,449.5 961.5,449.5 966.5,449.5C 966.333,470.836 966.5,492.169 967,513.5C 973.955,529.71 985.455,533.877 1001.5,526C 1005.19,523.313 1007.69,519.813 1009,515.5C 1009.5,493.503 1009.67,471.503 1009.5,449.5C 1014.5,449.5 1019.5,449.5 1024.5,449.5C 1024.67,472.502 1024.5,495.502 1024,518.5C 1017.95,536.134 1005.45,544.801 986.5,544.5C 967.85,543.351 956.35,533.685 952,515.5C 951.5,493.503 951.333,471.503 951.5,449.5 Z"/></g>
<g><path style="opacity:1" fill="#424252" d="M 1041.5,450.5 C 1047.68,449.183 1054.01,449.183 1060.5,450.5C 1068.33,465.5 1076.17,480.5 1084,495.5C 1092.34,480.815 1100.18,465.815 1107.5,450.5C 1113.81,449.336 1120.14,449.169 1126.5,450C 1115.13,470.581 1103.63,491.081 1092,511.5C 1091.5,522.161 1091.33,532.828 1091.5,543.5C 1086.5,543.5 1081.5,543.5 1076.5,543.5C 1076.67,533.161 1076.5,522.828 1076,512.5C 1064.73,491.61 1053.23,470.943 1041.5,450.5 Z"/></g>
<g><path style="opacity:1" fill="#d6d6d9" d="M 887.5,464.5 C 881.167,464.5 874.833,464.5 868.5,464.5C 868.5,485.833 868.5,507.167 868.5,528.5C 874.167,528.5 879.833,528.5 885.5,528.5C 879.69,529.49 873.69,529.823 867.5,529.5C 867.5,507.5 867.5,485.5 867.5,463.5C 874.354,463.176 881.021,463.509 887.5,464.5 Z"/></g>
<g><path style="opacity:1" fill="#fdfdfd" d="M 887.5,464.5 C 905.444,467.28 914.777,477.78 915.5,496C 914.993,515.672 904.993,526.505 885.5,528.5C 879.833,528.5 874.167,528.5 868.5,528.5C 868.5,507.167 868.5,485.833 868.5,464.5C 874.833,464.5 881.167,464.5 887.5,464.5 Z"/></g>
<g><path style="opacity:1" fill="#8f8f98" d="M 580.5,483.5 C 612.662,482.502 644.996,482.168 677.5,482.5C 677.5,485.167 677.5,487.833 677.5,490.5C 647.833,490.5 618.167,490.5 588.5,490.5C 617.662,489.502 646.995,489.169 676.5,489.5C 676.5,487.5 676.5,485.5 676.5,483.5C 644.833,483.5 613.167,483.5 581.5,483.5C 581.167,483.5 580.833,483.5 580.5,483.5 Z"/></g>
<g><path style="opacity:1" fill="#434353" d="M 581.5,483.5 C 613.167,483.5 644.833,483.5 676.5,483.5C 676.5,485.5 676.5,487.5 676.5,489.5C 646.995,489.169 617.662,489.502 588.5,490.5C 588.5,553.5 588.5,616.5 588.5,679.5C 621.833,679.5 655.167,679.5 688.5,679.5C 800.5,679.5 912.5,679.5 1024.5,679.5C 1024.83,679.5 1025.17,679.5 1025.5,679.5C 1127.17,679.5 1228.83,679.5 1330.5,679.5C 1330.5,616.5 1330.5,553.5 1330.5,490.5C 1325.5,490.5 1320.5,490.5 1315.5,490.5C 1315.5,488.167 1315.5,485.833 1315.5,483.5C 1322.83,483.5 1330.17,483.5 1337.5,483.5C 1337.5,551.167 1337.5,618.833 1337.5,686.5C 1085.5,686.5 833.5,686.5 581.5,686.5C 581.5,618.833 581.5,551.167 581.5,483.5 Z"/></g>
<g><path style="opacity:1" fill="#777782" d="M 1315.5,483.5 C 1322.98,482.508 1330.65,482.175 1338.5,482.5C 1338.5,550.5 1338.5,618.5 1338.5,686.5C 1338.17,686.5 1337.83,686.5 1337.5,686.5C 1337.5,618.833 1337.5,551.167 1337.5,483.5C 1330.17,483.5 1322.83,483.5 1315.5,483.5 Z"/></g>
<g><path style="opacity:1" fill="#ffece5" d="M 688.5,561.5 C 800.665,560.5 912.999,560.167 1025.5,560.5C 1025.5,600.167 1025.5,639.833 1025.5,679.5C 1025.17,679.5 1024.83,679.5 1024.5,679.5C 1024.5,640.167 1024.5,600.833 1024.5,561.5C 912.5,561.5 800.5,561.5 688.5,561.5 Z"/></g>
<g><path style="opacity:1" fill="#fee3d9" d="M 688.5,561.5 C 800.5,561.5 912.5,561.5 1024.5,561.5C 1024.5,600.833 1024.5,640.167 1024.5,679.5C 912.5,679.5 800.5,679.5 688.5,679.5C 688.5,640.167 688.5,600.833 688.5,561.5 Z"/></g>
<g><path style="opacity:1" fill="#4a4958" d="M 758.5,578.5 C 766.105,595.795 773.438,613.295 780.5,631C 779.056,631.781 777.723,631.614 776.5,630.5C 773.924,625.354 771.924,620.021 770.5,614.5C 762.826,614.334 755.159,614.5 747.5,615C 745.002,620.327 743.002,625.827 741.5,631.5C 740.022,631.762 738.689,631.429 737.5,630.5C 744.515,613.141 751.515,595.808 758.5,578.5 Z"/></g>
<g><path style="opacity:1" fill="#414151" d="M 705.5,580.5 C 714.833,580.5 724.167,580.5 733.5,580.5C 733.5,581.5 733.5,582.5 733.5,583.5C 725.167,583.5 716.833,583.5 708.5,583.5C 708.5,590.833 708.5,598.167 708.5,605.5C 715.833,605.5 723.167,605.5 730.5,605.5C 730.5,606.5 730.5,607.5 730.5,608.5C 723.167,608.5 715.833,608.5 708.5,608.5C 708.5,616.167 708.5,623.833 708.5,631.5C 707.5,631.5 706.5,631.5 705.5,631.5C 705.5,614.5 705.5,597.5 705.5,580.5 Z"/></g>
<g><path style="opacity:1" fill="#4e4c5b" d="M 836.5,580.5 C 836.5,588.5 836.5,596.5 836.5,604.5C 847.014,604.828 857.347,604.494 867.5,603.5C 867.5,595.833 867.5,588.167 867.5,580.5C 868.833,580.5 870.167,580.5 871.5,580.5C 871.5,597.5 871.5,614.5 871.5,631.5C 870.167,631.5 868.833,631.5 867.5,631.5C 867.5,623.5 867.5,615.5 867.5,607.5C 857.5,607.5 847.5,607.5 837.5,607.5C 837.5,615.5 837.5,623.5 837.5,631.5C 836.167,631.5 834.833,631.5 833.5,631.5C 833.5,614.5 833.5,597.5 833.5,580.5C 834.5,580.5 835.5,580.5 836.5,580.5 Z"/></g>
<g><path style="opacity:1" fill="#404150" d="M 887.5,580.5 C 888.5,580.5 889.5,580.5 890.5,580.5C 890.5,597.5 890.5,614.5 890.5,631.5C 889.5,631.5 888.5,631.5 887.5,631.5C 887.5,614.5 887.5,597.5 887.5,580.5 Z"/></g>
<g><path style="opacity:1" fill="#4c4a59" d="M 921.5,580.5 C 941.042,578.222 952.375,586.722 955.5,606C 952.452,625.361 941.119,633.694 921.5,631C 906.52,624.54 901.02,613.373 905,597.5C 906.497,593.835 908.497,590.502 911,587.5C 914.308,584.771 917.808,582.438 921.5,580.5 Z"/></g>
<g><path style="opacity:1" fill="#454454" d="M 1010.5,580.5 C 1010.83,597.675 1010.5,614.675 1009.5,631.5C 996.836,617.334 984.336,603.001 972,588.5C 971.5,602.829 971.333,617.163 971.5,631.5C 970.5,631.5 969.5,631.5 968.5,631.5C 968.333,614.497 968.5,597.497 969,580.5C 982.038,594.536 994.705,608.87 1007,623.5C 1007.5,609.171 1007.67,594.837 1007.5,580.5C 1008.5,580.5 1009.5,580.5 1010.5,580.5 Z"/></g>
<g><path style="opacity:1" fill="#c8b4b2" d="M 1010.5,580.5 C 1011.83,597.671 1011.83,615.005 1010.5,632.5C 1009.89,632.376 1009.56,632.043 1009.5,631.5C 1010.5,614.675 1010.83,597.675 1010.5,580.5 Z"/></g>
<g><path style="opacity:1" fill="#4d4b59" d="M 800.5,580.5 C 807.05,579.974 813.05,581.308 818.5,584.5C 818.192,585.308 817.692,585.975 817,586.5C 810.259,582.733 803.592,582.733 797,586.5C 793.449,591.093 793.949,595.26 798.5,599C 803.003,601.39 807.669,603.39 812.5,605C 820.958,610.326 822.791,617.493 818,626.5C 816.048,628.894 813.548,630.394 810.5,631C 803.457,632.281 796.79,631.281 790.5,628C 789.663,626.989 789.33,625.822 789.5,624.5C 793.963,626.929 798.797,628.262 804,628.5C 814.751,628.355 818.751,623.021 816,612.5C 810.167,607.879 803.667,604.379 796.5,602C 788.914,593.198 790.247,586.031 800.5,580.5 Z"/></g>
<g><path style="opacity:1" fill="#fce2d8" d="M 923.5,583.5 C 943.334,582.499 952.5,591.833 951,611.5C 947.528,622.335 940.028,628.002 928.5,628.5C 914.898,626.897 907.898,619.23 907.5,605.5C 907.966,594.549 913.299,587.216 923.5,583.5 Z"/></g>
<g><path style="opacity:1" fill="#f5dbd2" d="M 758.5,586.5 C 762.003,594.319 765.336,602.319 768.5,610.5C 762.202,611.496 755.868,611.83 749.5,611.5C 752.217,603.065 755.217,594.732 758.5,586.5 Z"/></g>
<g><path style="opacity:1" fill="#b4a3a3" d="M 836.5,580.5 C 837.492,587.982 837.825,595.648 837.5,603.5C 847.5,603.5 857.5,603.5 867.5,603.5C 857.347,604.494 847.014,604.828 836.5,604.5C 836.5,596.5 836.5,588.5 836.5,580.5 Z"/></g>
<g><path style="opacity:1" fill="#555463" d="M 1037.5,629.5 C 1122.17,629.5 1206.83,629.5 1291.5,629.5C 1291.5,630.5 1291.5,631.5 1291.5,632.5C 1206.83,632.5 1122.17,632.5 1037.5,632.5C 1037.5,631.5 1037.5,630.5 1037.5,629.5 Z"/></g>
<g><path style="opacity:1" fill="#969096" d="M 580.5,483.5 C 580.833,483.5 581.167,483.5 581.5,483.5C 581.5,551.167 581.5,618.833 581.5,686.5C 833.5,686.5 1085.5,686.5 1337.5,686.5C 1337.83,686.5 1338.17,686.5 1338.5,686.5C 1234.33,687.499 1130,687.833 1025.5,687.5C 913.167,687.5 800.833,687.5 688.5,687.5C 652.5,687.5 616.5,687.5 580.5,687.5C 580.5,619.5 580.5,551.5 580.5,483.5 Z"/></g>
<g><path style="opacity:1" fill="#ffe4da" d="M 688.5,687.5 C 800.833,687.5 913.167,687.5 1025.5,687.5C 1025.5,713.833 1025.5,740.167 1025.5,766.5C 913.167,766.5 800.833,766.5 688.5,766.5C 688.5,740.167 688.5,713.833 688.5,687.5 Z"/></g>
<g><path style="opacity:1" fill="#404150" d="M 1066.5,706.5 C 1067.81,708.915 1068.48,711.748 1068.5,715C 1068.17,717.833 1067.83,720.667 1067.5,723.5C 1066.5,717.872 1066.17,712.206 1066.5,706.5 Z"/></g>
<g><path style="opacity:1" fill="#535361" d="M 1109.5,706.5 C 1113.55,706.176 1117.55,706.509 1121.5,707.5C 1118.57,708.484 1115.57,708.817 1112.5,708.5C 1112.5,710.167 1112.5,711.833 1112.5,713.5C 1123.17,714.167 1123.17,714.833 1112.5,715.5C 1112.5,717.5 1112.5,719.5 1112.5,721.5C 1115.57,721.183 1118.57,721.516 1121.5,722.5C 1117.55,723.491 1113.55,723.824 1109.5,723.5C 1109.5,717.833 1109.5,712.167 1109.5,706.5 Z"/></g>
<g><path style="opacity:1" fill="#404150" d="M 1212.5,706.5 C 1213.81,708.915 1214.48,711.748 1214.5,715C 1214.17,717.833 1213.83,720.667 1213.5,723.5C 1212.5,717.872 1212.17,712.206 1212.5,706.5 Z"/></g>
<g><path style="opacity:1" fill="#585766" d="M 1218.5,706.5 C 1222.23,706.177 1225.89,706.511 1229.5,707.5C 1228.31,708.429 1226.98,708.762 1225.5,708.5C 1225.5,713.5 1225.5,718.5 1225.5,723.5C 1224.5,723.5 1223.5,723.5 1222.5,723.5C 1222.5,718.5 1222.5,713.5 1222.5,708.5C 1220.52,708.843 1219.18,708.176 1218.5,706.5 Z"/></g>
<g><path style="opacity:1" fill="#525261" d="M 1233.5,706.5 C 1235.34,708.279 1236.01,710.612 1235.5,713.5C 1238.5,713.5 1241.5,713.5 1244.5,713.5C 1244.5,711.167 1244.5,708.833 1244.5,706.5C 1245.5,706.5 1246.5,706.5 1247.5,706.5C 1247.5,712.167 1247.5,717.833 1247.5,723.5C 1246.5,723.5 1245.5,723.5 1244.5,723.5C 1244.5,720.833 1244.5,718.167 1244.5,715.5C 1241.5,715.5 1238.5,715.5 1235.5,715.5C 1235.81,718.247 1235.48,720.914 1234.5,723.5C 1233.5,717.872 1233.17,712.206 1233.5,706.5 Z"/></g>
<g><path style="opacity:1" fill="#575765" d="M 1294.5,706.5 C 1295.5,706.5 1296.5,706.5 1297.5,706.5C 1297.33,710.846 1297.5,715.179 1298,719.5C 1300.33,722.167 1302.67,722.167 1305,719.5C 1306.33,702.167 1307,702.167 1307,719.5C 1304.37,723.629 1300.87,724.462 1296.5,722C 1295.87,721.25 1295.37,720.416 1295,719.5C 1294.5,715.179 1294.33,710.846 1294.5,706.5 Z"/></g>
<g><path style="opacity:1" fill="#535362" d="M 1073.5,706.5 C 1077.8,710.296 1081.96,714.296 1086,718.5C 1086.17,714.459 1086.67,710.459 1087.5,706.5C 1088.66,712.137 1088.83,717.804 1088,723.5C 1084.33,719.833 1080.67,716.167 1077,712.5C 1076.5,716.152 1076.33,719.818 1076.5,723.5C 1075.5,723.5 1074.5,723.5 1073.5,723.5C 1073.5,717.833 1073.5,712.167 1073.5,706.5 Z"/></g>
<g><path style="opacity:1" fill="#4a4a59" d="M 1133.5,708.5 C 1140,707.499 1142.5,710.165 1141,716.5C 1135.85,719.851 1136.35,721.851 1142.5,722.5C 1132.36,725.187 1130.86,723.52 1138,717.5C 1140.81,712.769 1139.65,710.602 1134.5,711C 1133.17,712.333 1133.17,713.667 1134.5,715C 1134,715.5 1133.5,716 1133,716.5C 1130.89,713.629 1131.06,710.963 1133.5,708.5 Z"/></g>
<g><path style="opacity:1" fill="#414151" d="M 1159.5,708.5 C 1160.83,708.5 1162.17,708.5 1163.5,708.5C 1163.83,713.544 1163.49,718.544 1162.5,723.5C 1161.94,718.326 1160.94,713.326 1159.5,708.5 Z"/></g>
<g><path style="opacity:1" fill="#4d4d5c" d="M 1278.5,706.5 C 1290.2,706.748 1293.2,711.915 1287.5,722C 1277.88,725.105 1273.38,721.605 1274,711.5C 1275.71,709.963 1277.21,708.296 1278.5,706.5 Z"/></g>
<g><path style="opacity:1" fill="#f3f3f4" d="M 1279.5,708.5 C 1287.84,708.691 1290.18,712.524 1286.5,720C 1279.39,722.554 1275.89,720.054 1276,712.5C 1277.38,711.295 1278.54,709.962 1279.5,708.5 Z"/></g>
<g><path style="opacity:1" fill="#535361" d="M 1147.5,708.5 C 1155.33,707.495 1158.5,710.828 1157,718.5C 1155.63,722.766 1152.8,724.266 1148.5,723C 1146.67,722.5 1145.5,721.333 1145,719.5C 1143.81,715.259 1144.65,711.592 1147.5,708.5 Z"/></g>
<g><path style="opacity:1" fill="#50505f" d="M 1097.5,706.5 C 1100.48,706.104 1103.15,706.771 1105.5,708.5C 1103.33,708.676 1101,708.843 1098.5,709C 1093.17,713 1093.17,717 1098.5,721C 1100.57,721.687 1102.57,721.52 1104.5,720.5C 1105.6,721.631 1105.27,722.465 1103.5,723C 1094.86,724.019 1091.36,720.186 1093,711.5C 1094.02,709.313 1095.52,707.646 1097.5,706.5 Z"/></g>
<g><path style="opacity:1" fill="#f4f4f5" d="M 1148.5,710.5 C 1154.16,710.867 1155.99,713.867 1154,719.5C 1151.32,722.172 1148.99,721.838 1147,718.5C 1146.28,715.593 1146.78,712.926 1148.5,710.5 Z"/></g>
<g><path style="opacity:1" fill="#4d4d5c" d="M 1258.5,706.5 C 1259.5,706.414 1260.33,706.748 1261,707.5C 1262.08,709.996 1263.41,712.33 1265,714.5C 1266.7,712.301 1268.2,709.968 1269.5,707.5C 1270.36,706.417 1271.36,706.251 1272.5,707C 1268.66,711.853 1266.32,717.353 1265.5,723.5C 1263.65,717.644 1261.31,711.977 1258.5,706.5 Z"/></g>
<g><path style="opacity:1" fill="#484757" d="M 1168.5,708.5 C 1170.92,708.192 1173.26,708.526 1175.5,709.5C 1173.95,710.452 1172.29,710.785 1170.5,710.5C 1170.5,711.5 1170.5,712.5 1170.5,713.5C 1175.99,713.504 1177.82,716.171 1176,721.5C 1173.29,723.886 1170.46,724.052 1167.5,722C 1168,721.5 1168.5,721 1169,720.5C 1173.83,722.333 1175.33,720.833 1173.5,716C 1171.87,715.506 1170.2,715.34 1168.5,715.5C 1168.5,713.167 1168.5,710.833 1168.5,708.5 Z"/></g>
<g><path style="opacity:1" fill="#525260" d="M 1054.5,706.5 C 1057.16,706.162 1059.49,706.829 1061.5,708.5C 1059.66,708.755 1057.66,708.922 1055.5,709C 1054.98,709.561 1054.64,710.228 1054.5,711C 1056.88,712.946 1059.38,714.779 1062,716.5C 1062.17,722.313 1059.34,724.48 1053.5,723C 1052.69,722.692 1052.03,722.192 1051.5,721.5C 1053.67,721.324 1056,721.157 1058.5,721C 1059.06,720.275 1059.39,719.442 1059.5,718.5C 1057.86,716.251 1055.7,714.585 1053,713.5C 1052.17,710.829 1052.67,708.496 1054.5,706.5 Z"/></g>
<g><path style="opacity:1" fill="#4e4e5d" d="M 1187.5,706.5 C 1188.5,706.414 1189.33,706.748 1190,707.5C 1191.53,711.09 1192.86,714.757 1194,718.5C 1196.09,714.559 1196.92,710.559 1196.5,706.5C 1198.83,709.822 1200.66,713.489 1202,717.5C 1203.72,714.36 1205.05,711.027 1206,707.5C 1206.89,706.289 1207.73,706.289 1208.5,707.5C 1206.43,712.873 1204.26,718.207 1202,723.5C 1200.92,720.352 1199.59,717.352 1198,714.5C 1196.47,717.417 1195.14,720.417 1194,723.5C 1191.53,717.927 1189.37,712.26 1187.5,706.5 Z"/></g>
</svg>
