<?xml version="1.0" encoding="UTF-8"?>
<!DOCTYPE svg PUBLIC "-//W3C//DTD SVG 1.1//EN" "http://www.w3.org/Graphics/SVG/1.1/DTD/svg11.dtd">
<svg xmlns="http://www.w3.org/2000/svg" version="1.1" width="818px" height="457px" style="shape-rendering:geometricPrecision; text-rendering:geometricPrecision; image-rendering:optimizeQuality; fill-rule:evenodd; clip-rule:evenodd" xmlns:xlink="http://www.w3.org/1999/xlink">
<g><path style="opacity:1" fill="#fefefe" d="M -0.5,-0.5 C 198.833,-0.5 398.167,-0.5 597.5,-0.5C 595.056,0.871203 593.722,3.03787 593.5,6C 594.472,8.78164 595.305,11.615 596,14.5C 600.275,20.7384 604.775,26.7384 609.5,32.5C 604.443,28.1064 599.109,24.1064 593.5,20.5C 591.813,20.7605 590.313,21.4272 589,22.5C 588.503,25.146 588.336,27.8127 588.5,30.5C 584.354,31.647 580.02,31.8136 575.5,31C 568.167,25 560.833,19 553.5,13C 549.762,10.215 545.596,8.38168 541,7.5C 539.289,7.43928 537.956,8.10595 537,9.5C 536.333,11.8333 536.333,14.1667 537,16.5C 540.688,21.6882 545.188,26.0215 550.5,29.5C 551.386,30.325 551.719,31.325 551.5,32.5C 537.654,32.5145 523.987,34.0145 510.5,37C 505.185,40.6168 505.185,44.2834 510.5,48C 513.764,48.9389 517.097,49.4389 520.5,49.5C 525.82,48.9012 531.153,48.5679 536.5,48.5C 539.969,51.0723 543.636,53.4057 547.5,55.5C 548.386,56.325 548.719,57.325 548.5,58.5C 535.602,59.2608 522.935,61.4275 510.5,65C 503.526,68.1895 502.859,72.1895 508.5,77C 512.741,78.4573 517.074,78.7907 521.5,78C 532.515,75.5508 543.015,71.7174 553,66.5C 549.488,71.4291 546.655,76.9291 544.5,83C 544.667,85.8333 546.167,87.3333 549,87.5C 552.623,86.5158 555.623,84.5158 558,81.5C 562,75.5 566,69.5 570,63.5C 571.579,61.9588 573.413,60.7922 575.5,60C 586.179,58.9099 596.845,58.7433 607.5,59.5C 599.437,64.1049 592.27,69.7716 586,76.5C 584.511,80.8334 586.011,83.1667 590.5,83.5C 595.976,82.4285 600.976,80.2618 605.5,77C 613.119,71.7159 620.452,66.0492 627.5,60C 633.258,59.4361 638.925,59.9361 644.5,61.5C 641.547,64.5059 641.88,67.0059 645.5,69C 653.882,69.7726 662.215,69.6059 670.5,68.5C 670.938,68.4346 671.272,68.6012 671.5,69C 670.672,69.9147 669.672,70.5814 668.5,71C 658.867,72.2088 650.034,75.3755 642,80.5C 641.567,84.7351 643.567,86.7351 648,86.5C 662.481,85.6035 676.314,82.2702 689.5,76.5C 701.878,81.8919 713.211,88.8919 723.5,97.5C 716.726,99.4233 709.726,100.923 702.5,102C 698.195,102.903 694.361,104.737 691,107.5C 690.333,109.167 690.333,110.833 691,112.5C 694.134,113.909 697.301,114.909 700.5,115.5C 694.843,116.613 692.843,119.78 694.5,125C 710.218,127.1 724.552,123.433 737.5,114C 738.833,113.333 740.167,113.333 741.5,114C 748.348,121.015 755.348,127.848 762.5,134.5C 764.724,133.919 765.557,132.586 765,130.5C 762.295,127.964 759.795,125.297 757.5,122.5C 757.649,121.448 757.483,120.448 757,119.5C 752.592,114.602 748.426,109.602 744.5,104.5C 743.608,97.2094 743.274,89.8761 743.5,82.5C 743.545,70.374 742.378,58.374 740,46.5C 736.555,38.9422 732.555,38.6089 728,45.5C 727.51,46.7932 727.343,48.1266 727.5,49.5C 725.057,53.4411 724.057,57.7745 724.5,62.5C 724.879,70.0138 726.212,77.3471 728.5,84.5C 722.363,80.6031 716.363,75.7698 710.5,70C 703.579,65.2896 696.746,60.4562 690,55.5C 688.411,46.8868 687.078,38.2201 686,29.5C 684.822,23.481 682.322,18.1477 678.5,13.5C 675.589,12.0165 672.922,12.3498 670.5,14.5C 668.744,18.2879 668.078,22.2879 668.5,26.5C 666.496,27.6728 664.996,29.3395 664,31.5C 663.585,35.848 663.751,40.1813 664.5,44.5C 653.067,40.412 641.4,37.0786 629.5,34.5C 623.667,26.1667 617.833,17.8333 612,9.5C 608.604,5.93487 605.104,2.60153 601.5,-0.5C 673.5,-0.5 745.5,-0.5 817.5,-0.5C 817.5,151.833 817.5,304.167 817.5,456.5C 544.833,456.5 272.167,456.5 -0.5,456.5C -0.5,304.167 -0.5,151.833 -0.5,-0.5 Z"/></g>
<g><path style="opacity:1" fill="#fee4da" d="M 597.5,-0.5 C 598.833,-0.5 600.167,-0.5 601.5,-0.5C 605.104,2.60153 608.604,5.93487 612,9.5C 617.833,17.8333 623.667,26.1667 629.5,34.5C 641.4,37.0786 653.067,40.412 664.5,44.5C 665.73,46.2972 666.396,48.2972 666.5,50.5C 655.757,46.6326 644.757,43.6326 633.5,41.5C 628.603,42.1036 624.936,44.4369 622.5,48.5C 618.197,43.1912 613.863,37.8579 609.5,32.5C 604.775,26.7384 600.275,20.7384 596,14.5C 595.305,11.615 594.472,8.78164 593.5,6C 593.722,3.03787 595.056,0.871203 597.5,-0.5 Z"/></g>
<g><path style="opacity:1" fill="#fce2d9" d="M 588.5,30.5 C 589.486,32.4261 590.486,34.4261 591.5,36.5C 585.238,35.872 579.238,36.7054 573.5,39C 570.617,42.3765 567.951,45.8765 565.5,49.5C 559.387,45.9376 553.387,42.1042 547.5,38C 542.804,35.3198 537.804,34.3198 532.5,35C 531.594,36.6995 531.261,38.5328 531.5,40.5C 525.896,39.7264 520.229,39.8931 514.5,41C 514.043,41.414 513.709,41.914 513.5,42.5C 515.879,44.0419 518.546,44.7086 521.5,44.5C 525.117,44.6019 528.45,43.9352 531.5,42.5C 533.137,44.4752 534.804,46.4752 536.5,48.5C 531.153,48.5679 525.82,48.9012 520.5,49.5C 517.097,49.4389 513.764,48.9389 510.5,48C 505.185,44.2834 505.185,40.6168 510.5,37C 523.987,34.0145 537.654,32.5145 551.5,32.5C 551.719,31.325 551.386,30.325 550.5,29.5C 545.188,26.0215 540.688,21.6882 537,16.5C 536.333,14.1667 536.333,11.8333 537,9.5C 537.956,8.10595 539.289,7.43928 541,7.5C 545.596,8.38168 549.762,10.215 553.5,13C 560.833,19 568.167,25 575.5,31C 580.02,31.8136 584.354,31.647 588.5,30.5 Z"/></g>
<g><path style="opacity:1" fill="#fffdfd" d="M 600.5,6.5 C 608.468,12.8945 614.134,20.5612 617.5,29.5C 608.323,24.3369 602.656,16.6703 600.5,6.5 Z"/></g>
<g><path style="opacity:1" fill="#fde3da" d="M 728.5,84.5 C 730.434,88.1082 732.101,91.9416 733.5,96C 733.15,97.2575 732.483,97.5908 731.5,97C 728.669,95.3343 726.336,93.1676 724.5,90.5C 715.189,80.0221 704.523,71.1888 692.5,64C 690.613,63.2204 688.946,63.3871 687.5,64.5C 685.52,57.2541 683.52,49.9208 681.5,42.5C 682.951,33.9948 680.784,26.3281 675,19.5C 674.502,22.4816 674.335,25.4816 674.5,28.5C 672.858,26.9192 670.858,26.2525 668.5,26.5C 668.078,22.2879 668.744,18.2879 670.5,14.5C 672.922,12.3498 675.589,12.0165 678.5,13.5C 682.322,18.1477 684.822,23.481 686,29.5C 687.078,38.2201 688.411,46.8868 690,55.5C 696.746,60.4562 703.579,65.2896 710.5,70C 716.363,75.7698 722.363,80.6031 728.5,84.5 Z"/></g>
<g><path style="opacity:1" fill="#fffcfb" d="M 543.5,15.5 C 543.56,14.9569 543.893,14.6236 544.5,14.5C 551.544,18.3746 557.878,23.2079 563.5,29C 555.402,26.7728 548.736,22.2728 543.5,15.5 Z"/></g>
<g><path style="opacity:1" fill="#faf8f9" d="M 681.5,42.5 C 680.219,37.2707 677.885,32.6041 674.5,28.5C 674.335,25.4816 674.502,22.4816 675,19.5C 680.784,26.3281 682.951,33.9948 681.5,42.5 Z"/></g>
<g><path style="opacity:1" fill="#464656" d="M 609.5,32.5 C 613.863,37.8579 618.197,43.1912 622.5,48.5C 623.625,50.1288 624.959,51.6288 626.5,53C 636.121,54.8245 645.788,56.3245 655.5,57.5C 660.46,59.4301 665.627,61.0967 671,62.5C 671.5,62.1667 672,61.8333 672.5,61.5C 671.5,59.1868 670.166,57.1868 668.5,55.5C 668.107,53.7162 667.441,52.0495 666.5,50.5C 666.396,48.2972 665.73,46.2972 664.5,44.5C 663.751,40.1813 663.585,35.848 664,31.5C 664.996,29.3395 666.496,27.6728 668.5,26.5C 670.858,26.2525 672.858,26.9192 674.5,28.5C 677.885,32.6041 680.219,37.2707 681.5,42.5C 683.52,49.9208 685.52,57.2541 687.5,64.5C 687.286,66.1439 687.62,67.6439 688.5,69C 701.052,75.4344 713.052,82.6011 724.5,90.5C 726.336,93.1676 728.669,95.3343 731.5,97C 732.483,97.5908 733.15,97.2575 733.5,96C 732.101,91.9416 730.434,88.1082 728.5,84.5C 726.212,77.3471 724.879,70.0138 724.5,62.5C 724.057,57.7745 725.057,53.4411 727.5,49.5C 730.97,48.8748 733.804,49.8748 736,52.5C 739.344,62.4133 741.844,72.4133 743.5,82.5C 743.274,89.8761 743.608,97.2094 744.5,104.5C 744.372,106.655 744.872,108.655 746,110.5C 749.391,115.055 753.225,119.055 757.5,122.5C 759.795,125.297 762.295,127.964 765,130.5C 765.557,132.586 764.724,133.919 762.5,134.5C 755.348,127.848 748.348,121.015 741.5,114C 740.167,113.333 738.833,113.333 737.5,114C 724.552,123.433 710.218,127.1 694.5,125C 692.843,119.78 694.843,116.613 700.5,115.5C 710.114,111.296 720.114,108.296 730.5,106.5C 729.607,102.872 727.273,99.872 723.5,97.5C 713.211,88.8919 701.878,81.8919 689.5,76.5C 676.314,82.2702 662.481,85.6035 648,86.5C 643.567,86.7351 641.567,84.7351 642,80.5C 650.034,75.3755 658.867,72.2088 668.5,71C 669.672,70.5814 670.672,69.9147 671.5,69C 671.272,68.6012 670.938,68.4346 670.5,68.5C 662.118,65.5689 653.451,63.2356 644.5,61.5C 638.925,59.9361 633.258,59.4361 627.5,60C 620.452,66.0492 613.119,71.7159 605.5,77C 600.976,80.2618 595.976,82.4285 590.5,83.5C 586.011,83.1667 584.511,80.8334 586,76.5C 592.27,69.7716 599.437,64.1049 607.5,59.5C 596.845,58.7433 586.179,58.9099 575.5,60C 573.413,60.7922 571.579,61.9588 570,63.5C 566,69.5 562,75.5 558,81.5C 555.623,84.5158 552.623,86.5158 549,87.5C 546.167,87.3333 544.667,85.8333 544.5,83C 546.655,76.9291 549.488,71.4291 553,66.5C 543.015,71.7174 532.515,75.5508 521.5,78C 517.074,78.7907 512.741,78.4573 508.5,77C 502.859,72.1895 503.526,68.1895 510.5,65C 522.935,61.4275 535.602,59.2608 548.5,58.5C 548.719,57.325 548.386,56.325 547.5,55.5C 543.636,53.4057 539.969,51.0723 536.5,48.5C 534.804,46.4752 533.137,44.4752 531.5,42.5C 531.5,41.8333 531.5,41.1667 531.5,40.5C 531.261,38.5328 531.594,36.6995 532.5,35C 537.804,34.3198 542.804,35.3198 547.5,38C 553.387,42.1042 559.387,45.9376 565.5,49.5C 567.094,50.983 568.76,52.483 570.5,54C 576.51,54.4085 582.51,54.2419 588.5,53.5C 594.181,53.037 599.848,52.3703 605.5,51.5C 603.734,48.7915 601.401,46.7915 598.5,45.5C 595.785,42.7861 593.451,39.7861 591.5,36.5C 590.486,34.4261 589.486,32.4261 588.5,30.5C 588.336,27.8127 588.503,25.146 589,22.5C 590.313,21.4272 591.813,20.7605 593.5,20.5C 599.109,24.1064 604.443,28.1064 609.5,32.5 Z"/></g>
<g><path style="opacity:1" fill="#f7e6e0" d="M 594.5,27.5 C 602.666,33.4995 609.666,40.6661 615.5,49C 612.23,48.5369 609.23,47.2036 606.5,45C 600.363,40.5376 596.363,34.7043 594.5,27.5 Z"/></g>
<g><path style="opacity:1" fill="#fdfcfc" d="M 591.5,36.5 C 593.451,39.7861 595.785,42.7861 598.5,45.5C 594.397,47.2164 591.064,49.8831 588.5,53.5C 582.51,54.2419 576.51,54.4085 570.5,54C 568.76,52.483 567.094,50.983 565.5,49.5C 567.951,45.8765 570.617,42.3765 573.5,39C 579.238,36.7054 585.238,35.872 591.5,36.5 Z"/></g>
<g><path style="opacity:1" fill="#f9f7f6" d="M 669.5,35.5 C 672.137,39.4406 673.637,43.774 674,48.5C 673.329,47.7476 672.496,47.4142 671.5,47.5C 669.857,43.7047 669.191,39.7047 669.5,35.5 Z"/></g>
<g><path style="opacity:1" fill="#f1d8d0" d="M 671.5,47.5 C 672.496,47.4142 673.329,47.7476 674,48.5C 673.637,43.774 672.137,39.4406 669.5,35.5C 669.369,34.7611 669.536,34.0944 670,33.5C 677.211,41.4672 680.211,50.8006 679,61.5C 675.712,57.2564 673.212,52.5897 671.5,47.5 Z"/></g>
<g><path style="opacity:1" fill="#fefcfb" d="M 531.5,40.5 C 531.5,41.1667 531.5,41.8333 531.5,42.5C 528.45,43.9352 525.117,44.6019 521.5,44.5C 518.546,44.7086 515.879,44.0419 513.5,42.5C 513.709,41.914 514.043,41.414 514.5,41C 520.229,39.8931 525.896,39.7264 531.5,40.5 Z"/></g>
<g><path style="opacity:1" fill="#fae2d9" d="M 743.5,82.5 C 741.844,72.4133 739.344,62.4133 736,52.5C 733.804,49.8748 730.97,48.8748 727.5,49.5C 727.343,48.1266 727.51,46.7932 728,45.5C 732.555,38.6089 736.555,38.9422 740,46.5C 742.378,58.374 743.545,70.374 743.5,82.5 Z"/></g>
<g><path style="opacity:1" fill="#fcfcfc" d="M 666.5,50.5 C 667.441,52.0495 668.107,53.7162 668.5,55.5C 664.409,56.8955 660.076,57.5621 655.5,57.5C 645.788,56.3245 636.121,54.8245 626.5,53C 624.959,51.6288 623.625,50.1288 622.5,48.5C 624.936,44.4369 628.603,42.1036 633.5,41.5C 644.757,43.6326 655.757,46.6326 666.5,50.5 Z"/></g>
<g><path style="opacity:1" fill="#eee1de" d="M 538.5,41.5 C 538.56,40.9569 538.893,40.6236 539.5,40.5C 546.671,43.9158 553.338,48.0825 559.5,53C 550.781,52.307 543.781,48.4737 538.5,41.5 Z"/></g>
<g><path style="opacity:1" fill="#f9e3db" d="M 598.5,45.5 C 601.401,46.7915 603.734,48.7915 605.5,51.5C 599.848,52.3703 594.181,53.037 588.5,53.5C 591.064,49.8831 594.397,47.2164 598.5,45.5 Z"/></g>
<g><path style="opacity:1" fill="#eed7d0" d="M 668.5,55.5 C 670.166,57.1868 671.5,59.1868 672.5,61.5C 672,61.8333 671.5,62.1667 671,62.5C 665.627,61.0967 660.46,59.4301 655.5,57.5C 660.076,57.5621 664.409,56.8955 668.5,55.5 Z"/></g>
<g><path style="opacity:1" fill="#eedbd5" d="M 730.5,56.5 C 733.511,61.3124 735.344,66.6457 736,72.5C 737.33,78.4518 737.663,84.4518 737,90.5C 731.331,79.7097 729.164,68.3764 730.5,56.5 Z"/></g>
<g><path style="opacity:1" fill="#fbe1d8" d="M 644.5,61.5 C 653.451,63.2356 662.118,65.5689 670.5,68.5C 662.215,69.6059 653.882,69.7726 645.5,69C 641.88,67.0059 641.547,64.5059 644.5,61.5 Z"/></g>
<g><path style="opacity:1" fill="#f7f6f7" d="M 724.5,90.5 C 713.052,82.6011 701.052,75.4344 688.5,69C 687.62,67.6439 687.286,66.1439 687.5,64.5C 688.946,63.3871 690.613,63.2204 692.5,64C 704.523,71.1888 715.189,80.0221 724.5,90.5 Z"/></g>
<g><path style="opacity:1" fill="#e5e5e7" d="M 614.5,61.5 C 615.043,61.56 615.376,61.8933 615.5,62.5C 609.149,68.8309 601.816,73.3309 593.5,76C 600.218,70.6505 607.218,65.8172 614.5,61.5 Z"/></g>
<g><path style="opacity:1" fill="#ffe4da" d="M 134.5,66.5 C 246.833,66.5 359.167,66.5 471.5,66.5C 471.5,74.8333 471.5,83.1667 471.5,91.5C 359.167,91.5 246.833,91.5 134.5,91.5C 134.5,83.1667 134.5,74.8333 134.5,66.5 Z"/></g>
<g><path style="opacity:1" fill="#f2f2f3" d="M 530.5,65.5 C 536.926,67.0841 536.926,68.5841 530.5,70C 524.287,72.3378 517.954,72.8378 511.5,71.5C 512.09,70.2011 513.09,69.3678 514.5,69C 520.034,68.1398 525.368,66.9732 530.5,65.5 Z"/></g>
<g><path style="opacity:1" fill="#c6c6cb" d="M 664.5,76.5 C 666.527,76.3379 668.527,76.5045 670.5,77C 667.261,78.8195 663.928,79.3195 660.5,78.5C 661.949,77.8281 663.282,77.1614 664.5,76.5 Z"/></g>
<g><path style="opacity:1" fill="#fce4db" d="M 723.5,97.5 C 727.273,99.872 729.607,102.872 730.5,106.5C 720.114,108.296 710.114,111.296 700.5,115.5C 697.301,114.909 694.134,113.909 691,112.5C 690.333,110.833 690.333,109.167 691,107.5C 694.361,104.737 698.195,102.903 702.5,102C 709.726,100.923 716.726,99.4233 723.5,97.5 Z"/></g>
<g><path style="opacity:1" fill="#f4dcd4" d="M 744.5,104.5 C 748.426,109.602 752.592,114.602 757,119.5C 757.483,120.448 757.649,121.448 757.5,122.5C 753.225,119.055 749.391,115.055 746,110.5C 744.872,108.655 744.372,106.655 744.5,104.5 Z"/></g>
<g><path style="opacity:1" fill="#e3e3e5" d="M 723.5,113.5 C 724.552,113.351 725.552,113.517 726.5,114C 720.861,117.241 714.861,118.908 708.5,119C 713.434,116.637 718.434,114.804 723.5,113.5 Z"/></g>
<g><path style="opacity:1" fill="#414151" d="M 298.5,136.5 C 312.537,136.158 326.537,136.658 340.5,138C 363.915,144.59 375.915,160.09 376.5,184.5C 375.969,207.537 364.636,222.37 342.5,229C 327.87,230.351 313.203,230.851 298.5,230.5C 298.5,199.167 298.5,167.833 298.5,136.5 Z"/></g>
<g><path style="opacity:1" fill="#444454" d="M 397.5,136.5 C 402.5,136.5 407.5,136.5 412.5,136.5C 412.333,157.836 412.5,179.169 413,200.5C 419.955,216.71 431.455,220.877 447.5,213C 451.194,210.313 453.694,206.813 455,202.5C 455.5,180.503 455.667,158.503 455.5,136.5C 460.5,136.5 465.5,136.5 470.5,136.5C 470.667,159.502 470.5,182.502 470,205.5C 463.947,223.134 451.447,231.801 432.5,231.5C 413.85,230.351 402.35,220.685 398,202.5C 397.5,180.503 397.333,158.503 397.5,136.5 Z"/></g>
<g><path style="opacity:1" fill="#424252" d="M 487.5,137.5 C 493.678,136.183 500.012,136.183 506.5,137.5C 514.333,152.5 522.167,167.5 530,182.5C 538.343,167.815 546.177,152.815 553.5,137.5C 559.807,136.336 566.141,136.169 572.5,137C 561.127,157.581 549.627,178.081 538,198.5C 537.5,209.161 537.333,219.828 537.5,230.5C 532.5,230.5 527.5,230.5 522.5,230.5C 522.666,220.161 522.5,209.828 522,199.5C 510.726,178.61 499.226,157.943 487.5,137.5 Z"/></g>
<g><path style="opacity:1" fill="#d6d6d9" d="M 333.5,151.5 C 327.167,151.5 320.833,151.5 314.5,151.5C 314.5,172.833 314.5,194.167 314.5,215.5C 320.167,215.5 325.833,215.5 331.5,215.5C 325.69,216.49 319.69,216.823 313.5,216.5C 313.5,194.5 313.5,172.5 313.5,150.5C 320.354,150.176 327.021,150.509 333.5,151.5 Z"/></g>
<g><path style="opacity:1" fill="#fdfdfd" d="M 333.5,151.5 C 351.444,154.28 360.777,164.78 361.5,183C 360.993,202.672 350.993,213.505 331.5,215.5C 325.833,215.5 320.167,215.5 314.5,215.5C 314.5,194.167 314.5,172.833 314.5,151.5C 320.833,151.5 327.167,151.5 333.5,151.5 Z"/></g>
<g><path style="opacity:1" fill="#8f8f98" d="M 26.5,170.5 C 58.6624,169.502 90.9957,169.168 123.5,169.5C 123.5,172.167 123.5,174.833 123.5,177.5C 93.8333,177.5 64.1667,177.5 34.5,177.5C 63.6619,176.502 92.9953,176.169 122.5,176.5C 122.5,174.5 122.5,172.5 122.5,170.5C 90.8333,170.5 59.1667,170.5 27.5,170.5C 27.1667,170.5 26.8333,170.5 26.5,170.5 Z"/></g>
<g><path style="opacity:1" fill="#434353" d="M 27.5,170.5 C 59.1667,170.5 90.8333,170.5 122.5,170.5C 122.5,172.5 122.5,174.5 122.5,176.5C 92.9953,176.169 63.6619,176.502 34.5,177.5C 34.5,240.5 34.5,303.5 34.5,366.5C 67.8333,366.5 101.167,366.5 134.5,366.5C 246.5,366.5 358.5,366.5 470.5,366.5C 470.833,366.5 471.167,366.5 471.5,366.5C 573.167,366.5 674.833,366.5 776.5,366.5C 776.5,303.5 776.5,240.5 776.5,177.5C 771.5,177.5 766.5,177.5 761.5,177.5C 761.5,175.167 761.5,172.833 761.5,170.5C 768.833,170.5 776.167,170.5 783.5,170.5C 783.5,238.167 783.5,305.833 783.5,373.5C 531.5,373.5 279.5,373.5 27.5,373.5C 27.5,305.833 27.5,238.167 27.5,170.5 Z"/></g>
<g><path style="opacity:1" fill="#777782" d="M 761.5,170.5 C 768.982,169.508 776.648,169.175 784.5,169.5C 784.5,237.5 784.5,305.5 784.5,373.5C 784.167,373.5 783.833,373.5 783.5,373.5C 783.5,305.833 783.5,238.167 783.5,170.5C 776.167,170.5 768.833,170.5 761.5,170.5 Z"/></g>
<g><path style="opacity:1" fill="#ffece5" d="M 134.5,248.5 C 246.665,247.5 358.999,247.167 471.5,247.5C 471.5,287.167 471.5,326.833 471.5,366.5C 471.167,366.5 470.833,366.5 470.5,366.5C 470.5,327.167 470.5,287.833 470.5,248.5C 358.5,248.5 246.5,248.5 134.5,248.5 Z"/></g>
<g><path style="opacity:1" fill="#fee3d9" d="M 134.5,248.5 C 246.5,248.5 358.5,248.5 470.5,248.5C 470.5,287.833 470.5,327.167 470.5,366.5C 358.5,366.5 246.5,366.5 134.5,366.5C 134.5,327.167 134.5,287.833 134.5,248.5 Z"/></g>
<g><path style="opacity:1" fill="#4a4958" d="M 204.5,265.5 C 212.105,282.795 219.438,300.295 226.5,318C 225.056,318.781 223.723,318.614 222.5,317.5C 219.924,312.354 217.924,307.021 216.5,301.5C 208.826,301.334 201.159,301.5 193.5,302C 191.002,307.327 189.002,312.827 187.5,318.5C 186.022,318.762 184.689,318.429 183.5,317.5C 190.515,300.141 197.515,282.808 204.5,265.5 Z"/></g>
<g><path style="opacity:1" fill="#414151" d="M 151.5,267.5 C 160.833,267.5 170.167,267.5 179.5,267.5C 179.5,268.5 179.5,269.5 179.5,270.5C 171.167,270.5 162.833,270.5 154.5,270.5C 154.5,277.833 154.5,285.167 154.5,292.5C 161.833,292.5 169.167,292.5 176.5,292.5C 176.5,293.5 176.5,294.5 176.5,295.5C 169.167,295.5 161.833,295.5 154.5,295.5C 154.5,303.167 154.5,310.833 154.5,318.5C 153.5,318.5 152.5,318.5 151.5,318.5C 151.5,301.5 151.5,284.5 151.5,267.5 Z"/></g>
<g><path style="opacity:1" fill="#4e4c5b" d="M 282.5,267.5 C 282.5,275.5 282.5,283.5 282.5,291.5C 293.014,291.828 303.347,291.494 313.5,290.5C 313.5,282.833 313.5,275.167 313.5,267.5C 314.833,267.5 316.167,267.5 317.5,267.5C 317.5,284.5 317.5,301.5 317.5,318.5C 316.167,318.5 314.833,318.5 313.5,318.5C 313.5,310.5 313.5,302.5 313.5,294.5C 303.5,294.5 293.5,294.5 283.5,294.5C 283.5,302.5 283.5,310.5 283.5,318.5C 282.167,318.5 280.833,318.5 279.5,318.5C 279.5,301.5 279.5,284.5 279.5,267.5C 280.5,267.5 281.5,267.5 282.5,267.5 Z"/></g>
<g><path style="opacity:1" fill="#404150" d="M 333.5,267.5 C 334.5,267.5 335.5,267.5 336.5,267.5C 336.5,284.5 336.5,301.5 336.5,318.5C 335.5,318.5 334.5,318.5 333.5,318.5C 333.5,301.5 333.5,284.5 333.5,267.5 Z"/></g>
<g><path style="opacity:1" fill="#4c4a59" d="M 367.5,267.5 C 387.042,265.222 398.375,273.722 401.5,293C 398.452,312.361 387.119,320.694 367.5,318C 352.52,311.54 347.02,300.373 351,284.5C 352.497,280.835 354.497,277.502 357,274.5C 360.308,271.771 363.808,269.438 367.5,267.5 Z"/></g>
<g><path style="opacity:1" fill="#454454" d="M 456.5,267.5 C 456.83,284.675 456.497,301.675 455.5,318.5C 442.836,304.334 430.336,290.001 418,275.5C 417.5,289.829 417.333,304.163 417.5,318.5C 416.5,318.5 415.5,318.5 414.5,318.5C 414.333,301.497 414.5,284.497 415,267.5C 428.038,281.536 440.705,295.87 453,310.5C 453.5,296.171 453.667,281.837 453.5,267.5C 454.5,267.5 455.5,267.5 456.5,267.5 Z"/></g>
<g><path style="opacity:1" fill="#c8b4b2" d="M 456.5,267.5 C 457.827,284.671 457.827,302.005 456.5,319.5C 455.893,319.376 455.56,319.043 455.5,318.5C 456.497,301.675 456.83,284.675 456.5,267.5 Z"/></g>
<g><path style="opacity:1" fill="#4d4b59" d="M 246.5,267.5 C 253.05,266.974 259.05,268.308 264.5,271.5C 264.192,272.308 263.692,272.975 263,273.5C 256.259,269.733 249.592,269.733 243,273.5C 239.449,278.093 239.949,282.26 244.5,286C 249.003,288.39 253.669,290.39 258.5,292C 266.958,297.326 268.791,304.493 264,313.5C 262.048,315.894 259.548,317.394 256.5,318C 249.457,319.281 242.79,318.281 236.5,315C 235.663,313.989 235.33,312.822 235.5,311.5C 239.963,313.929 244.797,315.262 250,315.5C 260.751,315.355 264.751,310.021 262,299.5C 256.167,294.879 249.667,291.379 242.5,289C 234.914,280.198 236.247,273.031 246.5,267.5 Z"/></g>
<g><path style="opacity:1" fill="#fce2d8" d="M 369.5,270.5 C 389.334,269.499 398.5,278.833 397,298.5C 393.528,309.335 386.028,315.002 374.5,315.5C 360.898,313.897 353.898,306.23 353.5,292.5C 353.966,281.549 359.299,274.216 369.5,270.5 Z"/></g>
<g><path style="opacity:1" fill="#f5dbd2" d="M 204.5,273.5 C 208.003,281.319 211.336,289.319 214.5,297.5C 208.202,298.496 201.868,298.83 195.5,298.5C 198.217,290.065 201.217,281.732 204.5,273.5 Z"/></g>
<g><path style="opacity:1" fill="#b4a3a3" d="M 282.5,267.5 C 283.492,274.982 283.825,282.648 283.5,290.5C 293.5,290.5 303.5,290.5 313.5,290.5C 303.347,291.494 293.014,291.828 282.5,291.5C 282.5,283.5 282.5,275.5 282.5,267.5 Z"/></g>
<g><path style="opacity:1" fill="#555463" d="M 483.5,316.5 C 568.167,316.5 652.833,316.5 737.5,316.5C 737.5,317.5 737.5,318.5 737.5,319.5C 652.833,319.5 568.167,319.5 483.5,319.5C 483.5,318.5 483.5,317.5 483.5,316.5 Z"/></g>
<g><path style="opacity:1" fill="#969096" d="M 26.5,170.5 C 26.8333,170.5 27.1667,170.5 27.5,170.5C 27.5,238.167 27.5,305.833 27.5,373.5C 279.5,373.5 531.5,373.5 783.5,373.5C 783.833,373.5 784.167,373.5 784.5,373.5C 680.335,374.499 576.001,374.833 471.5,374.5C 359.167,374.5 246.833,374.5 134.5,374.5C 98.5,374.5 62.5,374.5 26.5,374.5C 26.5,306.5 26.5,238.5 26.5,170.5 Z"/></g>
<g><path style="opacity:1" fill="#ffe4da" d="M 134.5,374.5 C 246.833,374.5 359.167,374.5 471.5,374.5C 471.5,400.833 471.5,427.167 471.5,453.5C 359.167,453.5 246.833,453.5 134.5,453.5C 134.5,427.167 134.5,400.833 134.5,374.5 Z"/></g>
<g><path style="opacity:1" fill="#404150" d="M 512.5,393.5 C 513.814,395.915 514.481,398.748 514.5,402C 514.167,404.833 513.833,407.667 513.5,410.5C 512.505,404.872 512.171,399.206 512.5,393.5 Z"/></g>
<g><path style="opacity:1" fill="#535361" d="M 555.5,393.5 C 559.555,393.176 563.555,393.509 567.5,394.5C 564.572,395.484 561.572,395.817 558.5,395.5C 558.5,397.167 558.5,398.833 558.5,400.5C 569.167,401.167 569.167,401.833 558.5,402.5C 558.5,404.5 558.5,406.5 558.5,408.5C 561.572,408.183 564.572,408.516 567.5,409.5C 563.555,410.491 559.555,410.824 555.5,410.5C 555.5,404.833 555.5,399.167 555.5,393.5 Z"/></g>
<g><path style="opacity:1" fill="#404150" d="M 658.5,393.5 C 659.814,395.915 660.481,398.748 660.5,402C 660.167,404.833 659.833,407.667 659.5,410.5C 658.505,404.872 658.171,399.206 658.5,393.5 Z"/></g>
<g><path style="opacity:1" fill="#585766" d="M 664.5,393.5 C 668.226,393.177 671.893,393.511 675.5,394.5C 674.311,395.429 672.978,395.762 671.5,395.5C 671.5,400.5 671.5,405.5 671.5,410.5C 670.5,410.5 669.5,410.5 668.5,410.5C 668.5,405.5 668.5,400.5 668.5,395.5C 666.517,395.843 665.183,395.176 664.5,393.5 Z"/></g>
<g><path style="opacity:1" fill="#525261" d="M 679.5,393.5 C 681.344,395.279 682.01,397.612 681.5,400.5C 684.5,400.5 687.5,400.5 690.5,400.5C 690.5,398.167 690.5,395.833 690.5,393.5C 691.5,393.5 692.5,393.5 693.5,393.5C 693.5,399.167 693.5,404.833 693.5,410.5C 692.5,410.5 691.5,410.5 690.5,410.5C 690.5,407.833 690.5,405.167 690.5,402.5C 687.5,402.5 684.5,402.5 681.5,402.5C 681.813,405.247 681.48,407.914 680.5,410.5C 679.505,404.872 679.171,399.206 679.5,393.5 Z"/></g>
<g><path style="opacity:1" fill="#575765" d="M 740.5,393.5 C 741.5,393.5 742.5,393.5 743.5,393.5C 743.334,397.846 743.501,402.179 744,406.5C 746.333,409.167 748.667,409.167 751,406.5C 752.331,389.167 752.998,389.167 753,406.5C 750.369,410.629 746.869,411.462 742.5,409C 741.874,408.25 741.374,407.416 741,406.5C 740.501,402.179 740.334,397.846 740.5,393.5 Z"/></g>
<g><path style="opacity:1" fill="#535362" d="M 519.5,393.5 C 523.798,397.296 527.964,401.296 532,405.5C 532.173,401.459 532.673,397.459 533.5,393.5C 534.663,399.137 534.83,404.804 534,410.5C 530.333,406.833 526.667,403.167 523,399.5C 522.501,403.152 522.335,406.818 522.5,410.5C 521.5,410.5 520.5,410.5 519.5,410.5C 519.5,404.833 519.5,399.167 519.5,393.5 Z"/></g>
<g><path style="opacity:1" fill="#4a4a59" d="M 579.5,395.5 C 586,394.499 588.5,397.165 587,403.5C 581.851,406.851 582.351,408.851 588.5,409.5C 578.362,412.187 576.862,410.52 584,404.5C 586.812,399.769 585.645,397.602 580.5,398C 579.167,399.333 579.167,400.667 580.5,402C 580,402.5 579.5,403 579,403.5C 576.893,400.629 577.059,397.963 579.5,395.5 Z"/></g>
<g><path style="opacity:1" fill="#414151" d="M 605.5,395.5 C 606.833,395.5 608.167,395.5 609.5,395.5C 609.827,400.544 609.494,405.544 608.5,410.5C 607.939,405.326 606.939,400.326 605.5,395.5 Z"/></g>
<g><path style="opacity:1" fill="#4d4d5c" d="M 724.5,393.5 C 736.204,393.748 739.204,398.915 733.5,409C 723.88,412.105 719.38,408.605 720,398.5C 721.707,396.963 723.207,395.296 724.5,393.5 Z"/></g>
<g><path style="opacity:1" fill="#f3f3f4" d="M 725.5,395.5 C 733.845,395.691 736.178,399.524 732.5,407C 725.388,409.554 721.888,407.054 722,399.5C 723.376,398.295 724.542,396.962 725.5,395.5 Z"/></g>
<g><path style="opacity:1" fill="#535361" d="M 593.5,395.5 C 601.33,394.495 604.496,397.828 603,405.5C 601.634,409.766 598.801,411.266 594.5,410C 592.667,409.5 591.5,408.333 591,406.5C 589.812,402.259 590.645,398.592 593.5,395.5 Z"/></g>
<g><path style="opacity:1" fill="#50505f" d="M 543.5,393.5 C 546.482,393.104 549.149,393.771 551.5,395.5C 549.328,395.676 546.995,395.843 544.5,396C 539.167,400 539.167,404 544.5,408C 546.568,408.687 548.568,408.52 550.5,407.5C 551.604,408.631 551.271,409.465 549.5,410C 540.856,411.019 537.356,407.186 539,398.5C 540.025,396.313 541.525,394.646 543.5,393.5 Z"/></g>
<g><path style="opacity:1" fill="#f4f4f5" d="M 594.5,397.5 C 600.156,397.867 601.989,400.867 600,406.5C 597.321,409.172 594.988,408.838 593,405.5C 592.282,402.593 592.782,399.926 594.5,397.5 Z"/></g>
<g><path style="opacity:1" fill="#4d4d5c" d="M 704.5,393.5 C 705.496,393.414 706.329,393.748 707,394.5C 708.08,396.996 709.414,399.33 711,401.5C 712.697,399.301 714.197,396.968 715.5,394.5C 716.365,393.417 717.365,393.251 718.5,394C 714.657,398.853 712.324,404.353 711.5,410.5C 709.648,404.644 707.315,398.977 704.5,393.5 Z"/></g>
<g><path style="opacity:1" fill="#484757" d="M 614.5,395.5 C 616.924,395.192 619.257,395.526 621.5,396.5C 619.955,397.452 618.288,397.785 616.5,397.5C 616.5,398.5 616.5,399.5 616.5,400.5C 621.989,400.504 623.822,403.171 622,408.5C 619.293,410.886 616.46,411.052 613.5,409C 614,408.5 614.5,408 615,407.5C 619.833,409.333 621.333,407.833 619.5,403C 617.866,402.506 616.199,402.34 614.5,402.5C 614.5,400.167 614.5,397.833 614.5,395.5 Z"/></g>
<g><path style="opacity:1" fill="#525260" d="M 500.5,393.5 C 503.157,393.162 505.49,393.829 507.5,395.5C 505.657,395.755 503.657,395.922 501.5,396C 500.978,396.561 500.645,397.228 500.5,398C 502.881,399.946 505.381,401.779 508,403.5C 508.171,409.313 505.338,411.48 499.5,410C 498.692,409.692 498.025,409.192 497.5,408.5C 499.672,408.324 502.005,408.157 504.5,408C 505.059,407.275 505.392,406.442 505.5,405.5C 503.863,403.251 501.696,401.585 499,400.5C 498.167,397.829 498.667,395.496 500.5,393.5 Z"/></g>
<g><path style="opacity:1" fill="#4e4e5d" d="M 633.5,393.5 C 634.496,393.414 635.329,393.748 636,394.5C 637.53,398.09 638.864,401.757 640,405.5C 642.087,401.559 642.921,397.559 642.5,393.5C 644.828,396.822 646.661,400.489 648,404.5C 649.716,401.36 651.049,398.027 652,394.5C 652.893,393.289 653.726,393.289 654.5,394.5C 652.431,399.873 650.264,405.207 648,410.5C 646.924,407.352 645.591,404.352 644,401.5C 642.472,404.417 641.139,407.417 640,410.5C 637.532,404.927 635.365,399.26 633.5,393.5 Z"/></g>
</svg>
