<?xml version="1.0" encoding="UTF-8"?>
<!DOCTYPE svg PUBLIC "-//W3C//DTD SVG 1.1//EN" "http://www.w3.org/Graphics/SVG/1.1/DTD/svg11.dtd">
<svg xmlns="http://www.w3.org/2000/svg" version="1.1" width="860px" height="619px" style="shape-rendering:geometricPrecision; text-rendering:geometricPrecision; image-rendering:optimizeQuality; fill-rule:evenodd; clip-rule:evenodd" xmlns:xlink="http://www.w3.org/1999/xlink">
<g><path style="opacity:1" fill="#fefefe" d="M -0.5,-0.5 C 286.167,-0.5 572.833,-0.5 859.5,-0.5C 859.5,205.833 859.5,412.167 859.5,618.5C 572.833,618.5 286.167,618.5 -0.5,618.5C -0.5,412.167 -0.5,205.833 -0.5,-0.5 Z"/></g>
<g><path style="opacity:1" fill="#131313" d="M 513.5,67.5 C 524.699,68.9777 526.365,73.811 518.5,82C 514.328,82.8684 511.162,81.3684 509,77.5C 507.571,72.7833 509.071,69.45 513.5,67.5 Z"/></g>
<g><path style="opacity:1" fill="#080808" d="M 540.5,81.5 C 548.794,80.0363 552.294,83.3696 551,91.5C 546.667,96.8333 542.333,96.8333 538,91.5C 537.024,87.673 537.857,84.3396 540.5,81.5 Z"/></g>
<g><path style="opacity:1" fill="#121212" d="M 567.5,99.5 C 577.87,98.6788 580.87,102.845 576.5,112C 568.171,115.148 564.338,112.315 565,103.5C 565.662,102.016 566.496,100.683 567.5,99.5 Z"/></g>
<g><path style="opacity:1" fill="#545454" d="M 619.5,152.5 C 618.206,151.71 617.039,150.71 616,149.5C 615.601,149.728 615.435,150.062 615.5,150.5C 613.184,147.905 610.851,145.239 608.5,142.5C 609.365,141.417 610.365,141.251 611.5,142C 614.548,145.29 617.215,148.79 619.5,152.5 Z"/></g>
<g><path style="opacity:1" fill="#1a1a1a" d="M 619.5,152.5 C 630.564,165.607 639.897,179.94 647.5,195.5C 665.65,199.245 681.984,206.745 696.5,218C 710.698,231.64 715.864,248.14 712,267.5C 711.586,267.957 711.086,268.291 710.5,268.5C 709.947,258.064 706.113,249.064 699,241.5C 684.893,230.581 670.393,220.914 655.5,212.5C 660.797,223.761 664.964,235.428 668,247.5C 681.213,253.86 693.379,261.86 704.5,271.5C 719.88,288.021 724.046,307.021 717,328.5C 716.632,329.91 715.799,330.91 714.5,331.5C 715.816,317.946 711.983,305.946 703,295.5C 692.376,286.175 682.376,276.175 673,265.5C 674.692,277.728 676.025,290.062 677,302.5C 691.516,313.012 703.183,326.012 712,341.5C 718.682,358.311 717.682,374.645 709,390.5C 707.647,391.685 706.48,393.019 705.5,394.5C 705.167,393.833 704.833,393.167 704.5,392.5C 708.294,383.273 708.46,373.939 705,364.5C 702.603,359.373 699.936,354.373 697,349.5C 689.921,340.346 683.587,330.68 678,320.5C 676.816,333.186 675.816,345.853 675,358.5C 682.071,366.974 688.405,375.974 694,385.5C 704.504,405.923 703.837,425.923 692,445.5C 682.562,456.795 680.896,456.128 687,443.5C 688.288,436.563 688.788,429.563 688.5,422.5C 688.59,419.848 687.924,417.515 686.5,415.5C 681.108,402.325 676.108,388.991 671.5,375.5C 671.776,386.843 671.276,398.177 670,409.5C 665.684,424.821 656.517,436.321 642.5,444C 631.343,449.409 620.676,455.576 610.5,462.5C 609.28,462.113 608.613,461.28 608.5,460C 619.317,440.835 632.817,423.668 649,408.5C 659.098,397.304 665.765,384.304 669,369.5C 671.323,358.251 672.656,346.918 673,335.5C 669.869,339.633 666.369,343.466 662.5,347C 643.292,357.707 626.292,371.207 611.5,387.5C 611.19,365.311 621.19,349.477 641.5,340C 649.45,337.761 657.117,334.761 664.5,331C 671.757,325.653 675.09,318.486 674.5,309.5C 674.25,299.73 673.25,290.064 671.5,280.5C 669.509,285.151 667.009,289.484 664,293.5C 647.717,308.107 634.05,324.774 623,343.5C 617.563,325.83 622.063,309.997 636.5,296C 645.421,289.956 654.254,283.79 663,277.5C 668.496,269.874 669.83,261.541 667,252.5C 664.728,243.623 661.894,234.956 658.5,226.5C 657.682,229.107 657.182,231.774 657,234.5C 649.585,247.665 641.919,260.665 634,273.5C 629.874,281.88 626.541,290.547 624,299.5C 623.333,300.833 622.667,300.833 622,299.5C 614.167,280.173 616.833,262.506 630,246.5C 636.054,240.446 642.054,234.446 648,228.5C 651.701,221.092 652.367,213.425 650,205.5C 640.49,185.791 628.99,167.458 615.5,150.5C 615.435,150.062 615.601,149.728 616,149.5C 617.039,150.71 618.206,151.71 619.5,152.5 Z"/></g>
<g><path style="opacity:1" fill="#e2e2e2" d="M 654.5,229.5 C 655.124,229.917 655.457,230.584 655.5,231.5C 654.67,233.828 653.837,236.162 653,238.5C 646.585,249.666 639.918,260.666 633,271.5C 629.748,277.589 627.082,283.922 625,290.5C 625.216,280.512 627.883,271.178 633,262.5C 638.091,255.32 643.424,248.32 649,241.5C 651.119,237.598 652.952,233.598 654.5,229.5 Z"/></g>
<g><path style="opacity:1" fill="#e8e8e8" d="M 651.5,228.5 C 652.043,228.56 652.376,228.893 652.5,229.5C 647.322,239.195 641.155,248.195 634,256.5C 631.333,261.167 628.667,265.833 626,270.5C 624.201,275.363 622.867,280.363 622,285.5C 620.244,275.215 621.911,265.548 627,256.5C 635.003,246.999 643.17,237.666 651.5,228.5 Z"/></g>
<g><path style="opacity:1" fill="#6c6c6c" d="M 693.5,226.5 C 697.833,228.833 701.167,232.167 703.5,236.5C 699.833,233.5 696.5,230.167 693.5,226.5 Z"/></g>
<g><path style="opacity:1" fill="#ebebeb" d="M 703.5,236.5 C 701.167,232.167 697.833,228.833 693.5,226.5C 682.086,217.614 670.086,209.448 657.5,202C 674.772,205.057 689.272,213.224 701,226.5C 704.828,232.142 707.495,238.142 709,244.5C 707.694,241.379 705.86,238.713 703.5,236.5 Z"/></g>
<g><path style="opacity:1" fill="#e3e3e3" d="M 650.5,200.5 C 664.266,209.084 677.933,217.917 691.5,227C 696.367,231.532 700.867,236.366 705,241.5C 706.301,243.402 706.968,245.402 707,247.5C 703.88,242.046 699.713,237.546 694.5,234C 683.167,226.667 671.833,219.333 660.5,212C 656.561,208.571 653.228,204.737 650.5,200.5 Z"/></g>
<g><path style="opacity:1" fill="#6b635e" d="M 510.5,248.5 C 505.968,248.182 501.634,248.515 497.5,249.5C 496.957,249.44 496.624,249.107 496.5,248.5C 501.318,247.188 505.985,247.188 510.5,248.5 Z"/></g>
<g><path style="opacity:1" fill="#130e10" d="M 343.5,275.5 C 343.565,278.428 344.232,281.095 345.5,283.5C 351.182,304.924 346.848,324.091 332.5,341C 325.414,347.042 317.414,351.209 308.5,353.5C 288.898,355.346 269.232,356.013 249.5,355.5C 248.502,319.671 248.168,283.671 248.5,247.5C 265.503,247.333 282.503,247.5 299.5,248C 315.409,248.409 328.575,254.576 339,266.5C 341.038,269.243 342.538,272.243 343.5,275.5 Z"/></g>
<g><path style="opacity:1" fill="#0c070a" d="M 393.5,247.5 C 393.333,274.169 393.5,300.835 394,327.5C 394.204,330.797 395.037,333.797 396.5,336.5C 403.264,351.553 414.931,357.719 431.5,355C 440.948,353.946 448.615,349.779 454.5,342.5C 455.906,342.027 456.573,341.027 456.5,339.5C 458.312,334.285 459.812,328.951 461,323.5C 461.167,298.16 461.667,272.827 462.5,247.5C 462.833,260.833 463.167,274.167 463.5,287.5C 463.625,302.543 463.125,317.543 462,332.5C 456.979,349.68 445.479,358.347 427.5,358.5C 421.137,358.593 414.804,358.26 408.5,357.5C 397.08,355.076 389.414,348.41 385.5,337.5C 385.279,334.933 384.612,332.599 383.5,330.5C 382.502,303.005 382.169,275.338 382.5,247.5C 386.167,247.5 389.833,247.5 393.5,247.5 Z"/></g>
<g><path style="opacity:1" fill="#0b080f" d="M 510.5,248.5 C 520.978,265.444 530.978,282.777 540.5,300.5C 540.957,301.298 541.624,301.631 542.5,301.5C 543.167,301.167 543.833,300.833 544.5,300.5C 544.5,301.167 544.5,301.833 544.5,302.5C 543.514,320.09 543.181,337.757 543.5,355.5C 539.5,355.5 535.5,355.5 531.5,355.5C 531.83,339.325 531.496,323.325 530.5,307.5C 530.573,305.973 529.906,304.973 528.5,304.5C 528.34,302.847 527.674,301.514 526.5,300.5C 526.573,298.973 525.906,297.973 524.5,297.5C 524.34,295.847 523.674,294.514 522.5,293.5C 522.573,291.973 521.906,290.973 520.5,290.5C 517.67,284.17 514.337,278.17 510.5,272.5C 510.573,270.973 509.906,269.973 508.5,269.5C 505.353,262.539 501.687,255.873 497.5,249.5C 501.634,248.515 505.968,248.182 510.5,248.5 Z"/></g>
<g><path style="opacity:1" fill="#fdfdfd" d="M 334.5,289.5 C 334.61,298.854 334.277,308.188 333.5,317.5C 332.076,319.515 331.41,321.848 331.5,324.5C 325.115,340.22 313.448,349.553 296.5,352.5C 284.518,353.499 272.518,353.832 260.5,353.5C 260.5,319.167 260.5,284.833 260.5,250.5C 272.505,250.333 284.505,250.5 296.5,251C 318.8,254.466 331.467,267.299 334.5,289.5 Z"/></g>
<g><path style="opacity:1" fill="#e1e1e1" d="M 670.5,253.5 C 682.828,264.994 694.661,276.994 706,289.5C 710.675,295.508 713.675,302.175 715,309.5C 712.489,303.655 709.156,298.322 705,293.5C 694.333,284.167 684.333,274.167 675,263.5C 672.78,260.46 671.28,257.127 670.5,253.5 Z"/></g>
<g><path style="opacity:1" fill="#e5e5e5" d="M 675.5,253.5 C 686.107,259.728 695.94,267.061 705,275.5C 712.667,284.83 717,295.497 718,307.5C 715.207,300.041 711.54,293.041 707,286.5C 696.64,276.14 686.306,265.806 676,255.5C 675.536,254.906 675.369,254.239 675.5,253.5 Z"/></g>
<g><path style="opacity:1" fill="#a7733c" d="M 566.5,261.5 C 566.573,263.027 565.906,264.027 564.5,264.5C 564.427,262.973 565.094,261.973 566.5,261.5 Z"/></g>
<g><path style="opacity:1" fill="#797979" d="M 109.5,256.5 C 109.259,258.886 109.925,260.886 111.5,262.5C 110.833,262.5 110.5,262.833 110.5,263.5C 109.883,263.389 109.383,263.056 109,262.5C 108.501,267.823 108.334,273.156 108.5,278.5C 107.836,275.854 107.502,273.021 107.5,270C 107.366,265.242 108.032,260.742 109.5,256.5 Z"/></g>
<g><path style="opacity:1" fill="#ad7238" d="M 563.5,266.5 C 563.573,268.027 562.906,269.027 561.5,269.5C 561.427,267.973 562.094,266.973 563.5,266.5 Z"/></g>
<g><path style="opacity:1" fill="#cc8b48" d="M 508.5,269.5 C 509.906,269.973 510.573,270.973 510.5,272.5C 509.094,272.027 508.427,271.027 508.5,269.5 Z"/></g>
<g><path style="opacity:1" fill="#173b7b" d="M 343.5,275.5 C 345.04,277.838 345.706,280.505 345.5,283.5C 344.232,281.095 343.565,278.428 343.5,275.5 Z"/></g>
<g><path style="opacity:1" fill="#e8e8e8" d="M 664.5,280.5 C 665.525,280.897 665.692,281.563 665,282.5C 654.441,293.081 643.774,303.414 633,313.5C 629.201,318.765 626.201,324.432 624,330.5C 624.392,315.411 630.892,303.577 643.5,295C 650.954,290.694 657.954,285.86 664.5,280.5 Z"/></g>
<g><path style="opacity:1" fill="#261922" d="M 544.5,302.5 C 544.5,301.833 544.5,301.167 544.5,300.5C 544.5,299.833 544.5,299.167 544.5,298.5C 544.328,297.508 544.662,296.842 545.5,296.5C 546.906,296.027 547.573,295.027 547.5,293.5C 551.776,285.236 556.442,277.236 561.5,269.5C 562.906,269.027 563.573,268.027 563.5,266.5C 564.338,266.158 564.672,265.492 564.5,264.5C 565.906,264.027 566.573,263.027 566.5,261.5C 568.811,257.66 570.977,253.66 573,249.5C 574.957,246.981 576.291,246.981 577,249.5C 565.907,267.074 555.073,284.741 544.5,302.5 Z"/></g>
<g><path style="opacity:1" fill="#e1e1e1" d="M 668.5,280.5 C 669.043,280.56 669.376,280.893 669.5,281.5C 668.253,284.329 666.753,286.995 665,289.5C 657.364,298.137 649.364,306.47 641,314.5C 635.615,320.884 630.615,327.55 626,334.5C 627.522,328.111 630.189,322.111 634,316.5C 643.31,306.858 652.976,297.525 663,288.5C 665.054,285.953 666.887,283.286 668.5,280.5 Z"/></g>
<g><path style="opacity:1" fill="#cc8e59" d="M 520.5,290.5 C 521.906,290.973 522.573,291.973 522.5,293.5C 521.094,293.027 520.427,292.027 520.5,290.5 Z"/></g>
<g><path style="opacity:1" fill="#c47429" d="M 334.5,289.5 C 335.165,292.984 335.499,296.651 335.5,300.5C 335.651,306.409 334.984,312.075 333.5,317.5C 334.277,308.188 334.61,298.854 334.5,289.5 Z"/></g>
<g><path style="opacity:1" fill="#965e2b" d="M 547.5,293.5 C 547.573,295.027 546.906,296.027 545.5,296.5C 545.427,294.973 546.094,293.973 547.5,293.5 Z"/></g>
<g><path style="opacity:1" fill="#d39451" d="M 524.5,297.5 C 525.906,297.973 526.573,298.973 526.5,300.5C 525.094,300.027 524.427,299.027 524.5,297.5 Z"/></g>
<g><path style="opacity:1" fill="#a4642a" d="M 544.5,298.5 C 544.5,299.167 544.5,299.833 544.5,300.5C 543.833,300.833 543.167,301.167 542.5,301.5C 542.427,299.973 543.094,298.973 544.5,298.5 Z"/></g>
<g><path style="opacity:1" fill="#d69f59" d="M 528.5,304.5 C 529.906,304.973 530.573,305.973 530.5,307.5C 529.094,307.027 528.427,306.027 528.5,304.5 Z"/></g>
<g><path style="opacity:1" fill="#e8e8e8" d="M 677.5,308.5 C 689.023,323.884 699.189,340.218 708,357.5C 709.487,362.431 710.154,367.431 710,372.5C 708.595,366.618 706.595,360.951 704,355.5C 696.085,344.004 688.418,332.338 681,320.5C 679.537,316.577 678.37,312.577 677.5,308.5 Z"/></g>
<g><path style="opacity:1" fill="#ebebeb" d="M 713.5,358.5 C 713.817,362.702 713.483,366.702 712.5,370.5C 712.762,363.45 711.262,356.783 708,350.5C 700.364,338.033 692.531,325.7 684.5,313.5C 685.002,312.479 685.668,312.312 686.5,313C 697.002,322.156 705.168,332.989 711,345.5C 712.265,349.754 713.098,354.088 713.5,358.5 Z"/></g>
<g><path style="opacity:1" fill="#914c1b" d="M 333.5,317.5 C 333.59,320.152 332.924,322.485 331.5,324.5C 331.41,321.848 332.076,319.515 333.5,317.5 Z"/></g>
<g><path style="opacity:1" fill="#306ab1" d="M 393.5,247.5 C 394.332,273.663 394.832,299.997 395,326.5C 395.61,329.827 396.11,333.161 396.5,336.5C 395.037,333.797 394.204,330.797 394,327.5C 393.5,300.835 393.333,274.169 393.5,247.5 Z"/></g>
<g><path style="opacity:1" fill="#191919" d="M 194.5,350.5 C 195.925,348.969 196.591,349.302 196.5,351.5C 190.823,364.682 183.656,377.016 175,388.5C 171.527,393.753 169.527,399.419 169,405.5C 170.984,401.531 172.984,397.531 175,393.5C 184.946,382.612 192.613,370.279 198,356.5C 199.219,352.191 199.886,347.857 200,343.5C 198.991,345.025 198.491,346.692 198.5,348.5C 197.167,348.5 196.5,347.833 196.5,346.5C 197.099,342.345 198.265,338.345 200,334.5C 201.156,333.007 201.99,333.174 202.5,335C 208.745,352.616 206.579,369.116 196,384.5C 188.691,391.478 181.691,398.811 175,406.5C 172.586,412.612 171.919,418.946 173,425.5C 182.486,445.821 193.986,464.821 207.5,482.5C 205.833,481.167 204.167,479.833 202.5,478.5C 192.531,466.591 184.031,453.591 177,439.5C 175.67,438.418 174.17,437.751 172.5,437.5C 169.916,435.581 170.25,433.914 173.5,432.5C 173.043,431.702 172.376,431.369 171.5,431.5C 169.107,427.598 166.107,424.098 162.5,421C 151.5,414 140.5,407 129.5,400C 125.298,396.133 121.465,391.967 118,387.5C 119.154,390.873 120.654,394.207 122.5,397.5C 121.167,396.5 119.833,395.5 118.5,394.5C 117.781,392.683 116.781,392.016 115.5,392.5C 125.415,414.793 142.415,427.96 166.5,432C 154.46,424.652 142.793,416.819 131.5,408.5C 131.328,407.508 131.662,406.842 132.5,406.5C 144.824,415.33 157.491,423.664 170.5,431.5C 170.475,434.179 169.142,435.512 166.5,435.5C 148.734,431.755 133.901,423.088 122,409.5C 111.754,396.783 108.421,382.45 112,366.5C 114.849,378.865 121.682,389.699 132.5,399C 144.888,406.691 156.888,414.191 168.5,421.5C 163.203,410.239 159.036,398.572 156,386.5C 141.029,379.532 127.695,370.199 116,358.5C 104.946,343.85 101.279,327.517 105,309.5C 106.015,306.79 107.515,304.457 109.5,302.5C 108.54,316.451 112.706,328.784 122,339.5C 129.697,347.531 137.697,355.198 146,362.5C 148,365.167 150,367.833 152,370.5C 150.261,357.592 148.595,344.592 147,331.5C 132.815,321.319 121.482,308.652 113,293.5C 110.779,288.675 109.279,283.675 108.5,278.5C 108.334,273.156 108.501,267.823 109,262.5C 109.383,263.056 109.883,263.389 110.5,263.5C 109.543,277.223 112.71,289.889 120,301.5C 126.322,309.331 133.155,315.997 140.5,321.5C 130.141,307.455 121.307,292.455 114,276.5C 113.023,274.26 112.523,271.927 112.5,269.5C 112.131,267.007 112.797,266.34 114.5,267.5C 115.557,274.17 117.724,280.503 121,286.5C 129.084,299.67 137.417,312.67 146,325.5C 145.951,321.028 144.951,316.694 143,312.5C 135.333,300.833 127.667,289.167 120,277.5C 117.628,273.095 116.128,268.428 115.5,263.5C 114.198,255.726 113.364,256.06 113,264.5C 112.617,263.944 112.117,263.611 111.5,263.5C 111.5,263.167 111.5,262.833 111.5,262.5C 109.925,260.886 109.259,258.886 109.5,256.5C 110.935,250.964 113.435,245.964 117,241.5C 118.183,240.269 119.349,240.269 120.5,241.5C 118.073,245.265 117.073,249.432 117.5,254C 117.522,259.63 118.355,265.13 120,270.5C 128.247,284.662 136.747,298.662 145.5,312.5C 145.461,313.756 145.961,314.756 147,315.5C 147.499,310.845 147.666,306.179 147.5,301.5C 148.408,292.839 148.908,284.172 149,275.5C 138.689,263.215 130.689,249.548 125,234.5C 120.796,216.52 124.129,200.187 135,185.5C 137.156,182.843 139.656,181.51 142.5,181.5C 135.976,189.79 133.809,199.123 136,209.5C 137.462,215.553 139.129,221.553 141,227.5C 145.984,237.452 149.984,247.785 153,258.5C 154.022,256.298 154.522,253.965 154.5,251.5C 149.348,226.763 157.015,207.263 177.5,193C 189.764,186.286 201.93,179.453 214,172.5C 214.5,172.833 215,173.167 215.5,173.5C 210.497,182.176 204.997,190.51 199,198.5C 188.695,210.141 178.362,221.808 168,233.5C 163.811,239.877 160.145,246.544 157,253.5C 153.472,267.996 151.472,282.662 151,297.5C 153.463,294.035 156.296,290.869 159.5,288C 171.776,280.056 183.776,271.723 195.5,263C 201.042,257.625 206.376,252.125 211.5,246.5C 212.427,266.475 204.093,281.309 186.5,291C 177.396,294.384 168.396,298.051 159.5,302C 152.231,307.37 148.898,314.536 149.5,323.5C 149.951,333.533 150.785,343.533 152,353.5C 154.214,348.079 157.214,343.079 161,338.5C 176.622,324.391 189.789,308.391 200.5,290.5C 201.325,289.614 202.325,289.281 203.5,289.5C 206.094,309.225 200.094,325.725 185.5,339C 179.434,343.395 173.1,347.395 166.5,351C 155.629,359.649 152.795,370.482 158,383.5C 159.734,391.035 162.067,398.368 165,405.5C 166.545,400.319 168.545,395.319 171,390.5C 180.133,377.897 187.966,364.563 194.5,350.5 Z"/></g>
<g><path style="opacity:1" fill="#e8e8e8" d="M 199.5,305.5 C 200.595,308.717 200.429,312.05 199,315.5C 195.847,324.663 190.347,332.163 182.5,338C 174.725,342.776 167.225,347.943 160,353.5C 160.747,351.024 162.081,348.691 164,346.5C 172.857,338.733 181.523,330.733 190,322.5C 193.824,317.182 196.991,311.516 199.5,305.5 Z"/></g>
<g><path style="opacity:1" fill="#a2a2a2" d="M 147.5,301.5 C 147.666,306.179 147.499,310.845 147,315.5C 145.961,314.756 145.461,313.756 145.5,312.5C 146.167,308.833 146.833,305.167 147.5,301.5 Z"/></g>
<g><path style="opacity:1" fill="#e2e2e2" d="M 197.5,300.5 C 198.573,301.251 198.74,302.251 198,303.5C 195.507,309.157 192.507,314.49 189,319.5C 179.69,329.142 170.024,338.475 160,347.5C 158.667,349.5 157.333,351.5 156,353.5C 155.333,352.5 155.333,351.5 156,350.5C 157.667,347.833 159.333,345.167 161,342.5C 174.827,329.777 186.994,315.777 197.5,300.5 Z"/></g>
<g><path style="opacity:1" fill="#e7e7e7" d="M 115.5,263.5 C 116.128,268.428 117.628,273.095 120,277.5C 127.667,289.167 135.333,300.833 143,312.5C 144.951,316.694 145.951,321.028 146,325.5C 137.417,312.67 129.084,299.67 121,286.5C 117.724,280.503 115.557,274.17 114.5,267.5C 114.232,265.901 114.566,264.568 115.5,263.5 Z"/></g>
<g><path style="opacity:1" fill="#ececec" d="M 111.5,262.5 C 111.5,262.833 111.5,263.167 111.5,263.5C 111.205,265.735 111.539,267.735 112.5,269.5C 112.523,271.927 113.023,274.26 114,276.5C 121.307,292.455 130.141,307.455 140.5,321.5C 133.155,315.997 126.322,309.331 120,301.5C 112.71,289.889 109.543,277.223 110.5,263.5C 110.5,262.833 110.833,262.5 111.5,262.5 Z"/></g>
<g><path style="opacity:1" fill="#eaeaea" d="M 207.5,260.5 C 204.04,275.062 195.04,285.229 180.5,291C 173.659,294.119 166.659,296.453 159.5,298C 169.672,290.602 180.339,283.935 191.5,278C 198.09,273.247 203.423,267.413 207.5,260.5 Z"/></g>
<g><path style="opacity:1" fill="#606060" d="M 115.5,263.5 C 114.566,264.568 114.232,265.901 114.5,267.5C 112.797,266.34 112.131,267.007 112.5,269.5C 111.539,267.735 111.205,265.735 111.5,263.5C 112.117,263.611 112.617,263.944 113,264.5C 113.364,256.06 114.198,255.726 115.5,263.5 Z"/></g>
<g><path style="opacity:1" fill="#e4e4e4" d="M 206.5,255.5 C 207.043,255.56 207.376,255.893 207.5,256.5C 197.662,270.83 184.662,281.33 168.5,288C 163.714,291.118 159.214,294.618 155,298.5C 154.333,297.833 154.333,297.167 155,296.5C 157.833,293.667 160.667,290.833 163.5,288C 179.336,279.09 193.67,268.256 206.5,255.5 Z"/></g>
<g><path style="opacity:1" fill="#8b8b8b" d="M 156.5,230.5 C 156.205,232.735 156.539,234.735 157.5,236.5C 157.509,238.308 157.009,239.975 156,241.5C 155.19,237.642 155.357,233.976 156.5,230.5 Z"/></g>
<g><path style="opacity:1" fill="#e6e6e6" d="M 131.5,225.5 C 136.106,239.683 140.94,253.683 146,267.5C 137.518,256.671 131.184,244.671 127,231.5C 124.677,222.358 125.011,213.358 128,204.5C 128.324,211.776 129.49,218.776 131.5,225.5 Z"/></g>
<g><path style="opacity:1" fill="#e5e5e5" d="M 131.5,201.5 C 132.167,204.167 132.833,206.833 133.5,209.5C 134.191,214.598 135.358,219.598 137,224.5C 141.725,235.342 146.059,246.342 150,257.5C 150.667,261.167 150.667,264.833 150,268.5C 144.111,254.721 138.778,240.721 134,226.5C 133.329,225.748 132.496,225.414 131.5,225.5C 131.912,217.589 131.912,209.589 131.5,201.5 Z"/></g>
<g><path style="opacity:1" fill="#565656" d="M 133.5,209.5 C 132.833,206.833 132.167,204.167 131.5,201.5C 131.491,199.692 131.991,198.025 133,196.5C 133.499,200.821 133.666,205.154 133.5,209.5 Z"/></g>
<g><path style="opacity:1" fill="#ededed" d="M 203.5,184.5 C 204.239,184.369 204.906,184.536 205.5,185C 194.83,199.151 183.33,212.651 171,225.5C 166.943,230.558 163.276,235.892 160,241.5C 160.799,232.224 164.132,223.891 170,216.5C 173.799,211.699 177.966,207.199 182.5,203C 189.99,197.34 196.99,191.173 203.5,184.5 Z"/></g>
<g><path style="opacity:1" fill="#ececec" d="M 157.5,236.5 C 156.539,234.735 156.205,232.735 156.5,230.5C 157.057,221.996 159.89,214.329 165,207.5C 175.728,196.405 188.228,188.238 202.5,183C 190.05,192.45 178.55,202.95 168,214.5C 162.902,221.09 159.402,228.423 157.5,236.5 Z"/></g>
<g><path style="opacity:1" fill="#e6e6e6" d="M 106.5,327.5 C 109.938,335.696 114.438,343.363 120,350.5C 129.5,360 139,369.5 148.5,379C 129.93,371.92 116.763,359.086 109,340.5C 107.847,336.213 107.013,331.879 106.5,327.5 Z"/></g>
<g><path style="opacity:1" fill="#b47039" d="M 383.5,330.5 C 384.612,332.599 385.279,334.933 385.5,337.5C 383.837,335.562 383.171,333.228 383.5,330.5 Z"/></g>
<g><path style="opacity:1" fill="#e8e8e8" d="M 664.5,334.5 C 665.239,334.369 665.906,334.536 666.5,335C 665.5,336 664.5,337 663.5,338C 652.301,344.429 641.301,351.095 630.5,358C 625.633,362.532 621.133,367.366 617,372.5C 621.187,358.303 630.354,348.47 644.5,343C 651.519,340.76 658.185,337.927 664.5,334.5 Z"/></g>
<g><path style="opacity:1" fill="#ececec" d="M 109.5,325.5 C 113.36,332.209 117.86,338.542 123,344.5C 134.41,353.908 144.41,364.575 153,376.5C 153.667,377.5 153.667,378.5 153,379.5C 141.946,368.446 130.946,357.446 120,346.5C 114.902,340.304 111.402,333.304 109.5,325.5 Z"/></g>
<g><path style="opacity:1" fill="#a76a36" d="M 456.5,339.5 C 456.573,341.027 455.906,342.027 454.5,342.5C 454.427,340.973 455.094,339.973 456.5,339.5 Z"/></g>
<g><path style="opacity:1" fill="#e4e4e4" d="M 668.5,336.5 C 669.525,336.897 669.692,337.563 669,338.5C 666.833,340.667 664.667,342.833 662.5,345C 646.502,354.586 631.669,365.753 618,378.5C 618.327,375.458 619.66,372.791 622,370.5C 633.66,358.417 647.16,348.917 662.5,342C 664.763,340.383 666.763,338.55 668.5,336.5 Z"/></g>
<g><path style="opacity:1" fill="#6b6b6b" d="M 196.5,346.5 C 196.5,347.833 197.167,348.5 198.5,348.5C 198.068,349.71 197.401,350.71 196.5,351.5C 196.591,349.302 195.925,348.969 194.5,350.5C 194.66,348.847 195.326,347.514 196.5,346.5 Z"/></g>
<g><path style="opacity:1" fill="#e1e1e1" d="M 196.5,351.5 C 197.401,350.71 198.068,349.71 198.5,348.5C 198.491,346.692 198.991,345.025 200,343.5C 199.886,347.857 199.219,352.191 198,356.5C 192.613,370.279 184.946,382.612 175,393.5C 172.984,397.531 170.984,401.531 169,405.5C 169.527,399.419 171.527,393.753 175,388.5C 183.656,377.016 190.823,364.682 196.5,351.5 Z"/></g>
<g><path style="opacity:1" fill="#e3e3e3" d="M 202.5,348.5 C 204.163,358.983 202.33,368.983 197,378.5C 189.009,388.157 180.676,397.49 172,406.5C 176.216,396.231 182.216,386.898 190,378.5C 196.223,369.324 200.39,359.324 202.5,348.5 Z"/></g>
<g><path style="opacity:1" fill="#aaacae" d="M 308.5,353.5 C 305.466,355.018 302.133,355.851 298.5,356C 281.995,356.828 265.661,356.662 249.5,355.5C 269.232,356.013 288.898,355.346 308.5,353.5 Z"/></g>
<g><path style="opacity:1" fill="#797774" d="M 408.5,357.5 C 414.804,358.26 421.137,358.593 427.5,358.5C 425.19,359.164 422.69,359.497 420,359.5C 415.888,359.651 412.054,358.984 408.5,357.5 Z"/></g>
<g><path style="opacity:1" fill="#828282" d="M 713.5,358.5 C 714.647,362.646 714.814,366.98 714,371.5C 712.893,372.712 712.393,372.379 712.5,370.5C 713.483,366.702 713.817,362.702 713.5,358.5 Z"/></g>
<g><path style="opacity:1" fill="#e2e2e2" d="M 673.5,364.5 C 680.086,378.701 685.919,393.367 691,408.5C 693.514,416.795 693.847,425.128 692,433.5C 691.667,429.167 691.333,424.833 691,420.5C 687.13,408.23 682.464,396.23 677,384.5C 674.861,378 673.695,371.334 673.5,364.5 Z"/></g>
<g><path style="opacity:1" fill="#e9e9e9" d="M 678.5,367.5 C 686.465,377.004 692.632,387.67 697,399.5C 699.179,410.274 698.845,420.94 696,431.5C 695.643,423.805 694.976,416.138 694,408.5C 688.82,394.812 683.653,381.146 678.5,367.5 Z"/></g>
<g><path style="opacity:1" fill="#e5e5e5" d="M 171.5,431.5 C 171.167,431.5 170.833,431.5 170.5,431.5C 157.491,423.664 144.824,415.33 132.5,406.5C 129.192,403.529 125.859,400.529 122.5,397.5C 120.654,394.207 119.154,390.873 118,387.5C 121.465,391.967 125.298,396.133 129.5,400C 140.5,407 151.5,414 162.5,421C 166.107,424.098 169.107,427.598 171.5,431.5 Z"/></g>
<g><path style="opacity:1" fill="#ebebeb" d="M 118.5,394.5 C 121.639,400.245 125.972,404.911 131.5,408.5C 142.793,416.819 154.46,424.652 166.5,432C 142.415,427.96 125.415,414.793 115.5,392.5C 116.781,392.016 117.781,392.683 118.5,394.5 Z"/></g>
<g><path style="opacity:1" fill="#ebebeb" d="M 664.5,391.5 C 665.208,395.102 664.708,398.769 663,402.5C 658.391,412.439 652.225,421.272 644.5,429C 636.687,435.312 629.02,441.812 621.5,448.5C 620.479,447.998 620.312,447.332 621,446.5C 630.211,433.616 640.545,421.616 652,410.5C 657.182,404.794 661.348,398.461 664.5,391.5 Z"/></g>
<g><path style="opacity:1" fill="#eaeaea" d="M 667.5,392.5 C 669.675,405.797 666.508,417.797 658,428.5C 647.584,438.446 635.751,445.946 622.5,451C 633.847,441.741 644.681,431.908 655,421.5C 661.786,412.981 665.952,403.315 667.5,392.5 Z"/></g>
<g><path style="opacity:1" fill="#525252" d="M 118.5,394.5 C 119.833,395.5 121.167,396.5 122.5,397.5C 125.859,400.529 129.192,403.529 132.5,406.5C 131.662,406.842 131.328,407.508 131.5,408.5C 125.972,404.911 121.639,400.245 118.5,394.5 Z"/></g>
<g><path style="opacity:1" fill="#000000" d="M 295.5,413.5 C 296.833,413.5 298.167,413.5 299.5,413.5C 299.5,426.833 299.5,440.167 299.5,453.5C 298.167,453.5 296.833,453.5 295.5,453.5C 295.5,440.167 295.5,426.833 295.5,413.5 Z"/></g>
<g><path style="opacity:1" fill="#0b0b0b" d="M 476.5,413.5 C 477.833,413.5 479.167,413.5 480.5,413.5C 480.334,420.841 480.5,428.174 481,435.5C 485.344,430.564 490.01,430.231 495,434.5C 495.5,440.825 495.666,447.158 495.5,453.5C 494.167,453.5 492.833,453.5 491.5,453.5C 491.829,447.794 491.495,442.128 490.5,436.5C 486.474,434.674 483.307,435.674 481,439.5C 480.501,444.155 480.334,448.821 480.5,453.5C 479.167,453.5 477.833,453.5 476.5,453.5C 476.5,440.167 476.5,426.833 476.5,413.5 Z"/></g>
<g><path style="opacity:1" fill="#000000" d="M 397.5,415.5 C 404.5,415.5 411.5,415.5 418.5,415.5C 418.5,417.167 418.5,418.833 418.5,420.5C 412.833,420.5 407.167,420.5 401.5,420.5C 401.5,424.5 401.5,428.5 401.5,432.5C 406.5,432.5 411.5,432.5 416.5,432.5C 416.5,434.167 416.5,435.833 416.5,437.5C 411.5,437.5 406.5,437.5 401.5,437.5C 401.5,442.833 401.5,448.167 401.5,453.5C 400.167,453.5 398.833,453.5 397.5,453.5C 397.5,440.833 397.5,428.167 397.5,415.5 Z"/></g>
<g><path style="opacity:1" fill="#151515" d="M 272.5,415.5 C 279.155,427.421 284.488,440.088 288.5,453.5C 286.712,453.785 285.045,453.452 283.5,452.5C 282.727,449.569 281.727,446.736 280.5,444C 275.5,443.333 270.5,443.333 265.5,444C 263.777,446.943 262.777,450.11 262.5,453.5C 260.712,453.785 259.045,453.452 257.5,452.5C 262.702,440.223 267.702,427.89 272.5,415.5 Z"/></g>
<g><path style="opacity:1" fill="#8b8b8b" d="M 686.5,415.5 C 687.924,417.515 688.59,419.848 688.5,422.5C 687.076,420.485 686.41,418.152 686.5,415.5 Z"/></g>
<g><path style="opacity:1" fill="#1f1f1f" d="M 505.5,421.5 C 509.161,421.35 510.161,422.85 508.5,426C 504.707,426.487 503.707,424.987 505.5,421.5 Z"/></g>
<g><path style="opacity:1" fill="#e3e3e3" d="M 272.5,425.5 C 274.642,429.657 276.642,433.991 278.5,438.5C 274.833,439.833 271.167,439.833 267.5,438.5C 269.37,434.221 271.036,429.888 272.5,425.5 Z"/></g>
<g><path style="opacity:1" fill="#171717" d="M 362.5,430.5 C 366.401,429.857 369.734,430.857 372.5,433.5C 372.167,434.5 371.5,435.167 370.5,435.5C 368.298,434.22 366.132,434.22 364,435.5C 363.219,436.944 363.386,438.277 364.5,439.5C 368.929,440.191 371.929,442.525 373.5,446.5C 372.687,451.137 369.854,453.471 365,453.5C 362.068,453.289 359.901,451.956 358.5,449.5C 359.035,447.084 360.035,446.917 361.5,449C 363.5,449.667 365.5,449.667 367.5,449C 368.747,447.506 368.747,446.006 367.5,444.5C 357.816,442.315 356.15,437.648 362.5,430.5 Z"/></g>
<g><path style="opacity:1" fill="#161616" d="M 458.5,430.5 C 460.857,430.337 463.19,430.503 465.5,431C 468.817,432.085 469.151,433.585 466.5,435.5C 464.298,434.22 462.132,434.22 460,435.5C 459.333,436.5 459.333,437.5 460,438.5C 462.69,440.182 465.523,441.682 468.5,443C 470.441,449.42 467.941,452.92 461,453.5C 458.106,453.305 455.939,451.972 454.5,449.5C 454.808,448.692 455.308,448.025 456,447.5C 459.42,450.334 462.587,450.168 465.5,447C 465.355,446.228 465.022,445.561 464.5,445C 460.793,444.064 457.626,442.231 455,439.5C 454.333,437.833 454.333,436.167 455,434.5C 456.376,433.295 457.542,431.962 458.5,430.5 Z"/></g>
<g><path style="opacity:1" fill="#171717" d="M 305.5,432.5 C 307.223,431.193 309.057,431.193 311,432.5C 312.473,436.779 314.473,440.779 317,444.5C 318.667,440.5 320.333,436.5 322,432.5C 323.726,431.424 325.559,431.257 327.5,432C 323.961,438.913 320.294,445.746 316.5,452.5C 312.805,445.771 309.139,439.105 305.5,432.5 Z"/></g>
<g><path style="opacity:1" fill="#141414" d="M 339.5,431.5 C 347.181,430.81 351.515,434.144 352.5,441.5C 346.94,442.631 341.607,444.464 336.5,447C 339.776,449.702 343.443,450.202 347.5,448.5C 349.436,449.908 349.602,451.241 348,452.5C 335.772,455.602 330.439,450.935 332,438.5C 333.742,435.254 336.242,432.921 339.5,431.5 Z"/></g>
<g><path style="opacity:1" fill="#151515" d="M 431.5,431.5 C 435.774,431.257 439.441,432.591 442.5,435.5C 443.429,434.311 443.762,432.978 443.5,431.5C 444.833,431.5 446.167,431.5 447.5,431.5C 447.5,438.833 447.5,446.167 447.5,453.5C 446.167,453.5 444.833,453.5 443.5,453.5C 443.719,452.325 443.386,451.325 442.5,450.5C 429.255,456.436 423.422,452.103 425,437.5C 427.063,435.266 429.229,433.266 431.5,431.5 Z"/></g>
<g><path style="opacity:1" fill="#000000" d="M 504.5,431.5 C 505.833,431.5 507.167,431.5 508.5,431.5C 508.5,438.833 508.5,446.167 508.5,453.5C 507.167,453.5 505.833,453.5 504.5,453.5C 504.5,446.167 504.5,438.833 504.5,431.5 Z"/></g>
<g><path style="opacity:1" fill="#171717" d="M 523.5,431.5 C 536.379,431.613 540.546,437.613 536,449.5C 532.257,453.259 527.757,454.426 522.5,453C 515.951,450.221 513.784,445.388 516,438.5C 517.742,435.254 520.242,432.921 523.5,431.5 Z"/></g>
<g><path style="opacity:1" fill="#1e1e1e" d="M 544.5,431.5 C 545.833,431.5 547.167,431.5 548.5,431.5C 548.238,432.978 548.571,434.311 549.5,435.5C 554.373,430.22 559.206,430.22 564,435.5C 564.499,441.491 564.666,447.491 564.5,453.5C 562.833,453.5 561.167,453.5 559.5,453.5C 559.666,447.824 559.499,442.157 559,436.5C 555.475,434.81 552.475,435.476 550,438.5C 549.501,443.489 549.334,448.489 549.5,453.5C 547.833,453.5 546.167,453.5 544.5,453.5C 544.5,446.167 544.5,438.833 544.5,431.5 Z"/></g>
<g><path style="opacity:1" fill="#696969" d="M 170.5,431.5 C 170.833,431.5 171.167,431.5 171.5,431.5C 172.376,431.369 173.043,431.702 173.5,432.5C 170.25,433.914 169.916,435.581 172.5,437.5C 170.214,437.405 168.214,436.738 166.5,435.5C 169.142,435.512 170.475,434.179 170.5,431.5 Z"/></g>
<g><path style="opacity:1" fill="#ececec" d="M 339.5,435.5 C 343.281,434.789 346.281,435.955 348.5,439C 344.347,441.079 340.014,442.579 335.5,443.5C 335.278,439.944 336.611,437.277 339.5,435.5 Z"/></g>
<g><path style="opacity:1" fill="#f1f1f1" d="M 432.5,435.5 C 443.132,435.593 445.799,440.093 440.5,449C 432.008,451.163 428.175,447.996 429,439.5C 430.376,438.295 431.542,436.962 432.5,435.5 Z"/></g>
<g><path style="opacity:1" fill="#f3f3f3" d="M 523.5,435.5 C 531.885,434.716 535.051,438.383 533,446.5C 529.83,449.607 526.163,450.274 522,448.5C 518.287,443.589 518.787,439.256 523.5,435.5 Z"/></g>
<g><path style="opacity:1" fill="#454545" d="M 202.5,478.5 C 204.167,479.833 205.833,481.167 207.5,482.5C 210.738,484.573 213.071,487.406 214.5,491C 214.15,492.257 213.483,492.591 212.5,492C 208.539,487.886 205.206,483.386 202.5,478.5 Z"/></g>
<g><path style="opacity:1" fill="#171717" d="M 249.5,520.5 C 257.212,519.715 260.712,523.048 260,530.5C 255.965,535.364 251.632,535.698 247,531.5C 244.584,527.078 245.417,523.411 249.5,520.5 Z"/></g>
<g><path style="opacity:1" fill="#101010" d="M 276.5,538.5 C 282.629,537.555 286.296,540.055 287.5,546C 286.088,551.876 282.422,553.876 276.5,552C 271.248,547.506 271.248,543.006 276.5,538.5 Z"/></g>
<g><path style="opacity:1" fill="#0c0c0c" d="M 304.5,552.5 C 316.198,552.36 318.531,556.86 311.5,566C 303.667,566.869 300.5,563.369 302,555.5C 303.045,554.627 303.878,553.627 304.5,552.5 Z"/></g>
</svg>
