<?xml version="1.0" encoding="UTF-8"?>
<!DOCTYPE svg PUBLIC "-//W3C//DTD SVG 1.1//EN" "http://www.w3.org/Graphics/SVG/1.1/DTD/svg11.dtd">
<svg xmlns="http://www.w3.org/2000/svg" version="1.1" width="299px" height="217px" style="shape-rendering:geometricPrecision; text-rendering:geometricPrecision; image-rendering:optimizeQuality; fill-rule:evenodd; clip-rule:evenodd" xmlns:xlink="http://www.w3.org/1999/xlink">
<g><path style="opacity:1" fill="#fcfcfc" d="M -0.5,-0.5 C 99.1667,-0.5 198.833,-0.5 298.5,-0.5C 298.5,71.8333 298.5,144.167 298.5,216.5C 198.833,216.5 99.1667,216.5 -0.5,216.5C -0.5,144.167 -0.5,71.8333 -0.5,-0.5 Z"/></g>
<g><path style="opacity:1" fill="#465558" d="M 139.5,39.5 C 139.5,39.8333 139.5,40.1667 139.5,40.5C 139.94,42.2688 139.94,44.2688 139.5,46.5C 137.775,45.9851 136.108,45.3184 134.5,44.5C 135.428,43.2322 135.595,41.8989 135,40.5C 133.281,42.5571 131.281,44.2237 129,45.5C 127.541,45.1918 126.374,44.5251 125.5,43.5C 127.63,42.9681 129.63,42.1348 131.5,41C 128.178,40.9411 125.344,39.7744 123,37.5C 122.403,34.6931 123.403,32.6931 126,31.5C 128.39,32.172 128.89,33.5054 127.5,35.5C 126.914,35.2907 126.414,34.9574 126,34.5C 125.316,35.7839 125.483,36.9505 126.5,38C 133.379,40.633 134.712,39.133 130.5,33.5C 130.833,33.1667 131.167,32.8333 131.5,32.5C 133.232,34.2827 134.732,36.2827 136,38.5C 135.954,36.6874 136.12,35.0207 136.5,33.5C 138.046,34.684 139.713,35.684 141.5,36.5C 140.388,37.2652 139.721,38.2652 139.5,39.5 Z"/></g>
<g><path style="opacity:1" fill="#485657" d="M 227.5,34.5 C 229.225,34.8425 229.725,35.8425 229,37.5C 227.612,38.5536 226.112,38.7203 224.5,38C 226.056,37.2798 227.056,36.1132 227.5,34.5 Z"/></g>
<g><path style="opacity:1" fill="#405154" d="M 91.5,38.5 C 90.2921,39.2341 88.9587,39.5674 87.5,39.5C 87.2222,37.6536 87.8888,36.3202 89.5,35.5C 90.9185,36.0047 91.5852,37.0047 91.5,38.5 Z"/></g>
<g><path style="opacity:1" fill="#3c4d4e" d="M 213.5,35.5 C 214.5,35.5 215.5,35.5 216.5,35.5C 216.5,36.8333 216.5,38.1667 216.5,39.5C 215.5,39.5 214.5,39.5 213.5,39.5C 213.5,38.1667 213.5,36.8333 213.5,35.5 Z"/></g>
<g><path style="opacity:1" fill="#5e696c" d="M 81.5,37.5 C 82.1834,35.8235 83.5168,35.1568 85.5,35.5C 85.3573,37.2624 85.6906,38.9291 86.5,40.5C 85.4825,41.8524 84.1492,42.8524 82.5,43.5C 83.8715,45.6198 83.2048,46.6198 80.5,46.5C 80.7852,44.712 80.4519,43.0453 79.5,41.5C 77.5,42.8333 75.8333,44.5 74.5,46.5C 74.1667,46 73.8333,45.5 73.5,45C 75.1748,42.3151 77.5082,40.3151 80.5,39C 77.0992,39.266 75.4326,37.766 75.5,34.5C 76.5,34.5 77.5,34.5 78.5,34.5C 78.5,35.5 78.5,36.5 78.5,37.5C 79.5,37.5 80.5,37.5 81.5,37.5 Z"/></g>
<g><path style="opacity:1" fill="#e4ebec" d="M 81.5,37.5 C 82.5,37.5 83.5,37.5 84.5,37.5C 84.762,38.9778 84.4287,40.3112 83.5,41.5C 82.2888,40.7261 82.2888,39.8928 83.5,39C 82.5842,38.7216 81.9175,38.2216 81.5,37.5 Z"/></g>
<g><path style="opacity:1" fill="#4c5959" d="M 221.5,41.5 C 220.458,42.7911 219.292,42.7911 218,41.5C 218.135,39.5753 218.302,37.5753 218.5,35.5C 219.978,35.238 221.311,35.5713 222.5,36.5C 221.675,37.3857 220.675,37.719 219.5,37.5C 219.229,39.3797 219.896,40.713 221.5,41.5 Z"/></g>
<g><path style="opacity:1" fill="#485557" d="M 222.5,41.5 C 225.148,43.1276 225.148,44.7943 222.5,46.5C 221.948,44.9974 221.948,43.3307 222.5,41.5 Z"/></g>
<g><path style="opacity:1" fill="#465659" d="M 156.5,49.5 C 156.289,51.4241 155.623,51.7574 154.5,50.5C 154.201,43.4662 157.534,39.4662 164.5,38.5C 163.833,37.8333 163.167,37.1667 162.5,36.5C 164.001,35.2485 165.668,34.2485 167.5,33.5C 167.88,35.0207 168.046,36.6874 168,38.5C 172.862,30.219 174.029,30.5523 171.5,39.5C 173.827,39.3354 175.993,38.6687 178,37.5C 178.866,35.1039 178.366,34.4372 176.5,35.5C 175.086,32.4097 176.086,31.243 179.5,32C 181.994,34.4231 181.994,36.7564 179.5,39C 177.212,39.8221 174.878,40.4888 172.5,41C 174.376,42.0173 176.376,42.8506 178.5,43.5C 177.131,45.124 175.464,45.624 173.5,45C 169.938,40.2583 168.605,40.4249 169.5,45.5C 163.614,47.7849 162.281,46.2849 165.5,41C 159.44,40.5594 156.44,43.3927 156.5,49.5 Z"/></g>
<g><path style="opacity:1" fill="#576265" d="M 217.5,47.5 C 210.022,43.9866 204.522,45.9866 201,53.5C 199.549,55.4641 197.716,56.7974 195.5,57.5C 199.947,51.45 204.28,45.2833 208.5,39C 209.833,38.3333 211.167,38.3333 212.5,39C 202.784,45.3524 203.784,47.3524 215.5,45C 216.672,45.4186 217.672,46.0853 218.5,47C 218.272,47.3988 217.938,47.5654 217.5,47.5 Z"/></g>
<g><path style="opacity:1" fill="#435153" d="M 222.5,41.5 C 222.167,41.5 221.833,41.5 221.5,41.5C 221.351,40.448 221.517,39.448 222,38.5C 225.138,39.4029 227.805,41.0696 230,43.5C 230.667,44.5 230.667,45.5 230,46.5C 228.167,44.6667 226.333,42.8333 224.5,41C 223.563,40.3083 222.897,40.475 222.5,41.5 Z"/></g>
<g><path style="opacity:1" fill="#596667" d="M 91.5,38.5 C 94.3245,38.0807 96.4912,39.0807 98,41.5C 100.678,46.8662 103.844,51.8662 107.5,56.5C 105.629,56.1412 104.129,55.1412 103,53.5C 99.7697,46.2963 94.603,44.2963 87.5,47.5C 86.8933,47.3764 86.56,47.0431 86.5,46.5C 89.9186,44.9926 93.5852,43.9926 97.5,43.5C 95.4691,41.8253 93.4691,40.1586 91.5,38.5 Z"/></g>
<g><path style="opacity:1" fill="#445456" d="M 126.5,49.5 C 128.009,48.1405 128.676,48.6405 128.5,51C 127.795,56.2022 124.795,58.7022 119.5,58.5C 106.237,56.5792 101.57,49.2459 105.5,36.5C 106.869,34.876 108.536,34.376 110.5,35C 106.95,39.1307 105.783,43.9641 107,49.5C 107.615,51.1161 108.615,52.4495 110,53.5C 109.572,51.2545 109.072,48.9211 108.5,46.5C 108.408,43.6729 109.575,41.6729 112,40.5C 112.5,40.6667 113,40.8333 113.5,41C 111.406,43.4189 111.406,45.5856 113.5,47.5C 112.344,50.0602 112.344,52.5602 113.5,55C 117.167,55.6667 120.833,55.6667 124.5,55C 124.957,54.586 125.291,54.086 125.5,53.5C 123.833,52.5 122.5,51.1667 121.5,49.5C 122.957,50.2583 124.624,50.2583 126.5,49.5 Z"/></g>
<g><path style="opacity:1" fill="#616d6f" d="M 139.5,40.5 C 139.5,40.1667 139.5,39.8333 139.5,39.5C 146.76,39.4263 150.427,43.0929 150.5,50.5C 151.757,47.1565 151.757,43.8231 150.5,40.5C 151.5,39.1667 152.5,39.1667 153.5,40.5C 151.814,44.2759 152.147,47.6092 154.5,50.5C 155.623,51.7574 156.289,51.4241 156.5,49.5C 157.822,49.67 158.989,49.3366 160,48.5C 160.179,46.5758 160.346,44.9091 160.5,43.5C 161.72,43.8869 162.387,44.7202 162.5,46C 161.742,48.9181 160.075,51.0848 157.5,52.5C 158.723,53.6139 160.056,53.7805 161.5,53C 162.155,51.5134 163.155,50.3467 164.5,49.5C 165.512,52.6954 164.179,54.5287 160.5,55C 165.721,56.7711 168.555,54.9378 169,49.5C 169.77,48.4019 170.603,48.4019 171.5,49.5C 169.531,57.4273 164.865,59.4273 157.5,55.5C 156.488,53.124 154.655,52.124 152,52.5C 149.345,52.124 147.512,53.124 146.5,55.5C 143.221,56.4922 139.888,56.6588 136.5,56C 132.592,54.0899 131.926,51.5899 134.5,48.5C 135.277,50.7812 136.277,52.9479 137.5,55C 139.5,55.6667 141.5,55.6667 143.5,55C 140.409,54.309 139.243,52.4757 140,49.5C 141.545,53.5072 144.045,54.3406 147.5,52C 143.113,50.4808 141.78,47.6475 143.5,43.5C 143.833,43.6667 144.167,43.8333 144.5,44C 143.054,46.4932 143.721,48.3265 146.5,49.5C 147.716,44.0232 145.382,41.0232 139.5,40.5 Z"/></g>
<g><path style="opacity:1" fill="#465558" d="M 192.5,58.5 C 192.167,59.1667 191.833,59.8333 191.5,60.5C 185.941,60.1498 181.108,58.1498 177,54.5C 175.991,52.9751 175.491,51.3084 175.5,49.5C 175.435,49.0618 175.601,48.7284 176,48.5C 178,51.1667 180,51.1667 182,48.5C 181.95,50.7516 180.784,52.4182 178.5,53.5C 178.709,54.086 179.043,54.586 179.5,55C 183.167,55.6667 186.833,55.6667 190.5,55C 191.656,52.5602 191.656,50.0602 190.5,47.5C 190.818,46.3527 191.484,45.5194 192.5,45C 191.253,43.5064 191.253,42.0064 192.5,40.5C 193.799,41.09 194.632,42.09 195,43.5C 195.32,46.5399 195.32,49.5399 195,52.5C 196.975,50.8302 197.809,48.6636 197.5,46C 196.554,42.3594 195.554,38.6928 194.5,35C 195.908,34.6848 197.241,35.0181 198.5,36C 203.086,48.4425 198.753,55.7758 185.5,58C 187.81,58.4966 190.143,58.6633 192.5,58.5 Z"/></g>
<g><path style="opacity:1" fill="#f0f2f3" d="M 139.5,40.5 C 145.382,41.0232 147.716,44.0232 146.5,49.5C 143.721,48.3265 143.054,46.4932 144.5,44C 144.167,43.8333 143.833,43.6667 143.5,43.5C 141.78,47.6475 143.113,50.4808 147.5,52C 144.045,54.3406 141.545,53.5072 140,49.5C 139.243,52.4757 140.409,54.309 143.5,55C 141.5,55.6667 139.5,55.6667 137.5,55C 136.277,52.9479 135.277,50.7812 134.5,48.5C 131.926,51.5899 132.592,54.0899 136.5,56C 139.888,56.6588 143.221,56.4922 146.5,55.5C 145.026,57.9606 145.193,60.294 147,62.5C 150.124,58.3819 151.291,58.7153 150.5,63.5C 151.773,67.4313 152.773,67.2647 153.5,63C 153.355,61.7741 153.022,60.6074 152.5,59.5C 152.833,59.1667 153.167,58.8333 153.5,58.5C 157.91,62.5973 159.243,61.5973 157.5,55.5C 164.865,59.4273 169.531,57.4273 171.5,49.5C 172.964,50.4054 174.298,50.4054 175.5,49.5C 175.491,51.3084 175.991,52.9751 177,54.5C 181.108,58.1498 185.941,60.1498 191.5,60.5C 194.948,60.8921 198.114,60.2254 201,58.5C 203.118,60.4537 205.284,60.787 207.5,59.5C 212.77,56.7648 212.436,55.7648 206.5,56.5C 205.479,55.9984 205.312,55.3317 206,54.5C 208.748,52.834 211.581,51.334 214.5,50C 212.5,49.3333 210.5,49.3333 208.5,50C 206.271,52.4003 203.937,54.567 201.5,56.5C 199.527,57.4867 197.527,58.4867 195.5,59.5C 194.537,59.0302 194.537,58.3635 195.5,57.5C 197.716,56.7974 199.549,55.4641 201,53.5C 204.522,45.9866 210.022,43.9866 217.5,47.5C 217.842,48.3382 218.508,48.6716 219.5,48.5C 217.677,49.4933 216.344,50.9933 215.5,53C 216.032,55.0197 217.365,55.853 219.5,55.5C 219.64,53.8762 218.973,52.7096 217.5,52C 221.317,49.8294 224.817,50.3294 228,53.5C 228.814,55.9018 228.647,58.2351 227.5,60.5C 226.098,60.1345 225.098,59.3012 224.5,58C 225.291,56.899 225.291,56.0656 224.5,55.5C 221.02,58.3557 221.02,61.0224 224.5,63.5C 221.398,64.957 220.898,66.957 223,69.5C 225,68.1667 227,66.8333 229,65.5C 230.602,67.3073 231.936,69.3073 233,71.5C 236.658,67.6407 235.824,65.3074 230.5,64.5C 229.269,54.31 231.603,53.1433 237.5,61C 240.521,61.8671 243.188,61.3671 245.5,59.5C 245.5,60.5 245.5,61.5 245.5,62.5C 243.265,62.2053 241.265,62.5386 239.5,63.5C 236.586,62.0939 234.086,60.0939 232,57.5C 232.789,61.9524 235.456,64.9524 240,66.5C 241.03,66.1639 241.53,65.4972 241.5,64.5C 242.167,64.8333 242.833,65.1667 243.5,65.5C 243.5,66.8333 243.5,68.1667 243.5,69.5C 247.284,69.4747 248.284,67.8081 246.5,64.5C 247.962,63.5291 249.295,63.8624 250.5,65.5C 249.631,67.717 249.298,70.0504 249.5,72.5C 251.833,72.5 254.167,72.5 256.5,72.5C 256.5,73.5 256.5,74.5 256.5,75.5C 239.675,76.4966 222.675,76.8299 205.5,76.5C 205.703,74.6096 205.037,73.1096 203.5,72C 201.283,70.7246 198.949,69.7246 196.5,69C 198.392,68.0266 200.392,67.3599 202.5,67C 203.902,65.6575 203.569,64.8242 201.5,64.5C 196.102,66.8607 191.435,70.194 187.5,74.5C 186.167,74.8333 184.833,75.1667 183.5,75.5C 179.298,75.8168 175.298,75.4834 171.5,74.5C 173.649,73.2524 175.649,71.7524 177.5,70C 179.345,68.872 181.345,68.372 183.5,68.5C 183.094,70.1092 183.094,71.4425 183.5,72.5C 184.83,70.9068 186.164,69.2402 187.5,67.5C 186.975,66.8076 186.308,66.3076 185.5,66C 185.833,65.6667 186.167,65.3333 186.5,65C 181.823,64.7521 177.99,66.5854 175,70.5C 174.503,67.854 174.336,65.1873 174.5,62.5C 178.92,61.9102 179.586,59.9102 176.5,56.5C 175.139,58.0284 173.972,59.6951 173,61.5C 170.929,60.6361 169.262,59.3028 168,57.5C 165.985,59.4783 166.152,61.3116 168.5,63C 166.302,64.8783 166.136,67.0449 168,69.5C 168.637,67.6969 169.803,66.3636 171.5,65.5C 173.812,73.0223 171.145,75.6889 163.5,73.5C 164.872,71.3802 164.205,70.3802 161.5,70.5C 161.286,72.1439 161.62,73.6439 162.5,75C 159.5,75.6667 156.5,75.6667 153.5,75C 155.156,73.1706 157.156,71.8372 159.5,71C 159.409,68.6969 160.743,67.0302 163.5,66C 160.648,64.0369 157.981,64.3702 155.5,67C 154.15,68.7183 152.983,70.5516 152,72.5C 150.343,66.9585 146.843,64.6252 141.5,65.5C 142.685,66.853 144.019,68.0197 145.5,69C 145.043,69.414 144.709,69.914 144.5,70.5C 146.678,71.6566 148.678,72.9899 150.5,74.5C 147.554,75.6548 144.554,75.8214 141.5,75C 144.318,72.1308 143.652,70.6308 139.5,70.5C 139.33,71.8221 139.663,72.9887 140.5,74C 133.473,75.1416 130.806,72.3083 132.5,65.5C 133.853,66.6853 135.02,68.0186 136,69.5C 136.318,67.9391 137.151,66.7724 138.5,66C 137.5,65 136.5,64 135.5,63C 137.982,61.4056 138.148,59.5723 136,57.5C 134.738,59.3028 133.071,60.6361 131,61.5C 130,59.8333 129,58.1667 128,56.5C 124.564,59.7392 125.231,62.0725 130,63.5C 131.265,71.7323 129.431,72.5656 124.5,66C 122.246,64.8495 119.913,64.5162 117.5,65C 117.833,65.3333 118.167,65.6667 118.5,66C 117.572,66.3879 116.905,67.0546 116.5,68C 117.872,68.2093 119.039,69.3759 120,71.5C 120.483,70.552 120.649,69.552 120.5,68.5C 125.162,69.158 129.162,71.158 132.5,74.5C 128.702,75.4834 124.702,75.8168 120.5,75.5C 114.823,71.3273 108.823,67.6606 102.5,64.5C 100.431,64.8242 100.098,65.6575 101.5,67C 103.952,67.2895 106.285,67.9562 108.5,69C 106.509,69.3736 104.842,70.207 103.5,71.5C 101.271,72.0553 99.6046,73.3886 98.5,75.5C 81.5131,76.4995 64.5131,76.8328 47.5,76.5C 47.5,75.1667 47.5,73.8333 47.5,72.5C 49.8333,72.5 52.1667,72.5 54.5,72.5C 54.5,70.5 54.5,68.5 54.5,66.5C 55.1667,66.5 55.8333,66.5 56.5,66.5C 57.0483,69.0838 58.715,70.0838 61.5,69.5C 61.634,67.7085 61.3007,66.0418 60.5,64.5C 61.209,63.596 62.209,63.2627 63.5,63.5C 62.8389,66.9703 64.1722,67.4703 67.5,65C 70.8877,62.3566 72.721,59.19 73,55.5C 73.3742,56.4162 73.8742,57.2496 74.5,58C 73.7511,59.7337 73.2511,61.567 73,63.5C 68.1036,65.2599 67.4369,67.9266 71,71.5C 72.0644,69.3073 73.3977,67.3073 75,65.5C 76.828,67.0814 78.828,68.4147 81,69.5C 83.1019,66.957 82.6019,64.957 79.5,63.5C 82.9825,61.854 83.4825,59.5207 81,56.5C 80.5172,57.448 80.3505,58.448 80.5,59.5C 79.0695,59.4208 77.7362,59.7542 76.5,60.5C 74.5971,52.4002 77.9304,49.0668 86.5,50.5C 85.8333,49.8333 85.1667,49.1667 84.5,48.5C 85.1667,47.8333 85.8333,47.1667 86.5,46.5C 86.56,47.0431 86.8933,47.3764 87.5,47.5C 94.603,44.2963 99.7697,46.2963 103,53.5C 104.129,55.1412 105.629,56.1412 107.5,56.5C 108.058,57.7899 109.058,58.6232 110.5,59C 109.072,59.5791 107.738,59.4124 106.5,58.5C 102.709,55.8819 99.0426,53.0486 95.5,50C 93.5,49.3333 91.5,49.3333 89.5,50C 92.5916,51.5724 95.5916,53.4057 98.5,55.5C 96.9974,56.0522 95.3307,56.0522 93.5,55.5C 93.2366,58.7343 94.7366,60.0676 98,59.5C 99.6581,59.3248 100.991,58.6582 102,57.5C 103.33,58.5822 104.83,59.2488 106.5,59.5C 107.997,60.3058 109.664,60.9724 111.5,61.5C 112.107,61.3764 112.44,61.0431 112.5,60.5C 115.01,60.0733 117.343,59.4067 119.5,58.5C 124.795,58.7022 127.795,56.2022 128.5,51C 128.676,48.6405 128.009,48.1405 126.5,49.5C 124.812,47.5233 124.479,45.5233 125.5,43.5C 126.374,44.5251 127.541,45.1918 129,45.5C 131.281,44.2237 133.281,42.5571 135,40.5C 135.595,41.8989 135.428,43.2322 134.5,44.5C 136.108,45.3184 137.775,45.9851 139.5,46.5C 139.94,44.2688 139.94,42.2688 139.5,40.5 Z"/></g>
<g><path style="opacity:1" fill="#3b4c4f" d="M 86.5,50.5 C 88.2726,51.3143 88.7726,52.6476 88,54.5C 86.9887,55.3366 85.8221,55.67 84.5,55.5C 84.8308,53.6776 85.4975,52.0109 86.5,50.5 Z"/></g>
<g><path style="opacity:1" fill="#f9fbfb" d="M 157.5,55.5 C 153.833,54.1667 150.167,54.1667 146.5,55.5C 147.512,53.124 149.345,52.124 152,52.5C 154.655,52.124 156.488,53.124 157.5,55.5 Z"/></g>
<g><path style="opacity:1" fill="#465658" d="M 84.5,48.5 C 85.1667,49.1667 85.8333,49.8333 86.5,50.5C 77.9304,49.0668 74.5971,52.4002 76.5,60.5C 77.7362,59.7542 79.0695,59.4208 80.5,59.5C 80.3505,58.448 80.5172,57.448 81,56.5C 83.4825,59.5207 82.9825,61.854 79.5,63.5C 82.6019,64.957 83.1019,66.957 81,69.5C 78.828,68.4147 76.828,67.0814 75,65.5C 73.3977,67.3073 72.0644,69.3073 71,71.5C 67.4369,67.9266 68.1036,65.2599 73,63.5C 73.2511,61.567 73.7511,59.7337 74.5,58C 73.8742,57.2496 73.3742,56.4162 73,55.5C 72.721,59.19 70.8877,62.3566 67.5,65C 64.1722,67.4703 62.8389,66.9703 63.5,63.5C 66.3029,62.9335 68.6363,61.6002 70.5,59.5C 70.1667,59.1667 69.8333,58.8333 69.5,58.5C 65.1474,62.7199 61.1474,62.3866 57.5,57.5C 59.162,56.6733 60.4954,55.5067 61.5,54C 64.2319,53.095 64.8986,53.7617 63.5,56C 63.6135,57.2798 64.2801,58.1131 65.5,58.5C 69.6756,55.9124 73.6756,53.0791 77.5,50C 79.6775,48.7978 82.0108,48.2978 84.5,48.5 Z"/></g>
<g><path style="opacity:1" fill="#404f52" d="M 106.5,58.5 C 106.5,58.8333 106.5,59.1667 106.5,59.5C 104.83,59.2488 103.33,58.5822 102,57.5C 100.991,58.6582 99.6581,59.3248 98,59.5C 94.7366,60.0676 93.2366,58.7343 93.5,55.5C 95.3307,56.0522 96.9974,56.0522 98.5,55.5C 95.5916,53.4057 92.5916,51.5724 89.5,50C 91.5,49.3333 93.5,49.3333 95.5,50C 99.0426,53.0486 102.709,55.8819 106.5,58.5 Z"/></g>
<g><path style="opacity:1" fill="#485656" d="M 111.5,58.5 C 114.167,58.5 116.833,58.5 119.5,58.5C 117.343,59.4067 115.01,60.0733 112.5,60.5C 112.167,59.8333 111.833,59.1667 111.5,58.5 Z"/></g>
<g><path style="opacity:1" fill="#747f83" d="M 201.5,56.5 C 203.053,58.385 205.053,59.385 207.5,59.5C 205.284,60.787 203.118,60.4537 201,58.5C 198.114,60.2254 194.948,60.8921 191.5,60.5C 191.833,59.8333 192.167,59.1667 192.5,58.5C 193.209,57.596 194.209,57.2627 195.5,57.5C 194.537,58.3635 194.537,59.0302 195.5,59.5C 197.527,58.4867 199.527,57.4867 201.5,56.5 Z"/></g>
<g><path style="opacity:1" fill="#394a4d" d="M 207.5,59.5 C 205.053,59.385 203.053,58.385 201.5,56.5C 203.937,54.567 206.271,52.4003 208.5,50C 210.5,49.3333 212.5,49.3333 214.5,50C 211.581,51.334 208.748,52.834 206,54.5C 205.312,55.3317 205.479,55.9984 206.5,56.5C 212.436,55.7648 212.77,56.7648 207.5,59.5 Z"/></g>
<g><path style="opacity:1" fill="#adb4b6" d="M 107.5,56.5 C 109.153,56.6596 110.486,57.3263 111.5,58.5C 111.833,59.1667 112.167,59.8333 112.5,60.5C 112.44,61.0431 112.107,61.3764 111.5,61.5C 109.664,60.9724 107.997,60.3058 106.5,59.5C 106.5,59.1667 106.5,58.8333 106.5,58.5C 107.738,59.4124 109.072,59.5791 110.5,59C 109.058,58.6232 108.058,57.7899 107.5,56.5 Z"/></g>
<g><path style="opacity:1" fill="#47585a" d="M 157.5,55.5 C 159.243,61.5973 157.91,62.5973 153.5,58.5C 153.167,58.8333 152.833,59.1667 152.5,59.5C 153.022,60.6074 153.355,61.7741 153.5,63C 152.773,67.2647 151.773,67.4313 150.5,63.5C 151.291,58.7153 150.124,58.3819 147,62.5C 145.193,60.294 145.026,57.9606 146.5,55.5C 150.167,54.1667 153.833,54.1667 157.5,55.5 Z"/></g>
<g><path style="opacity:1" fill="#48575a" d="M 239.5,63.5 C 240.492,63.3284 241.158,63.6618 241.5,64.5C 241.53,65.4972 241.03,66.1639 240,66.5C 235.456,64.9524 232.789,61.9524 232,57.5C 234.086,60.0939 236.586,62.0939 239.5,63.5 Z"/></g>
<g><path style="opacity:1" fill="#4f5c61" d="M 60.5,64.5 C 61.3007,66.0418 61.634,67.7085 61.5,69.5C 58.715,70.0838 57.0483,69.0838 56.5,66.5C 57.287,64.8958 58.6203,64.2291 60.5,64.5 Z"/></g>
<g><path style="opacity:1" fill="#3d4e50" d="M 219.5,48.5 C 221.927,48.523 224.26,49.023 226.5,50C 230.424,53.2102 234.59,56.0436 239,58.5C 241.783,57.1136 241.95,55.6136 239.5,54C 242.329,53.3111 243.996,54.4778 244.5,57.5C 246.7,56.5437 247.033,57.2104 245.5,59.5C 243.188,61.3671 240.521,61.8671 237.5,61C 231.603,53.1433 229.269,54.31 230.5,64.5C 235.824,65.3074 236.658,67.6407 233,71.5C 231.936,69.3073 230.602,67.3073 229,65.5C 227,66.8333 225,68.1667 223,69.5C 220.898,66.957 221.398,64.957 224.5,63.5C 221.02,61.0224 221.02,58.3557 224.5,55.5C 225.291,56.0656 225.291,56.899 224.5,58C 225.098,59.3012 226.098,60.1345 227.5,60.5C 228.647,58.2351 228.814,55.9018 228,53.5C 224.817,50.3294 221.317,49.8294 217.5,52C 218.973,52.7096 219.64,53.8762 219.5,55.5C 217.365,55.853 216.032,55.0197 215.5,53C 216.344,50.9933 217.677,49.4933 219.5,48.5 Z"/></g>
<g><path style="opacity:1" fill="#3f5054" d="M 246.5,64.5 C 248.284,67.8081 247.284,69.4747 243.5,69.5C 243.5,68.1667 243.5,66.8333 243.5,65.5C 244.209,64.596 245.209,64.2627 246.5,64.5 Z"/></g>
<g><path style="opacity:1" fill="#455558" d="M 54.5,66.5 C 54.5,68.5 54.5,70.5 54.5,72.5C 52.1667,72.5 49.8333,72.5 47.5,72.5C 46.3281,71.2947 44.9948,71.2947 43.5,72.5C 42.6143,71.675 42.281,70.675 42.5,69.5C 43.552,69.6495 44.552,69.4828 45.5,69C 40.9824,67.1432 40.4824,64.6432 44,61.5C 44.5,61.8333 45,62.1667 45.5,62.5C 44.1834,64.8762 44.8501,66.5429 47.5,67.5C 49.845,66.1078 52.1784,65.7745 54.5,66.5 Z"/></g>
<g><path style="opacity:1" fill="#37484c" d="M 250.5,65.5 C 253.038,66.0427 255.372,67.0427 257.5,68.5C 256.766,69.7079 256.433,71.0413 256.5,72.5C 254.167,72.5 251.833,72.5 249.5,72.5C 249.298,70.0504 249.631,67.717 250.5,65.5 Z"/></g>
<g><path style="opacity:1" fill="#667375" d="M 258.5,73.5 C 257.833,74.1667 257.167,74.8333 256.5,75.5C 256.5,74.5 256.5,73.5 256.5,72.5C 256.433,71.0413 256.766,69.7079 257.5,68.5C 258.355,67.4693 259.022,66.3026 259.5,65C 257.707,60.5795 258.54,59.7462 262,62.5C 263.357,66.1429 262.19,68.3096 258.5,69C 259.448,69.4828 260.448,69.6495 261.5,69.5C 261.719,70.675 261.386,71.675 260.5,72.5C 258.114,71.0116 257.448,71.3449 258.5,73.5 Z"/></g>
<g><path style="opacity:1" fill="#415254" d="M 171.5,74.5 C 170.711,74.7828 170.044,75.2828 169.5,76C 174.352,76.8151 179.019,76.6484 183.5,75.5C 184.833,75.1667 186.167,74.8333 187.5,74.5C 191.435,70.194 196.102,66.8607 201.5,64.5C 203.569,64.8242 203.902,65.6575 202.5,67C 200.392,67.3599 198.392,68.0266 196.5,69C 198.949,69.7246 201.283,70.7246 203.5,72C 205.037,73.1096 205.703,74.6096 205.5,76.5C 222.675,76.8299 239.675,76.4966 256.5,75.5C 257.167,74.8333 257.833,74.1667 258.5,73.5C 258.5,74.5 258.5,75.5 258.5,76.5C 263.544,76.1725 268.544,76.5059 273.5,77.5C 192.5,78.8333 111.5,78.8333 30.5,77.5C 35.456,76.5059 40.456,76.1725 45.5,76.5C 45.2291,74.6203 45.8958,73.287 47.5,72.5C 47.5,73.8333 47.5,75.1667 47.5,76.5C 64.5131,76.8328 81.5131,76.4995 98.5,75.5C 99.6046,73.3886 101.271,72.0553 103.5,71.5C 104.842,70.207 106.509,69.3736 108.5,69C 106.285,67.9562 103.952,67.2895 101.5,67C 100.098,65.6575 100.431,64.8242 102.5,64.5C 108.823,67.6606 114.823,71.3273 120.5,75.5C 124.981,76.6484 129.648,76.8151 134.5,76C 133.956,75.2828 133.289,74.7828 132.5,74.5C 129.162,71.158 125.162,69.158 120.5,68.5C 120.649,69.552 120.483,70.552 120,71.5C 119.039,69.3759 117.872,68.2093 116.5,68C 116.905,67.0546 117.572,66.3879 118.5,66C 118.167,65.6667 117.833,65.3333 117.5,65C 119.913,64.5162 122.246,64.8495 124.5,66C 129.431,72.5656 131.265,71.7323 130,63.5C 125.231,62.0725 124.564,59.7392 128,56.5C 129,58.1667 130,59.8333 131,61.5C 133.071,60.6361 134.738,59.3028 136,57.5C 138.148,59.5723 137.982,61.4056 135.5,63C 136.5,64 137.5,65 138.5,66C 137.151,66.7724 136.318,67.9391 136,69.5C 135.02,68.0186 133.853,66.6853 132.5,65.5C 130.806,72.3083 133.473,75.1416 140.5,74C 139.663,72.9887 139.33,71.8221 139.5,70.5C 143.652,70.6308 144.318,72.1308 141.5,75C 144.554,75.8214 147.554,75.6548 150.5,74.5C 148.678,72.9899 146.678,71.6566 144.5,70.5C 144.709,69.914 145.043,69.414 145.5,69C 144.019,68.0197 142.685,66.853 141.5,65.5C 146.843,64.6252 150.343,66.9585 152,72.5C 152.983,70.5516 154.15,68.7183 155.5,67C 157.981,64.3702 160.648,64.0369 163.5,66C 160.743,67.0302 159.409,68.6969 159.5,71C 157.156,71.8372 155.156,73.1706 153.5,75C 156.5,75.6667 159.5,75.6667 162.5,75C 161.62,73.6439 161.286,72.1439 161.5,70.5C 164.205,70.3802 164.872,71.3802 163.5,73.5C 171.145,75.6889 173.812,73.0223 171.5,65.5C 169.803,66.3636 168.637,67.6969 168,69.5C 166.136,67.0449 166.302,64.8783 168.5,63C 166.152,61.3116 165.985,59.4783 168,57.5C 169.262,59.3028 170.929,60.6361 173,61.5C 173.972,59.6951 175.139,58.0284 176.5,56.5C 179.586,59.9102 178.92,61.9102 174.5,62.5C 174.336,65.1873 174.503,67.854 175,70.5C 177.99,66.5854 181.823,64.7521 186.5,65C 186.167,65.3333 185.833,65.6667 185.5,66C 186.308,66.3076 186.975,66.8076 187.5,67.5C 186.164,69.2402 184.83,70.9068 183.5,72.5C 183.094,71.4425 183.094,70.1092 183.5,68.5C 181.345,68.372 179.345,68.872 177.5,70C 175.649,71.7524 173.649,73.2524 171.5,74.5 Z"/></g>
<g><path style="opacity:1" fill="#9fa9ad" d="M 187.5,74.5 C 187.833,74.5 188.167,74.5 188.5,74.5C 193.305,75.4872 198.305,75.8205 203.5,75.5C 198.589,76.6471 192.922,76.8137 186.5,76C 187.056,75.6174 187.389,75.1174 187.5,74.5 Z"/></g>
<g><path style="opacity:1" fill="#b2b9bd" d="M 171.5,74.5 C 175.298,75.4834 179.298,75.8168 183.5,75.5C 179.019,76.6484 174.352,76.8151 169.5,76C 170.044,75.2828 170.711,74.7828 171.5,74.5 Z"/></g>
<g><path style="opacity:1" fill="#b3bcbe" d="M 132.5,74.5 C 133.289,74.7828 133.956,75.2828 134.5,76C 129.648,76.8151 124.981,76.6484 120.5,75.5C 124.702,75.8168 128.702,75.4834 132.5,74.5 Z"/></g>
<g><path style="opacity:1" fill="#a2aaaf" d="M 115.5,74.5 C 116.289,74.7828 116.956,75.2828 117.5,76C 111.078,76.8137 105.411,76.6471 100.5,75.5C 105.695,75.8205 110.695,75.4872 115.5,74.5 Z"/></g>
<g><path style="opacity:1" fill="#f7f8f9" d="M 203.5,75.5 C 198.305,75.8205 193.305,75.4872 188.5,74.5C 192.41,71.468 196.743,70.8014 201.5,72.5C 202.425,73.3569 203.092,74.3569 203.5,75.5 Z"/></g>
<g><path style="opacity:1" fill="#f8faf9" d="M 103.5,71.5 C 107.991,70.8851 111.991,71.8851 115.5,74.5C 110.695,75.4872 105.695,75.8205 100.5,75.5C 101.5,74.1667 102.5,72.8333 103.5,71.5 Z"/></g>
<g><path style="opacity:1" fill="#4c565e" d="M 144.5,88.5 C 145.675,88.281 146.675,88.6143 147.5,89.5C 145.926,90.6309 144.259,90.7975 142.5,90C 143.416,89.7216 144.082,89.2216 144.5,88.5 Z"/></g>
<g><path style="opacity:1" fill="#4c5359" d="M 189.5,88.5 C 190.675,88.281 191.675,88.6143 192.5,89.5C 190.926,90.6309 189.259,90.7975 187.5,90C 188.416,89.7216 189.082,89.2216 189.5,88.5 Z"/></g>
<g><path style="opacity:1" fill="#525057" d="M 202.5,92.5 C 203.5,92.5 204.5,92.5 205.5,92.5C 205.5,93.5 205.5,94.5 205.5,95.5C 204.5,95.5 203.5,95.5 202.5,95.5C 202.5,94.5 202.5,93.5 202.5,92.5 Z"/></g>
<g><path style="opacity:1" fill="#304447" d="M 57.5,91.5 C 59.4651,98.7605 60.1318,106.427 59.5,114.5C 58.448,114.649 57.448,114.483 56.5,114C 57.4808,106.587 57.8142,99.0871 57.5,91.5 Z"/></g>
<g><path style="opacity:1" fill="#5c597c" d="M 112.5,98.5 C 113.251,97.4265 114.251,97.2599 115.5,98C 114.648,99.7284 113.648,99.895 112.5,98.5 Z"/></g>
<g><path style="opacity:1" fill="#668bb5" d="M 174.5,99.5 C 175.209,98.596 176.209,98.2627 177.5,98.5C 177.649,99.552 177.483,100.552 177,101.5C 176.292,100.619 175.458,99.9528 174.5,99.5 Z"/></g>
<g><path style="opacity:1" fill="#414d5f" d="M 68.5,93.5 C 68.8966,92.475 69.5632,92.3083 70.5,93C 75.6805,97.5667 76.8472,103.067 74,109.5C 72.4464,112.102 70.2798,113.269 67.5,113C 72.2114,108.86 73.7114,103.694 72,97.5C 71.34,95.6763 70.1733,94.343 68.5,93.5 Z"/></g>
<g><path style="opacity:1" fill="#445173" d="M 149.5,99.5 C 150.522,100.892 150.189,102.225 148.5,103.5C 148.167,103.167 147.833,102.833 147.5,102.5C 148.193,101.482 148.859,100.482 149.5,99.5 Z"/></g>
<g><path style="opacity:1" fill="#5b5e72" d="M 189.5,98.5 C 191.817,97.0584 193.984,97.3918 196,99.5C 196.686,104.572 197.853,109.405 199.5,114C 197.888,114.72 196.388,114.554 195,113.5C 194.667,109.167 194.333,104.833 194,100.5C 192.89,98.9632 191.39,98.2965 189.5,98.5 Z"/></g>
<g><path style="opacity:1" fill="#5e5b64" d="M 139.5,92.5 C 140.654,98.987 140.821,105.654 140,112.5C 139.71,114.044 139.044,115.377 138,116.5C 137.333,109.167 137.333,101.833 138,94.5C 138.717,93.9558 139.217,93.2891 139.5,92.5 Z"/></g>
<g><path style="opacity:1" fill="#6a4947" d="M 184.5,94.5 C 184.5,101.167 184.5,107.833 184.5,114.5C 183.761,114.631 183.094,114.464 182.5,114C 183.15,107.401 183.816,100.901 184.5,94.5 Z"/></g>
<g><path style="opacity:1" fill="#486a83" d="M 184.5,114.5 C 184.5,107.833 184.5,101.167 184.5,94.5C 184.987,93.5266 185.487,92.5266 186,91.5C 186.167,95.3333 186.333,99.1667 186.5,103C 186.49,107.229 185.823,111.062 184.5,114.5 Z"/></g>
<g><path style="opacity:1" fill="#34464e" d="M 234.5,98.5 C 235.922,98.7496 236.922,99.583 237.5,101C 236.167,105.333 236.167,109.667 237.5,114C 236.167,114.667 234.833,114.667 233.5,114C 234.471,108.928 234.805,103.762 234.5,98.5 Z"/></g>
<g><path style="opacity:1" fill="#3b4a58" d="M 241.5,98.5 C 243.377,97.3754 245.21,97.7088 247,99.5C 246.92,104.635 247.753,109.469 249.5,114C 248.216,114.684 247.049,114.517 246,113.5C 245.667,109.167 245.333,104.833 245,100.5C 244.184,99.1772 243.017,98.5106 241.5,98.5 Z"/></g>
<g><path style="opacity:1" fill="#39485d" d="M 203.5,98.5 C 204.874,103.53 206.208,108.696 207.5,114C 206.216,114.684 205.049,114.517 204,113.5C 203.501,108.511 203.334,103.511 203.5,98.5 Z"/></g>
<g><path style="opacity:1" fill="#434c55" d="M 166.5,99.5 C 167.249,100.531 167.915,101.698 168.5,103C 171.477,104.318 174.31,105.818 177,107.5C 177.82,109.728 177.487,111.728 176,113.5C 175.667,112.167 175.333,110.833 175,109.5C 172.165,108.084 169.498,106.417 167,104.5C 166.506,102.866 166.34,101.199 166.5,99.5 Z"/></g>
<g><path style="opacity:1" fill="#5b5a69" d="M 80.5,97.5 C 81.1499,97.8039 81.8165,98.1373 82.5,98.5C 83.3283,103.132 83.8283,107.798 84,112.5C 85.3988,113.227 86.8988,113.727 88.5,114C 85.3637,115.041 82.8637,114.207 81,111.5C 80.5008,106.845 80.3342,102.179 80.5,97.5 Z"/></g>
<g><path style="opacity:1" fill="#535058" d="M 215.5,98.5 C 217.657,99.0533 217.49,100.053 215,101.5C 213.989,105.781 214.823,109.614 217.5,113C 211.974,111.739 210.141,108.239 212,102.5C 213.376,101.295 214.542,99.9616 215.5,98.5 Z"/></g>
<g><path style="opacity:1" fill="#5a5969" d="M 91.5,97.5 C 92.4584,97.9528 93.2917,98.6195 94,99.5C 93.9198,104.635 94.7532,109.469 96.5,114C 94.8876,114.72 93.3876,114.554 92,113.5C 91.5006,108.177 91.334,102.844 91.5,97.5 Z"/></g>
<g><path style="opacity:1" fill="#42526a" d="M 99.5,98.5 C 100.946,97.3871 102.613,97.2204 104.5,98C 104.043,98.414 103.709,98.914 103.5,99.5C 104.67,103.548 106.67,107.048 109.5,110C 108.809,111.067 108.309,112.234 108,113.5C 105.246,108.347 102.413,103.347 99.5,98.5 Z"/></g>
<g><path style="opacity:1" fill="#444f5f" d="M 222.5,99.5 C 222.897,98.475 223.563,98.3083 224.5,99C 229.699,103.717 229.699,108.551 224.5,113.5C 224.167,113.333 223.833,113.167 223.5,113C 225.429,109.744 225.929,106.244 225,102.5C 224.623,101.058 223.79,100.058 222.5,99.5 Z"/></g>
<g><path style="opacity:1" fill="#414856" d="M 156.5,98.5 C 157.458,98.9528 158.292,99.6195 159,100.5C 158.928,105.308 159.761,109.808 161.5,114C 158.888,114.741 157.222,113.741 156.5,111C 157.556,106.891 157.556,102.725 156.5,98.5 Z"/></g>
<g><path style="opacity:1" fill="#4f556c" d="M 148.5,106.5 C 149.239,106.369 149.906,106.536 150.5,107C 148.561,110.689 149.561,113.023 153.5,114C 146.686,114.704 145.019,112.204 148.5,106.5 Z"/></g>
<g><path style="opacity:1" fill="#73707c" d="M 165.5,110.5 C 167.92,112.92 170.92,114.087 174.5,114C 172.167,114.667 169.833,114.667 167.5,114C 166.027,113.29 165.36,112.124 165.5,110.5 Z"/></g>
<g><path style="opacity:1" fill="#5a5c6f" d="M 105.5,116.5 C 106.525,116.897 106.692,117.563 106,118.5C 104.561,120.014 103.061,120.347 101.5,119.5C 103.184,118.85 104.517,117.85 105.5,116.5 Z"/></g>
<g><path style="opacity:1" fill="#504f5a" d="M 132.5,118.5 C 137.021,118.326 137.355,118.993 133.5,120.5C 132.702,120.043 132.369,119.376 132.5,118.5 Z"/></g>
<g><path style="opacity:1" fill="#3f5052" d="M 273.5,133.5 C 268.5,133.5 263.5,133.5 258.5,133.5C 258.541,137.243 257.874,137.41 256.5,134C 239.503,133.5 222.503,133.333 205.5,133.5C 205.5,136.833 203.833,138.5 200.5,138.5C 199.4,139.558 198.066,140.392 196.5,141C 198.804,141.895 201.138,142.729 203.5,143.5C 201.102,144.724 198.769,144.558 196.5,143C 192.341,139.753 188.008,136.753 183.5,134C 178.833,133.333 174.167,133.333 169.5,134C 173.63,137.66 178.297,140.16 183.5,141.5C 183.094,139.891 183.094,138.557 183.5,137.5C 184.769,139.18 186.436,140.347 188.5,141C 186.963,142.11 186.297,143.61 186.5,145.5C 181.524,145.762 177.691,143.762 175,139.5C 174.308,140.025 173.808,140.692 173.5,141.5C 174.348,143.409 174.682,145.409 174.5,147.5C 179.145,148.28 179.645,150.28 176,153.5C 175.601,153.272 175.435,152.938 175.5,152.5C 174.496,151.317 173.662,149.984 173,148.5C 171.348,149.399 169.848,150.399 168.5,151.5C 168.19,152.738 167.69,152.738 167,151.5C 166.316,149.521 166.816,147.854 168.5,146.5C 166.421,144.843 166.254,142.843 168,140.5C 171.826,145.576 173.159,144.576 172,137.5C 169.421,135.653 166.588,135.153 163.5,136C 164.337,137.011 164.67,138.178 164.5,139.5C 163.5,139.5 162.5,139.5 161.5,139.5C 161.286,137.856 161.62,136.356 162.5,135C 152.96,133.853 151.96,135.187 159.5,139C 159.409,141.303 160.743,142.97 163.5,144C 159.766,146.025 156.599,145.191 154,141.5C 153.333,139.5 152.667,137.5 152,135.5C 151.487,140.844 148.654,144.177 143.5,145.5C 142.068,145.267 141.568,144.6 142,143.5C 142.903,142.299 144.069,141.465 145.5,141C 144.289,140.107 144.289,139.274 145.5,138.5C 147.565,138.047 149.232,137.047 150.5,135.5C 147.554,134.345 144.554,134.179 141.5,135C 142.38,136.356 142.714,137.856 142.5,139.5C 141.5,139.5 140.5,139.5 139.5,139.5C 139.33,138.178 139.663,137.011 140.5,136C 132.804,134.323 130.137,137.156 132.5,144.5C 133.853,143.315 135.02,141.981 136,140.5C 137.864,142.955 137.698,145.122 135.5,147C 137.848,148.688 138.015,150.522 136,152.5C 135.601,152.272 135.435,151.938 135.5,151.5C 134.152,150.399 132.652,149.399 131,148.5C 130.722,149.416 130.222,150.082 129.5,150.5C 128.355,154.308 127.022,154.141 125.5,150C 126.377,148.133 127.877,146.966 130,146.5C 131.068,138.549 129.234,137.715 124.5,144C 122.863,144.601 121.197,145.101 119.5,145.5C 117.688,145.048 116.688,143.882 116.5,142C 117.907,141.224 119.241,139.724 120.5,137.5C 120.906,138.557 120.906,139.891 120.5,141.5C 122.655,141.628 124.655,141.128 126.5,140C 128.809,137.513 131.476,135.513 134.5,134C 128.324,133.036 122.324,133.536 116.5,135.5C 116.611,134.883 116.944,134.383 117.5,134C 111.804,133.17 106.137,133.337 100.5,134.5C 101.524,135.852 102.524,137.185 103.5,138.5C 101.271,137.945 99.6046,136.611 98.5,134.5C 81.5131,133.501 64.5131,133.167 47.5,133.5C 47.33,134.822 47.6634,135.989 48.5,137C 53.3959,135.39 55.3959,137.223 54.5,142.5C 54.189,143.478 53.5223,144.145 52.5,144.5C 46.8287,140.193 44.162,141.526 44.5,148.5C 40.2565,145.466 40.5898,142.966 45.5,141C 44.552,140.517 43.552,140.351 42.5,140.5C 42.5,139.5 42.5,138.5 42.5,137.5C 44.2259,137.815 45.8925,137.981 47.5,138C 45.9632,136.89 45.2965,135.39 45.5,133.5C 40.456,133.827 35.456,133.494 30.5,132.5C 71,132.167 111.5,131.833 152,131.5C 192.839,131.5 233.339,132.167 273.5,133.5 Z"/></g>
<g><path style="opacity:1" fill="#f0f2f3" d="M 103.5,138.5 C 104.6,139.558 105.934,140.392 107.5,141C 105.196,141.895 102.862,142.729 100.5,143.5C 102.074,144.631 103.741,144.798 105.5,144C 109.638,141.685 113.305,138.852 116.5,135.5C 122.324,133.536 128.324,133.036 134.5,134C 131.476,135.513 128.809,137.513 126.5,140C 124.655,141.128 122.655,141.628 120.5,141.5C 120.906,139.891 120.906,138.557 120.5,137.5C 119.241,139.724 117.907,141.224 116.5,142C 116.688,143.882 117.688,145.048 119.5,145.5C 121.197,145.101 122.863,144.601 124.5,144C 129.234,137.715 131.068,138.549 130,146.5C 127.877,146.966 126.377,148.133 125.5,150C 127.022,154.141 128.355,154.308 129.5,150.5C 129.843,152.483 129.176,153.817 127.5,154.5C 123.579,151.42 119.079,149.754 114,149.5C 111.88,150.14 110.046,151.14 108.5,152.5C 106.284,153.203 104.451,154.536 103,156.5C 99.4499,163.865 93.9499,166.031 86.5,163C 87.1667,163.667 87.8333,164.333 88.5,165C 91.5535,165.179 94.5535,165.679 97.5,166.5C 95.4691,168.175 93.4691,169.841 91.5,171.5C 90.5326,170.194 89.1993,169.527 87.5,169.5C 87.5,170.5 87.5,171.5 87.5,172.5C 86.8333,173.167 86.1667,173.833 85.5,174.5C 85.3573,172.738 85.6906,171.071 86.5,169.5C 85.9653,167.899 84.9653,167.399 83.5,168C 84.5171,169.049 84.6838,170.216 84,171.5C 83.2514,168.497 82.0848,165.831 80.5,163.5C 80.9175,162.778 81.5842,162.278 82.5,162C 81.5842,161.722 80.9175,161.222 80.5,160.5C 83.3646,160.945 85.8646,160.278 88,158.5C 88.8469,155.51 87.6802,154.176 84.5,154.5C 84.3601,156.124 85.0267,157.29 86.5,158C 77.5312,160.866 74.1979,157.699 76.5,148.5C 78.1221,149.933 79.4554,151.599 80.5,153.5C 83.3757,150.459 83.0424,147.959 79.5,146C 83.2656,143.7 83.2656,141.2 79.5,138.5C 78.2888,139.274 78.2888,140.107 79.5,141C 75.5769,144.465 72.7436,143.631 71,138.5C 67.3424,142.359 68.1758,144.693 73.5,145.5C 73.2436,147.792 73.5769,149.959 74.5,152C 73.8742,152.75 73.3742,153.584 73,154.5C 70.0042,152.267 67.1708,149.934 64.5,147.5C 64.5,147.167 64.5,146.833 64.5,146.5C 71.4082,150.853 72.0749,150.019 66.5,144C 64.5372,143.156 63.2039,143.656 62.5,145.5C 61.8333,145.5 61.5,145.167 61.5,144.5C 61.5,143.167 61.5,141.833 61.5,140.5C 59.7085,140.366 58.0418,140.699 56.5,141.5C 55.8333,141.833 55.1667,142.167 54.5,142.5C 55.3959,137.223 53.3959,135.39 48.5,137C 47.6634,135.989 47.33,134.822 47.5,133.5C 64.5131,133.167 81.5131,133.501 98.5,134.5C 99.6046,136.611 101.271,137.945 103.5,138.5 Z"/></g>
<g><path style="opacity:1" fill="#e7eaec" d="M 116.5,135.5 C 114.577,135.795 112.91,136.628 111.5,138C 108.854,138.497 106.187,138.664 103.5,138.5C 102.524,137.185 101.524,135.852 100.5,134.5C 106.137,133.337 111.804,133.17 117.5,134C 116.944,134.383 116.611,134.883 116.5,135.5 Z"/></g>
<g><path style="opacity:1" fill="#f0f2f3" d="M 200.5,138.5 C 203.833,138.5 205.5,136.833 205.5,133.5C 222.503,133.333 239.503,133.5 256.5,134C 257.874,137.41 258.541,137.243 258.5,133.5C 263.5,133.5 268.5,133.5 273.5,133.5C 268.983,134.166 264.317,134.833 259.5,135.5C 260.243,136.182 260.909,136.849 261.5,137.5C 260.305,137.678 259.138,138.011 258,138.5C 251.624,134.554 248.791,136.221 249.5,143.5C 248.833,143.5 248.167,143.5 247.5,143.5C 247.306,141.088 245.973,140.088 243.5,140.5C 243.366,142.292 243.699,143.958 244.5,145.5C 244.5,146.167 244.5,146.833 244.5,147.5C 242.073,147.523 239.74,148.023 237.5,149C 230.749,157.119 228.749,155.952 231.5,145.5C 236.068,143.972 236.568,141.638 233,138.5C 231.256,143.631 228.423,144.465 224.5,141C 226.271,140.465 226.604,139.631 225.5,138.5C 220.876,140.778 220.543,143.278 224.5,146C 220.879,148.071 220.546,150.571 223.5,153.5C 224.311,151.609 225.644,150.276 227.5,149.5C 229.942,156.069 227.609,159.402 220.5,159.5C 219.263,159.444 218.263,158.944 217.5,158C 218.973,157.29 219.64,156.124 219.5,154.5C 215.18,154.959 214.513,156.792 217.5,160C 220.146,160.497 222.813,160.664 225.5,160.5C 224.449,161.222 223.782,162.222 223.5,163.5C 221.242,163.775 220.908,164.775 222.5,166.5C 220.49,167.065 218.824,168.065 217.5,169.5C 218.309,171.071 218.643,172.738 218.5,174.5C 217.833,174.167 217.167,173.833 216.5,173.5C 216.762,172.022 216.429,170.689 215.5,169.5C 213.889,170.32 213.222,171.654 213.5,173.5C 212.29,173.068 211.29,172.401 210.5,171.5C 211.239,171.631 211.906,171.464 212.5,171C 202.784,164.648 203.784,162.648 215.5,165C 217.271,164.465 217.604,163.631 216.5,162.5C 212.412,165.186 208.412,165.02 204.5,162C 202.688,157.52 199.688,154.52 195.5,153C 199.025,155.901 201.692,159.401 203.5,163.5C 202.391,163.443 201.391,163.11 200.5,162.5C 197.508,155.814 192.175,152.314 184.5,152C 187.5,151.667 190.5,151.333 193.5,151C 191.305,149.627 188.971,149.294 186.5,150C 181.962,150.981 178.295,153.148 175.5,156.5C 174.624,156.631 173.957,156.298 173.5,155.5C 173.942,154.261 174.609,153.261 175.5,152.5C 175.435,152.938 175.601,153.272 176,153.5C 179.645,150.28 179.145,148.28 174.5,147.5C 174.682,145.409 174.348,143.409 173.5,141.5C 173.808,140.692 174.308,140.025 175,139.5C 177.691,143.762 181.524,145.762 186.5,145.5C 186.297,143.61 186.963,142.11 188.5,141C 186.436,140.347 184.769,139.18 183.5,137.5C 183.094,138.557 183.094,139.891 183.5,141.5C 178.297,140.16 173.63,137.66 169.5,134C 174.167,133.333 178.833,133.333 183.5,134C 188.008,136.753 192.341,139.753 196.5,143C 198.769,144.558 201.102,144.724 203.5,143.5C 201.138,142.729 198.804,141.895 196.5,141C 198.066,140.392 199.4,139.558 200.5,138.5 Z"/></g>
<g><path style="opacity:1" fill="#eaedee" d="M 200.5,138.5 C 195.361,139.261 191.027,137.761 187.5,134C 193.167,133.333 198.833,133.333 204.5,134C 202.959,135.371 201.625,136.871 200.5,138.5 Z"/></g>
<g><path style="opacity:1" fill="#4b5b5c" d="M 116.5,135.5 C 113.305,138.852 109.638,141.685 105.5,144C 103.741,144.798 102.074,144.631 100.5,143.5C 102.862,142.729 105.196,141.895 107.5,141C 105.934,140.392 104.6,139.558 103.5,138.5C 106.187,138.664 108.854,138.497 111.5,138C 112.91,136.628 114.577,135.795 116.5,135.5 Z"/></g>
<g><path style="opacity:1" fill="#eef1f1" d="M 168.5,151.5 C 170.796,151.804 171.129,152.804 169.5,154.5C 167.516,153.844 165.516,153.178 163.5,152.5C 161.865,153.046 160.199,153.38 158.5,153.5C 158.785,151.712 158.452,150.045 157.5,148.5C 152.87,152.707 151.87,152.041 154.5,146.5C 153.992,144.096 152.825,143.429 151,144.5C 151.053,146.936 150.887,149.269 150.5,151.5C 146.033,147.349 144.7,148.349 146.5,154.5C 142.024,151.786 137.69,152.119 133.5,155.5C 132.571,153.678 133.238,152.345 135.5,151.5C 135.435,151.938 135.601,152.272 136,152.5C 138.015,150.522 137.848,148.688 135.5,147C 137.698,145.122 137.864,142.955 136,140.5C 135.02,141.981 133.853,143.315 132.5,144.5C 130.137,137.156 132.804,134.323 140.5,136C 139.663,137.011 139.33,138.178 139.5,139.5C 140.5,139.5 141.5,139.5 142.5,139.5C 142.714,137.856 142.38,136.356 141.5,135C 144.554,134.179 147.554,134.345 150.5,135.5C 149.232,137.047 147.565,138.047 145.5,138.5C 144.289,139.274 144.289,140.107 145.5,141C 144.069,141.465 142.903,142.299 142,143.5C 141.568,144.6 142.068,145.267 143.5,145.5C 148.654,144.177 151.487,140.844 152,135.5C 152.667,137.5 153.333,139.5 154,141.5C 156.599,145.191 159.766,146.025 163.5,144C 160.743,142.97 159.409,141.303 159.5,139C 151.96,135.187 152.96,133.853 162.5,135C 161.62,136.356 161.286,137.856 161.5,139.5C 162.5,139.5 163.5,139.5 164.5,139.5C 164.67,138.178 164.337,137.011 163.5,136C 166.588,135.153 169.421,135.653 172,137.5C 173.159,144.576 171.826,145.576 168,140.5C 166.254,142.843 166.421,144.843 168.5,146.5C 166.816,147.854 166.316,149.521 167,151.5C 167.69,152.738 168.19,152.738 168.5,151.5 Z"/></g>
<g><path style="opacity:1" fill="#4f6060" d="M 61.5,144.5 C 58.1919,146.284 56.5253,145.284 56.5,141.5C 58.0418,140.699 59.7085,140.366 61.5,140.5C 61.5,141.833 61.5,143.167 61.5,144.5 Z"/></g>
<g><path style="opacity:1" fill="#465659" d="M 261.5,137.5 C 261.64,139.124 260.973,140.29 259.5,141C 262.987,142.95 263.321,145.283 260.5,148C 259.833,148.667 259.167,148.667 258.5,148C 259.538,141.534 257.538,140.368 252.5,144.5C 251.583,143.873 250.583,143.539 249.5,143.5C 248.791,136.221 251.624,134.554 258,138.5C 259.138,138.011 260.305,137.678 261.5,137.5 Z"/></g>
<g><path style="opacity:1" fill="#3d4e52" d="M 247.5,143.5 C 247.027,144.906 246.027,145.573 244.5,145.5C 243.699,143.958 243.366,142.292 243.5,140.5C 245.973,140.088 247.306,141.088 247.5,143.5 Z"/></g>
<g><path style="opacity:1" fill="#455656" d="M 64.5,146.5 C 63.8333,146.167 63.1667,145.833 62.5,145.5C 63.2039,143.656 64.5372,143.156 66.5,144C 72.0749,150.019 71.4082,150.853 64.5,146.5 Z"/></g>
<g><path style="opacity:1" fill="#485658" d="M 238.5,143.5 C 240.355,143.272 241.188,143.939 241,145.5C 237.428,147.069 234.428,149.402 232,152.5C 232.732,148.582 234.899,145.582 238.5,143.5 Z"/></g>
<g><path style="opacity:1" fill="#3f5052" d="M 244.5,147.5 C 244.383,149.484 245.05,151.15 246.5,152.5C 246.062,153.506 245.396,153.506 244.5,152.5C 243.996,155.522 242.329,156.689 239.5,156C 242.287,154.093 242.12,152.593 239,151.5C 234.23,154.132 229.73,157.132 225.5,160.5C 222.813,160.664 220.146,160.497 217.5,160C 214.513,156.792 215.18,154.959 219.5,154.5C 219.64,156.124 218.973,157.29 217.5,158C 218.263,158.944 219.263,159.444 220.5,159.5C 227.609,159.402 229.942,156.069 227.5,149.5C 225.644,150.276 224.311,151.609 223.5,153.5C 220.546,150.571 220.879,148.071 224.5,146C 220.543,143.278 220.876,140.778 225.5,138.5C 226.604,139.631 226.271,140.465 224.5,141C 228.423,144.465 231.256,143.631 233,138.5C 236.568,141.638 236.068,143.972 231.5,145.5C 228.749,155.952 230.749,157.119 237.5,149C 239.74,148.023 242.073,147.523 244.5,147.5 Z"/></g>
<g><path style="opacity:1" fill="#475759" d="M 195.5,150.5 C 197.493,149.463 199.493,149.797 201.5,151.5C 205.201,148.803 208.535,149.303 211.5,153C 209.565,154.238 207.565,154.738 205.5,154.5C 208.383,156.554 211.383,158.388 214.5,160C 212.833,160.667 211.167,160.667 209.5,160C 204.978,156.576 200.311,153.409 195.5,150.5 Z"/></g>
<g><path style="opacity:1" fill="#435355" d="M 80.5,160.5 C 76.0966,158.79 72.0966,156.29 68.5,153C 66.9751,151.991 65.3084,151.491 63.5,151.5C 64.817,157.827 63.4837,158.161 59.5,152.5C 58.914,152.709 58.414,153.043 58,153.5C 58.5948,151.65 59.0948,149.65 59.5,147.5C 61.1667,147.5 62.8333,147.5 64.5,147.5C 67.1708,149.934 70.0042,152.267 73,154.5C 73.3742,153.584 73.8742,152.75 74.5,152C 73.5769,149.959 73.2436,147.792 73.5,145.5C 68.1758,144.693 67.3424,142.359 71,138.5C 72.7436,143.631 75.5769,144.465 79.5,141C 78.2888,140.107 78.2888,139.274 79.5,138.5C 83.2656,141.2 83.2656,143.7 79.5,146C 83.0424,147.959 83.3757,150.459 80.5,153.5C 79.4554,151.599 78.1221,149.933 76.5,148.5C 74.1979,157.699 77.5312,160.866 86.5,158C 85.0267,157.29 84.3601,156.124 84.5,154.5C 87.6802,154.176 88.8469,155.51 88,158.5C 85.8646,160.278 83.3646,160.945 80.5,160.5 Z"/></g>
<g><path style="opacity:1" fill="#f3f7f7" d="M 156.5,157.5 C 153.813,157.664 151.146,157.497 148.5,157C 147.619,156.292 146.953,155.458 146.5,154.5C 148.017,154.489 149.184,153.823 150,152.5C 150.483,153.448 150.649,154.448 150.5,155.5C 152.143,155.52 153.476,154.853 154.5,153.5C 155.5,154 156.5,154.5 157.5,155C 156.748,155.671 156.414,156.504 156.5,157.5 Z"/></g>
<g><path style="opacity:1" fill="#475659" d="M 96.5,149.5 C 99.0444,149.104 101.211,149.771 103,151.5C 104.913,149.813 107.08,149.313 109.5,150C 104.228,152.941 99.228,156.274 94.5,160C 92.8333,160.667 91.1667,160.667 89.5,160C 92.5916,158.428 95.5916,156.594 98.5,154.5C 96.9974,153.948 95.3307,153.948 93.5,154.5C 93.31,152.041 94.31,150.374 96.5,149.5 Z"/></g>
<g><path style="opacity:1" fill="#576467" d="M 169.5,154.5 C 171.804,156.703 171.97,159.037 170,161.5C 169.054,159.212 167.887,157.045 166.5,155C 160.846,154.012 160.346,154.845 165,157.5C 165.749,158.635 165.583,159.635 164.5,160.5C 162.808,156.748 160.141,155.748 156.5,157.5C 156.414,156.504 156.748,155.671 157.5,155C 156.5,154.5 155.5,154 154.5,153.5C 153.476,154.853 152.143,155.52 150.5,155.5C 150.649,154.448 150.483,153.448 150,152.5C 149.184,153.823 148.017,154.489 146.5,154.5C 144.7,148.349 146.033,147.349 150.5,151.5C 150.887,149.269 151.053,146.936 151,144.5C 152.825,143.429 153.992,144.096 154.5,146.5C 151.87,152.041 152.87,152.707 157.5,148.5C 158.452,150.045 158.785,151.712 158.5,153.5C 160.199,153.38 161.865,153.046 163.5,152.5C 165.516,153.178 167.516,153.844 169.5,154.5 Z"/></g>
<g><path style="opacity:1" fill="#4d5c5e" d="M 200.5,162.5 C 200.737,166.273 200.237,169.94 199,173.5C 197.663,174.765 196.163,175.265 194.5,175C 195.152,171.234 196.486,167.734 198.5,164.5C 198.184,161.707 197.018,159.374 195,157.5C 195.456,160.428 195.456,163.428 195,166.5C 194.632,167.91 193.799,168.91 192.5,169.5C 191.253,167.994 191.253,166.494 192.5,165C 191.484,164.481 190.818,163.647 190.5,162.5C 191.656,159.94 191.656,157.44 190.5,155C 186.833,154.333 183.167,154.333 179.5,155C 178.429,156.825 179.096,157.992 181.5,158.5C 182.583,159.365 182.749,160.365 182,161.5C 180,158.833 178,158.833 176,161.5C 175.506,159.866 175.34,158.199 175.5,156.5C 178.295,153.148 181.962,150.981 186.5,150C 188.971,149.294 191.305,149.627 193.5,151C 190.5,151.333 187.5,151.667 184.5,152C 192.175,152.314 197.508,155.814 200.5,162.5 Z"/></g>
<g><path style="opacity:1" fill="#445456" d="M 127.5,154.5 C 128.39,156.782 128.556,159.115 128,161.5C 126,158.833 124,158.833 122,161.5C 122.031,158.799 123.531,157.299 126.5,157C 125.833,156.333 125.167,155.667 124.5,155C 120.833,154.333 117.167,154.333 113.5,155C 112.464,157.259 112.464,159.592 113.5,162C 113.245,163.326 112.578,164.326 111.5,165C 112.167,166.333 112.833,167.667 113.5,169C 111.112,169.865 109.612,169.032 109,166.5C 108.272,163.77 108.438,161.103 109.5,158.5C 108.645,157.707 107.811,158.04 107,159.5C 106.161,164.963 106.994,170.129 109.5,175C 106.883,174.74 105.05,173.24 104,170.5C 102.936,159.223 108.103,153.057 119.5,152C 115.797,151.421 112.131,151.588 108.5,152.5C 110.046,151.14 111.88,150.14 114,149.5C 119.079,149.754 123.579,151.42 127.5,154.5 Z"/></g>
<g><path style="opacity:1" fill="#556262" d="M 108.5,152.5 C 104.265,157.291 100.765,162.625 98,168.5C 96.4912,170.919 94.3245,171.919 91.5,171.5C 93.4691,169.841 95.4691,168.175 97.5,166.5C 94.5535,165.679 91.5535,165.179 88.5,165C 87.8333,164.333 87.1667,163.667 86.5,163C 93.9499,166.031 99.4499,163.865 103,156.5C 104.451,154.536 106.284,153.203 108.5,152.5 Z"/></g>
<g><path style="opacity:1" fill="#566465" d="M 210.5,171.5 C 206.792,170.113 204.459,167.446 203.5,163.5C 201.692,159.401 199.025,155.901 195.5,153C 199.688,154.52 202.688,157.52 204.5,162C 208.412,165.02 212.412,165.186 216.5,162.5C 217.604,163.631 217.271,164.465 215.5,165C 203.784,162.648 202.784,164.648 212.5,171C 211.906,171.464 211.239,171.631 210.5,171.5 Z"/></g>
<g><path style="opacity:1" fill="#425054" d="M 78.5,167.5 C 79.4293,168.315 80.4293,169.148 81.5,170C 80.4232,170.47 79.4232,170.303 78.5,169.5C 74.9512,168.668 73.6179,166.668 74.5,163.5C 75.5213,165.188 76.8546,166.521 78.5,167.5 Z"/></g>
<g><path style="opacity:1" fill="#748082" d="M 80.5,163.5 C 82.0848,165.831 83.2514,168.497 84,171.5C 84.6838,170.216 84.5171,169.049 83.5,168C 84.9653,167.399 85.9653,167.899 86.5,169.5C 85.6906,171.071 85.3573,172.738 85.5,174.5C 83.0706,174.116 80.7373,173.449 78.5,172.5C 78.5,173.5 78.5,174.5 78.5,175.5C 77.5,175.5 76.5,175.5 75.5,175.5C 75.6833,173.012 76.6833,171.012 78.5,169.5C 79.4232,170.303 80.4232,170.47 81.5,170C 80.4293,169.148 79.4293,168.315 78.5,167.5C 79.3446,166.329 80.0113,164.995 80.5,163.5 Z"/></g>
<g><path style="opacity:1" fill="#4d5c5e" d="M 146.5,154.5 C 146.953,155.458 147.619,156.292 148.5,157C 151.146,157.497 153.813,157.664 156.5,157.5C 157.848,158.601 159.348,159.601 161,160.5C 161.808,162.579 161.641,164.579 160.5,166.5C 160.167,166.333 159.833,166.167 159.5,166C 161.35,162.534 160.35,160.701 156.5,160.5C 156.466,166.808 159.466,169.474 165.5,168.5C 162.674,163.004 164.007,162.004 169.5,165.5C 168.41,166.609 168.41,167.609 169.5,168.5C 171.204,166.959 173.037,165.625 175,164.5C 176.225,164.862 177.391,165.362 178.5,166C 176.5,167 174.5,168 172.5,169C 175.822,169.059 178.656,170.226 181,172.5C 181.536,174.567 181.036,176.401 179.5,178C 176.086,178.757 175.086,177.59 176.5,174.5C 177.687,175.894 178.354,175.727 178.5,174C 176.906,171.619 174.573,170.453 171.5,170.5C 171.585,172.929 172.585,174.929 174.5,176.5C 174,176.833 173.5,177.167 173,177.5C 171.163,175.757 169.496,173.757 168,171.5C 168.409,173.225 168.242,174.892 167.5,176.5C 165.954,175.316 164.287,174.316 162.5,173.5C 163.167,172.833 163.833,172.167 164.5,171.5C 158.086,170.084 154.42,166.084 153.5,159.5C 152.414,163.155 152.414,166.822 153.5,170.5C 152.325,170.719 151.325,170.386 150.5,169.5C 151.757,166.177 151.757,162.844 150.5,159.5C 150.02,166.481 146.353,170.481 139.5,171.5C 140.167,172.167 140.833,172.833 141.5,173.5C 139.713,174.316 138.046,175.316 136.5,176.5C 136.5,174.833 136.5,173.167 136.5,171.5C 134.833,173.5 133.167,175.5 131.5,177.5C 131.167,177 130.833,176.5 130.5,176C 134.592,170.656 133.259,169.323 126.5,172C 125.483,173.049 125.316,174.216 126,175.5C 126.414,175.043 126.914,174.709 127.5,174.5C 128.844,177.822 127.844,178.822 124.5,177.5C 122.876,176.131 122.376,174.464 123,172.5C 125.344,170.226 128.178,169.059 131.5,169C 130.051,167.883 128.384,167.216 126.5,167C 125.167,166.333 125.167,165.667 126.5,165C 127.833,164.333 129.167,164.333 130.5,165C 131.685,166.353 133.019,167.52 134.5,168.5C 135.59,167.609 135.59,166.609 134.5,165.5C 140.266,162.102 141.599,163.268 138.5,169C 144.905,169.434 147.572,166.601 146.5,160.5C 143.79,161.914 142.79,163.914 143.5,166.5C 141.78,162.352 143.113,159.519 147.5,158C 144.045,155.659 141.545,156.493 140,160.5C 139.243,157.524 140.409,155.691 143.5,155C 138.173,153.816 135.173,155.983 134.5,161.5C 133.28,161.113 132.613,160.28 132.5,159C 132.989,157.862 133.322,156.695 133.5,155.5C 137.69,152.119 142.024,151.786 146.5,154.5 Z"/></g>
<g><path style="opacity:1" fill="#626f71" d="M 223.5,163.5 C 224.325,165.322 224.658,166.989 224.5,168.5C 226.316,167.185 227.983,165.685 229.5,164C 230.332,163.312 230.998,163.479 231.5,164.5C 229.976,166.858 227.976,168.691 225.5,170C 227.513,170.68 228.846,172.013 229.5,174C 229.15,175.257 228.483,175.591 227.5,175C 226.352,173.351 225.019,171.851 223.5,170.5C 222.914,170.709 222.414,171.043 222,171.5C 220.506,167.696 219.672,168.029 219.5,172.5C 220.675,172.281 221.675,172.614 222.5,173.5C 221.311,174.429 219.978,174.762 218.5,174.5C 218.643,172.738 218.309,171.071 217.5,169.5C 218.824,168.065 220.49,167.065 222.5,166.5C 220.908,164.775 221.242,163.775 223.5,163.5 Z"/></g>
<g><path style="opacity:1" fill="#4b595b" d="M 216.5,173.5 C 215.5,174.833 214.5,174.833 213.5,173.5C 213.222,171.654 213.889,170.32 215.5,169.5C 216.429,170.689 216.762,172.022 216.5,173.5 Z"/></g>
<g><path style="opacity:1" fill="#4c5c5e" d="M 91.5,171.5 C 90.756,174.884 89.4226,175.218 87.5,172.5C 87.5,171.5 87.5,170.5 87.5,169.5C 89.1993,169.527 90.5326,170.194 91.5,171.5 Z"/></g>
</svg>
